<svg xmlns="http://www.w3.org/2000/svg" width="169.483" height="157.773" viewBox="0 0 169.483 157.773">
  <g id="Group_26" data-name="Group 26" transform="translate(-317.359 -810.099)">
    <path id="Path_727" data-name="Path 727" d="M477.421,2099.026l-16.717,8.08,6.467,3.1-6.467,9.89-11.547,9.794-10.522,6-15.757,5.665H404.934l-19.63-3.8,2.159,9.5,15.771,3.616,19.644-1.788,19.754-7.534,11.205-7.318,11.764-11.288,6.866-9.639,4.953,3.285Z" transform="translate(0 -1183)" fill="#bcafa0"/>
    <g id="Group_25" data-name="Group 25" transform="translate(368.382 862.906)">
      <path id="Path_718" data-name="Path 718" d="M1377.041,1320.24v1.4l1.167,1.287,3.323,3.716,2.244,1.511,2.944-.891,1.628-2.226v-2.674l3.118-3.041h1.661l1.542.915,3.56-3.208L1411.7,1332.3v1.063l-27.062,32.013,5.239,4.479v-2.137l2.2.562v-2.493l1.889.909v-2.147l2.487.827-.538-2.44,2.309.789v-2.346l2.009.793v-2.146l1.821.772v-2.51l2.393.842-.446-2.575,2.345,1.057v-2.577l1.745.71v-2.278l2.49.863v-2.534l1.828.9v-2.569l1.907,1v-2.264l2.192.56v-2.183l1.876.748v-2.344l1.933.681v-1.7l19.454,21.163,1.266.909h1.613l5.835-5.318v-1.353l-.675-1.738-17.907-19.474.65-.542v-2l2.218.612V1334.9l2.058.621v-2.162l2.206.624v-2.61l1.979.923v-2.4l2.023.825v-2.561l1.613.985v-2.5l2.488,1.045v-2.65l1.936,1.017v-2.278l1.959.809v-2.222l-1.959-1.427-2.814-.7-4.02-1.789-3.784-2.023-3.685-2.6-2.868-2.615-13.395,16.053-13.456-15.055,3.959-3.284v-1.356l-.665-1.439v-2.448l1.745-1.351,3.609-2.15,4.808-1.446,4.566-.544,4.1.544h1.4l-.833-1.511-2.9-1.328-6.336-1.933h-4.1l-5.4.47-5.885,2.792-6.462,5.107-9.163,8.076.675.8.539,2.025-2.077,2.075-1.514,1.115h-1.6l-2.109.6-1.68,1.419Z" transform="translate(-1377.041 -1293.757)" fill="#ab9d8d"/>
      <path id="Path_719" data-name="Path 719" d="M1513.159,1309.889l2,1.851,2.713,2.285,1.811,1.775,1.813.806,3.774.969,6.446,2.229,2.417.853,1.947-2.063,5.839-6.854,2.527-2.908v-1.147l-17.193-14.242-1.115.422-12.509,14.967Z" transform="translate(-1458.818 -1293.443)" fill="#ab9d8d"/>
      <path id="Path_720" data-name="Path 720" d="M1531.436,1314.316v1.161l1.682,1.726,2.948,1.473,9.052,3.814h1.15l3.742-4.707-2.378-2.306-9.577-8.226-1.264.584Z" transform="translate(-1469.799 -1301.738)" fill="#fff" opacity="0.218"/>
      <path id="Path_721" data-name="Path 721" d="M1523.332,1330.847l-.991,1.473.991,1.542,1.46-1.542Z" transform="translate(-1464.335 -1315.914)" fill="#fff" opacity="0.22"/>
      <path id="Path_722" data-name="Path 722" d="M1553.07,1346.989l-1.083,1.362,1.083,1.009,1.733-1.009Z" transform="translate(-1482.145 -1325.613)" fill="#fff" opacity="0.22"/>
    </g>
    <path id="Path_730" data-name="Path 730" d="M477.421,2099.026l-16.717,8.08,6.467,3.1-6.467,9.89-11.547,9.794-10.522,6-15.757,5.665H404.934l-19.63-3.8,2.159,9.5,15.771,3.616,19.644-1.788,19.754-7.534,11.205-7.318,11.764-11.288,6.866-9.639,4.953,3.285Z" transform="translate(-1183.216 2298.995) rotate(-120)" fill="#d0c4b6"/>
    <path id="Path_731" data-name="Path 731" d="M477.421,2099.026l-16.717,8.08,6.467,3.1-6.467,9.89-11.547,9.794-10.522,6-15.757,5.665H404.934l-19.63-3.8,2.159,9.5,15.771,3.616,19.644-1.788,19.754-7.534,11.205-7.318,11.764-11.288,6.866-9.639,4.953,3.285Z" transform="matrix(-0.485, 0.875, -0.875, -0.485, 2430.013, 1550.867)" fill="#a3998d"/>
  </g>
</svg>
