<svg xmlns="http://www.w3.org/2000/svg" xmlns:xlink="http://www.w3.org/1999/xlink" width="195" height="377" viewBox="0 0 195 377">
  <defs>
    <clipPath id="clip-path">
      <rect id="Rectangle_1768" data-name="Rectangle 1768" width="195" height="377" fill="none"/>
    </clipPath>
    <clipPath id="clip-path-2">
      <rect id="Rectangle_1777" data-name="Rectangle 1777" width="15.071" height="10.047" fill="none"/>
    </clipPath>
    <linearGradient id="linear-gradient" x1="0.985" y1="-0.466" x2="0.009" y2="1.072" gradientUnits="objectBoundingBox">
      <stop offset="0" stop-color="#212023"/>
      <stop offset="0.5" stop-color="#232225"/>
      <stop offset="0.73" stop-color="#2a292d"/>
      <stop offset="0.91" stop-color="#363439"/>
      <stop offset="1" stop-color="#403e44"/>
    </linearGradient>
    <clipPath id="clip-path-3">
      <path id="Path_2988" data-name="Path 2988" d="M228.66,302.773l.3-.343-.07.382-.207.466-.242.022Z" transform="translate(-228.44 -302.43)" fill="none"/>
    </clipPath>
    <linearGradient id="linear-gradient-2" x1="317.375" y1="292.331" x2="318.078" y2="292.331" xlink:href="#linear-gradient"/>
    <clipPath id="clip-path-4">
      <path id="Path_3025" data-name="Path 3025" d="M230.229,302.641l-.268.3-.281.365.273.141.171-.237.207-.545.022-.123Z" transform="translate(-229.68 -302.54)" fill="none"/>
    </clipPath>
    <linearGradient id="linear-gradient-3" x1="285.945" y1="308.526" x2="286.74" y2="308.526" xlink:href="#linear-gradient"/>
    <clipPath id="clip-path-5">
      <path id="Path_3062" data-name="Path 3062" d="M230.7,303.834l.387-.145.356-.277.321-.312-.053.286-.163.294-.492.378-.207.1-.3-.2Z" transform="translate(-230.55 -303.1)" fill="none"/>
    </clipPath>
    <linearGradient id="linear-gradient-4" x1="192.298" y1="275.428" x2="193.145" y2="275.428" xlink:href="#linear-gradient"/>
    <clipPath id="clip-path-6">
      <path id="Path_3099" data-name="Path 3099" d="M232.9,304.77l-.418.251-.492.088.286.193.523-.229.29-.374Z" transform="translate(-231.99 -304.7)" fill="none"/>
    </clipPath>
    <linearGradient id="linear-gradient-5" x1="166.124" y1="411.759" x2="167.047" y2="411.759" xlink:href="#linear-gradient"/>
    <clipPath id="clip-path-7">
      <path id="Path_3135" data-name="Path 3135" d="M224.36,303.11l.778.141.822.251a1.947,1.947,0,0,1,.439.127,2.406,2.406,0,0,1,.439.233,9.331,9.331,0,0,1,1.09.782c.105.1.251.229.409.4l1.1-.664c-.193.031-.4.057-.62.075s-.391.026-.576.031l-1.2-.545-.549-.439Z" transform="translate(-224.36 -303.11)" fill="none"/>
    </clipPath>
    <linearGradient id="linear-gradient-6" x1="57.605" y1="207.074" x2="58.608" y2="207.074" xlink:href="#linear-gradient"/>
    <clipPath id="clip-path-8">
      <path id="Path_3172" data-name="Path 3172" d="M182.45,301.716l-.29-.356.057.387.189.479.251.031Z" transform="translate(-182.16 -301.36)" fill="none"/>
    </clipPath>
    <linearGradient id="linear-gradient-7" x1="5588.175" y1="-238.786" x2="5588.919" y2="-238.786" xlink:href="#linear-gradient"/>
    <clipPath id="clip-path-9">
      <path id="Path_3209" data-name="Path 3209" d="M180.643,301.52l.264.312.273.378-.281.132-.167-.246-.193-.563-.018-.123Z" transform="translate(-180.52 -301.41)" fill="none"/>
    </clipPath>
    <linearGradient id="linear-gradient-8" x1="4898.531" y1="-253.948" x2="4899.348" y2="-253.948" xlink:href="#linear-gradient"/>
    <clipPath id="clip-path-10">
      <path id="Path_3246" data-name="Path 3246" d="M179.4,302.688l-.391-.158-.352-.294-.316-.325.044.294.158.3.488.4.207.1.316-.193Z" transform="translate(-178.34 -301.91)" fill="none"/>
    </clipPath>
    <linearGradient id="linear-gradient-9" x1="3254.273" y1="-227.19" x2="3255.136" y2="-227.19" xlink:href="#linear-gradient"/>
    <clipPath id="clip-path-11">
      <path id="Path_3283" data-name="Path 3283" d="M177.269,303.565l.422.272.5.106-.3.185-.527-.251-.286-.387Z" transform="translate(-177.08 -303.49)" fill="none"/>
    </clipPath>
    <linearGradient id="linear-gradient-10" x1="2778.159" y1="-332.551" x2="2779.085" y2="-332.551" xlink:href="#linear-gradient"/>
    <clipPath id="clip-path-12">
      <path id="Path_3319" data-name="Path 3319" d="M180.878,302.22l-.8.119-.839.242a2.531,2.531,0,0,0-.44.114,2.41,2.41,0,0,0-.439.224,9.4,9.4,0,0,0-1.147.756c-.11.092-.264.224-.44.4l-1.1-.712q.294.053.633.092c.207.026.4.04.589.053l1.231-.523.58-.44Z" transform="translate(-175.67 -302.22)" fill="none"/>
    </clipPath>
    <linearGradient id="linear-gradient-11" x1="942.387" y1="-183.353" x2="943.379" y2="-183.353" xlink:href="#linear-gradient"/>
  </defs>
  <g id="Layer_4" data-name="Layer 4" transform="translate(-0.5 -0.5)">
    <g id="Group_492" data-name="Group 492" transform="translate(0.5 0.5)" opacity="0.8">
      <g id="Group_491" data-name="Group 491" transform="translate(0 0)" clip-path="url(#clip-path)">
        <path id="Path_2899" data-name="Path 2899" d="M173.246,377.6H22.935A22.472,22.472,0,0,1,.52,355.182V22.915A22.472,22.472,0,0,1,22.935.5H173.246a22.472,22.472,0,0,1,22.415,22.415V355.182A22.472,22.472,0,0,1,173.246,377.6" transform="translate(-0.511 -0.5)"/>
      </g>
    </g>
    <rect id="Rectangle_1769" data-name="Rectangle 1769" width="180.875" height="276.889" transform="translate(7.809 40.798)" fill="#fff"/>
    <path id="Path_2900" data-name="Path 2900" d="M224.4,782.762c0,8.979-6.953,16.262-15.528,16.262s-15.528-7.283-15.528-16.262,6.953-16.262,15.528-16.262,15.528,7.278,15.528,16.262" transform="translate(-108.086 -429.338)"/>
    <path id="Path_2901" data-name="Path 2901" d="M216.151,42.456H184.858a1.978,1.978,0,1,1,0-3.956h31.293a1.978,1.978,0,1,1,0,3.956" transform="translate(-102.223 -21.299)"/>
    <path id="Path_2902" data-name="Path 2902" d="M271.632,40.478a1.89,1.89,0,1,1-1.89-1.978,1.934,1.934,0,0,1,1.89,1.978" transform="translate(-149.851 -21.299)"/>
    <path id="Path_2903" data-name="Path 2903" d="M40.8,683.195h-.44a.224.224,0,0,1-.22-.22V667.03a.224.224,0,0,1,.22-.22h.44a.22.22,0,0,1,.22.22v15.945a.22.22,0,0,1-.22.22" transform="translate(-22.218 -373.462)" fill="#66a8de"/>
    <rect id="Rectangle_1770" data-name="Rectangle 1770" width="13.405" height="13.458" rx="4.1" transform="translate(11.518 301.246)" fill="none" stroke="#66a8de" stroke-miterlimit="10" stroke-width="1"/>
    <path id="Path_2904" data-name="Path 2904" d="M44.617,670.735l-3.49-5.45a.308.308,0,0,0-.365-.1l-.229.1a.2.2,0,0,0-.11.294l3.49,5.45a.308.308,0,0,0,.365.1l.229-.1a.207.207,0,0,0,.11-.3" transform="translate(-22.362 -372.54)" fill="#66a8de"/>
    <path id="Path_2905" data-name="Path 2905" d="M32.729,671.177l3.683-5.274a.2.2,0,0,0-.1-.3l-.224-.11a.3.3,0,0,0-.365.075l-3.683,5.274a.207.207,0,0,0,.1.3l.224.11a.3.3,0,0,0,.365-.079" transform="translate(-17.66 -372.705)" fill="#66a8de"/>
    <path id="Path_2906" data-name="Path 2906" d="M218.7,689.561c-1.49-3.63-4.452-5.99-6.615-5.274s-3.226,4.5-1.209,7.876c1.648,2.751,4.338,3.925,5.85,4.782a1.874,1.874,0,0,1,.286.127,2.408,2.408,0,0,1,.382.2,1.992,1.992,0,0,1,.29.149,2.154,2.154,0,0,1,.369.206l.088.044c1.349-.193,1.859-4.949.558-8.109" transform="translate(-117.314 -383.186)" fill="#cb2228"/>
    <path id="Path_2907" data-name="Path 2907" d="M227.457,689.877c1.556-3.608,4.562-5.916,6.707-5.16s3.147,4.558,1.072,7.911c-1.7,2.725-4.4,3.85-5.938,4.681a2.871,2.871,0,0,0-.29.123,2.231,2.231,0,0,0-.382.193,1.813,1.813,0,0,0-.294.141,2.13,2.13,0,0,0-.369.2l-.092.039c-1.345-.211-1.758-4.975-.413-8.113" transform="translate(-126.745 -383.419)" fill="#cb2228"/>
    <rect id="Rectangle_1771" data-name="Rectangle 1771" width="13.146" height="16.587" rx="0.02" transform="translate(172.545 297.804)" fill="none" stroke="#66a8de" stroke-miterlimit="10" stroke-width="1"/>
    <rect id="Rectangle_1772" data-name="Rectangle 1772" width="15.383" height="0.637" transform="translate(171.424 297.167)" fill="#66a8de"/>
    <rect id="Rectangle_1773" data-name="Rectangle 1773" width="0.281" height="14.354" transform="translate(174.782 298.762)" fill="#66a8de"/>
    <rect id="Rectangle_1774" data-name="Rectangle 1774" width="0.281" height="14.354" transform="translate(177.577 298.762)" fill="#66a8de"/>
    <rect id="Rectangle_1775" data-name="Rectangle 1775" width="0.281" height="14.354" transform="translate(180.377 298.762)" fill="#66a8de"/>
    <rect id="Rectangle_1776" data-name="Rectangle 1776" width="0.281" height="14.354" transform="translate(182.891 298.762)" fill="#66a8de"/>
    <path id="Path_2908" data-name="Path 2908" d="M405.154,677.243h-6.47c-.374,0-1.38.8-.681-.778v-1a.738.738,0,0,1,.681-.778h6.47a.738.738,0,0,1,.681.778v1C406.534,678.039,405.527,677.243,405.154,677.243Z" transform="translate(-222.663 -377.879)" fill="none" stroke="#66a8de" stroke-miterlimit="10" stroke-width="1"/>
    <g id="Group_494" data-name="Group 494" transform="translate(175.248 360.473)" opacity="0.25">
      <g id="Group_493" data-name="Group 493" clip-path="url(#clip-path-2)">
        <path id="Path_2909" data-name="Path 2909" d="M398.1,829.587c8.715-.712,15.453-5.208,15.058-10.047" transform="translate(-398.1 -819.54)" fill="#fff"/>
      </g>
    </g>
    <path id="Path_2910" data-name="Path 2910" d="M25.61,31.749c.879-7.472,5.678-13.058,10.746-12.464" transform="translate(-14.074 -10.505)" fill="#666665"/>
    <path id="Path_2911" data-name="Path 2911" d="M37.158,103.694l-5.516,3.956a.325.325,0,0,0-.084.391l.11.242a.211.211,0,0,0,.316.1l5.511-3.956a.321.321,0,0,0,.084-.391l-.11-.237a.207.207,0,0,0-.312-.105" transform="translate(-17.39 -57.82)" fill="#66a8de"/>
    <path id="Path_2912" data-name="Path 2912" d="M37.971,116.425l-5.626-3.705a.207.207,0,0,0-.308.119l-.105.242a.316.316,0,0,0,.1.387l5.63,3.705a.207.207,0,0,0,.308-.119l.105-.242a.316.316,0,0,0-.1-.387" transform="translate(-17.601 -62.881)" fill="#66a8de"/>
    <path id="Path_2913" data-name="Path 2913" d="M202.109,102.568H200.76v-.488h3.288v.488h-1.358v3.956h-.58Z" transform="translate(-112.244 -56.935)"/>
    <path id="Path_2914" data-name="Path 2914" d="M209.7,102.43a.338.338,0,0,1-.369.356.343.343,0,0,1-.347-.356.352.352,0,0,1,.36-.36.343.343,0,0,1,.356.36Zm-.646,4.087v-3.191h.58v3.191Z" transform="translate(-116.851 -56.929)"/>
    <path id="Path_2915" data-name="Path 2915" d="M212.616,105.831c0-.378,0-.7-.026-1h.51v.628h.026a.958.958,0,0,1,.879-.7.65.65,0,0,1,.167,0v.549a.879.879,0,0,0-.2,0,.817.817,0,0,0-.778.747,1.628,1.628,0,0,0-.026.268v1.7h-.576Z" transform="translate(-118.875 -58.436)"/>
    <path id="Path_2916" data-name="Path 2916" d="M217.217,107.457a1.485,1.485,0,0,0,.765.233c.44,0,.615-.211.615-.475s-.163-.44-.589-.589c-.576-.2-.844-.519-.844-.879a.98.98,0,0,1,1.1-.936,1.6,1.6,0,0,1,.787.2l-.145.44a1.253,1.253,0,0,0-.655-.185c-.343,0-.536.2-.536.44s.193.382.607.541c.554.211.839.488.839.963,0,.558-.439.954-1.191.954a1.8,1.8,0,0,1-.879-.215Z" transform="translate(-121.397 -58.461)"/>
    <path id="Path_2917" data-name="Path 2917" d="M225.971,101.54V105.4a6.769,6.769,0,0,0,.031.822h-.523l-.026-.554h0a1.178,1.178,0,0,1-1.086.628A1.456,1.456,0,0,1,223,104.674a1.53,1.53,0,0,1,1.433-1.714,1.064,1.064,0,0,1,.963.488h0V101.54Zm-.576,2.791a.946.946,0,0,0-.031-.246.848.848,0,0,0-.835-.672c-.6,0-.954.527-.954,1.235s.316,1.178.941,1.178a.879.879,0,0,0,.848-.69.91.91,0,0,0,.031-.251Z" transform="translate(-124.71 -56.632)"/>
    <path id="Path_2918" data-name="Path 2918" d="M233.45,108.031l-.048-.4h0a1.2,1.2,0,0,1-.976.475.91.91,0,0,1-.976-.919c0-.769.686-1.191,1.916-1.187v-.066a.655.655,0,0,0-.725-.738,1.6,1.6,0,0,0-.831.237l-.132-.382a1.982,1.982,0,0,1,1.05-.281c.971,0,1.209.664,1.209,1.319v1.191a4.449,4.449,0,0,0,.057.765Zm-.088-1.626c-.633,0-1.349.1-1.349.716a.51.51,0,0,0,.545.554.8.8,0,0,0,.773-.532.7.7,0,0,0,.031-.185Z" transform="translate(-129.446 -58.442)"/>
    <path id="Path_2919" data-name="Path 2919" d="M241.672,104.866c0,.233-.026.488-.026.879v1.85a1.9,1.9,0,0,1-.44,1.459,1.679,1.679,0,0,1-1.156.382,2.074,2.074,0,0,1-1.064-.264l.145-.439a1.8,1.8,0,0,0,.936.251c.593,0,1.028-.308,1.028-1.112v-.338h0a1.143,1.143,0,0,1-1.015.532,1.428,1.428,0,0,1-1.358-1.556,1.528,1.528,0,0,1,1.437-1.692,1.055,1.055,0,0,1,.993.554h0l.026-.483Zm-.6,1.261a.821.821,0,0,0-.031-.264.839.839,0,0,0-.813-.615c-.554,0-.945.47-.945,1.209,0,.624.316,1.147.941,1.147a.848.848,0,0,0,.8-.593.958.958,0,0,0,.044-.312Z" transform="translate(-133.519 -58.468)"/>
    <path id="Path_2920" data-name="Path 2920" d="M206.4,120.986h0l-.747.4-.11-.44.936-.5h.492v4.285h-.558Z" transform="translate(-114.924 -67.231)"/>
    <path id="Path_2921" data-name="Path 2921" d="M215.2,120.44v.382l-1.864,3.9h-.62l1.859-3.789H212.5v-.483Z" transform="translate(-118.825 -67.226)"/>
    <path id="Path_2922" data-name="Path 2922" d="M220.116,128.883a.391.391,0,0,1,.4-.413.382.382,0,0,1,.387.413.387.387,0,0,1-.391.44.391.391,0,0,1-.391-.44Z" transform="translate(-123.092 -71.726)"/>
    <path id="Path_2923" data-name="Path 2923" d="M223.12,124.623v-.356l.439-.44c1.094-1.042,1.591-1.6,1.6-2.241a.765.765,0,0,0-.848-.839,1.442,1.442,0,0,0-.91.365l-.185-.409a1.872,1.872,0,0,1,1.213-.439,1.2,1.2,0,0,1,1.319,1.244c0,.791-.571,1.433-1.477,2.3l-.343.316h1.925v.479Z" transform="translate(-124.777 -67.123)"/>
    <path id="Path_2924" data-name="Path 2924" d="M230.69,123.57a1.226,1.226,0,0,1,.853-1.147h0a1.059,1.059,0,0,1-.677-.963,1.2,1.2,0,0,1,1.319-1.138,1.106,1.106,0,0,1,1.244,1.055,1.094,1.094,0,0,1-.708,1h0a1.191,1.191,0,0,1,.879,1.108,1.321,1.321,0,0,1-1.455,1.248C231.235,124.731,230.69,124.194,230.69,123.57Zm2.307-.026c0-.523-.36-.774-.941-.936a.927.927,0,0,0-.769.879.787.787,0,0,0,.857.822.774.774,0,0,0,.853-.765Zm-1.6-2.145c0,.44.325.659.822.791a.844.844,0,0,0,.65-.778.668.668,0,0,0-.725-.7.681.681,0,0,0-.747.686Z" transform="translate(-129.02 -67.156)"/>
    <path id="Path_2925" data-name="Path 2925" d="M375,103.87a5.814,5.814,0,0,1,1.1-.092,1.815,1.815,0,0,1,1.283.36,1.108,1.108,0,0,1,.352.844,1.165,1.165,0,0,1-.839,1.134v.022a1.107,1.107,0,0,1,.655.879,7.034,7.034,0,0,0,.343,1.217H377.3a5.589,5.589,0,0,1-.3-1.059c-.132-.615-.369-.844-.879-.879h-.541v1.969H375Zm.576,2.022h.585c.615,0,1-.334,1-.844s-.413-.822-1.02-.831a2.36,2.36,0,0,0-.567.053Z" transform="translate(-209.905 -57.881)" fill="#66a8de"/>
    <path id="Path_2926" data-name="Path 2926" d="M383.071,108.311a1.02,1.02,0,0,0,1.094,1.108,2.119,2.119,0,0,0,.879-.163l.1.413a2.571,2.571,0,0,1-1.059.2,1.481,1.481,0,0,1-1.569-1.609,1.547,1.547,0,0,1,1.494-1.718,1.351,1.351,0,0,1,1.318,1.5v.268Zm1.7-.413a.831.831,0,0,0-.8-.945.962.962,0,0,0-.879.945Z" transform="translate(-214.112 -59.435)" fill="#66a8de"/>
    <path id="Path_2927" data-name="Path 2927" d="M393.045,103.31v3.859a7.9,7.9,0,0,0,.026.822h-.523l-.026-.554h0a1.178,1.178,0,0,1-1.086.628,1.456,1.456,0,0,1-1.367-1.622,1.53,1.53,0,0,1,1.433-1.714,1.064,1.064,0,0,1,.963.488h0V103.31Zm-.58,2.791a1.171,1.171,0,0,0-.026-.246.879.879,0,0,0-.839-.672c-.6,0-.954.527-.954,1.235s.316,1.178.941,1.178a.879.879,0,0,0,.853-.69,1.126,1.126,0,0,0,.026-.251Z" transform="translate(-218.351 -57.624)" fill="#66a8de"/>
    <path id="Path_2928" data-name="Path 2928" d="M399.581,104.2a.36.36,0,1,1-.721,0,.356.356,0,0,1,.365-.36.347.347,0,0,1,.356.36Zm-.659,4.1V105.1h.58v3.208Z" transform="translate(-223.278 -57.921)" fill="#66a8de"/>
    <path id="Path_2929" data-name="Path 2929" d="M405.016,106.614c0,.233-.026.488-.026.879v1.85a1.9,1.9,0,0,1-.44,1.459,1.7,1.7,0,0,1-1.16.382,2.074,2.074,0,0,1-1.064-.264l.145-.439a1.8,1.8,0,0,0,.936.251c.593,0,1.028-.308,1.028-1.112v-.356h0a1.138,1.138,0,0,1-1.015.532,1.428,1.428,0,0,1-1.358-1.556,1.531,1.531,0,0,1,1.437-1.692,1.068,1.068,0,0,1,1,.554h0l.022-.483Zm-.6,1.261a.817.817,0,0,0-.035-.264.831.831,0,0,0-.809-.615c-.554,0-.949.47-.949,1.209,0,.624.316,1.147.941,1.147a.848.848,0,0,0,.8-.593.962.962,0,0,0,.048-.312Z" transform="translate(-225.07 -59.438)" fill="#66a8de"/>
    <path id="Path_2930" data-name="Path 2930" d="M410.941,108.311a1.02,1.02,0,0,0,1.094,1.108,2.118,2.118,0,0,0,.879-.163l.1.413a2.571,2.571,0,0,1-1.059.2,1.481,1.481,0,0,1-1.569-1.609,1.547,1.547,0,0,1,1.494-1.718,1.351,1.351,0,0,1,1.319,1.5v.268Zm1.7-.413a.831.831,0,0,0-.8-.945.962.962,0,0,0-.879.945Z" transform="translate(-229.733 -59.435)" fill="#66a8de"/>
    <path id="Path_2931" data-name="Path 2931" d="M418.4,107.631c0-.378,0-.7-.022-1h.505l.022.628h.022a.962.962,0,0,1,.879-.7.628.628,0,0,1,.167,0v.549a.878.878,0,0,0-.2,0,.817.817,0,0,0-.778.747,1.629,1.629,0,0,0-.026.268v1.7H418.4Z" transform="translate(-234.219 -59.444)" fill="#66a8de"/>
    <rect id="Rectangle_1778" data-name="Rectangle 1778" width="181.318" height="174.405" transform="translate(7.286 87.527)" fill="#30292f"/>
    <rect id="Rectangle_1779" data-name="Rectangle 1779" width="181.318" height="1.152" transform="translate(7.286 99.051)" fill="#ddcfa4"/>
    <rect id="Rectangle_1780" data-name="Rectangle 1780" width="181.318" height="1.152" transform="translate(7.286 111.726)" fill="#ddcfa4"/>
    <rect id="Rectangle_1781" data-name="Rectangle 1781" width="181.318" height="1.152" transform="translate(7.286 123.25)" fill="#ddcfa4"/>
    <rect id="Rectangle_1782" data-name="Rectangle 1782" width="181.318" height="1.152" transform="translate(7.286 134.774)" fill="#ddcfa4"/>
    <rect id="Rectangle_1783" data-name="Rectangle 1783" width="181.318" height="1.152" transform="translate(7.286 146.298)" fill="#ddcfa4"/>
    <rect id="Rectangle_1784" data-name="Rectangle 1784" width="181.318" height="1.152" transform="translate(7.286 157.826)" fill="#ddcfa4"/>
    <rect id="Rectangle_1785" data-name="Rectangle 1785" width="181.318" height="1.152" transform="translate(7.286 169.35)" fill="#ddcfa4"/>
    <rect id="Rectangle_1786" data-name="Rectangle 1786" width="181.318" height="1.152" transform="translate(7.286 180.874)" fill="#ddcfa4"/>
    <rect id="Rectangle_1787" data-name="Rectangle 1787" width="181.318" height="1.152" transform="translate(7.286 192.397)" fill="#ddcfa4"/>
    <rect id="Rectangle_1788" data-name="Rectangle 1788" width="181.318" height="1.152" transform="translate(7.286 203.921)" fill="#ddcfa4"/>
    <rect id="Rectangle_1789" data-name="Rectangle 1789" width="116.399" height="0.817" transform="translate(26.47 87.527) rotate(90)" fill="#ddcfa4"/>
    <rect id="Rectangle_1790" data-name="Rectangle 1790" width="116.399" height="0.817" transform="translate(46.059 87.641) rotate(90)" fill="#ddcfa4"/>
    <rect id="Rectangle_1791" data-name="Rectangle 1791" width="116.399" height="0.817" transform="translate(66.8 88.028) rotate(90)" fill="#ddcfa4"/>
    <rect id="Rectangle_1792" data-name="Rectangle 1792" width="116.399" height="0.817" transform="translate(87.549 87.637) rotate(90)" fill="#ddcfa4"/>
    <rect id="Rectangle_1793" data-name="Rectangle 1793" width="116.399" height="0.817" transform="translate(109.445 87.637) rotate(90)" fill="#ddcfa4"/>
    <rect id="Rectangle_1794" data-name="Rectangle 1794" width="116.399" height="0.817" transform="translate(128.651 87.641) rotate(90)" fill="#ddcfa4"/>
    <rect id="Rectangle_1795" data-name="Rectangle 1795" width="116.399" height="0.817" transform="translate(149.778 87.641) rotate(90)" fill="#ddcfa4"/>
    <rect id="Rectangle_1796" data-name="Rectangle 1796" width="116.399" height="0.817" transform="translate(170.646 87.601) rotate(90)" fill="#ddcfa4"/>
    <rect id="Rectangle_1797" data-name="Rectangle 1797" width="181.318" height="56.855" transform="translate(7.286 205.073)" fill="#262126"/>
    <path id="Path_2932" data-name="Path 2932" d="M359.183,444.536c.51-.246.752.413,1.1.092s.211-.914.545-1.244.585.176.879-.149a2.343,2.343,0,0,0,.33-1.793c-.088-.321-.229-.316-.255-.628-.035-.44.2-.624.176-1.05a.879.879,0,0,0-.382-.712c-.277-.136-.44.255-.765.163-.224-.066-.207-.259-.44-.418-.439-.277-.879.022-1.169.2-.048.031-.132.18-.259.2s-.141-.066-.224-.031c-.171.066-.2.488-.325.519s-.11-.224-.29-.4a.369.369,0,0,0-.558-.044c-.1.114-.088.237-.2.36a.365.365,0,0,1-.321.1,1.072,1.072,0,0,0-.721.171c-.233.2-.171.44-.413.743-.338.391-.6,0-.831.382a2.966,2.966,0,0,0-.22,1.578c0,.088.119.949.519,1.182.277.158.466-.123.694.132.158.18.119.378.255.628.2.369.44.246.941.387.747.207.782.637,1.152.475S358.779,444.73,359.183,444.536Z" transform="translate(-198.588 -245.599)" fill="#e4eded"/>
    <path id="Path_2933" data-name="Path 2933" d="M332.758,442c-.879-.365-1.481.224-2.035-.171s-.171-.949-.708-1.349-1.108.031-1.609-.365a1.437,1.437,0,0,1-.171-1.837c.233-.29.5-.251.62-.554.167-.4-.22-.659-.07-1.068a1.086,1.086,0,0,1,.879-.607c.545-.066.73.352,1.362.343.44,0,.44-.2.927-.3a3.257,3.257,0,0,1,2.092.483,1.319,1.319,0,0,0,.44.259c.211.048.277-.031.439.022.3.105.242.527.466.589s.259-.193.628-.33a1.134,1.134,0,0,1,1.042.092c.158.136.1.255.286.4a1.046,1.046,0,0,0,.563.176,3.226,3.226,0,0,1,1.279.338c.387.251.207.488.585.826.523.47,1.094.154,1.428.58a1.671,1.671,0,0,1,.026,1.6,1.894,1.894,0,0,1-1.235,1.033c-.549.088-.831-.233-1.319-.035-.334.136-.308.338-.624.554-.44.308-.879.132-1.815.149-1.42,0-1.587.439-2.228.189S333.448,442.292,332.758,442Z" transform="translate(-183.551 -244.12)" fill="#dce5e5"/>
    <path id="Path_2934" data-name="Path 2934" d="M324.322,446.886c-.558-.338-.967.268-1.318-.11s-.083-.945-.418-1.319-.721.066-1.033-.312a2.018,2.018,0,0,1-.057-1.828c.158-.3.33-.264.418-.571.123-.409-.123-.651,0-1.064a.879.879,0,0,1,.58-.633c.356-.083.466.33.879.3.281-.022.295-.215.611-.33a1.478,1.478,0,0,1,1.345.418c.053.039.123.2.273.246s.176-.04.268,0c.193.1.145.519.29.576s.171-.2.413-.347a.505.505,0,0,1,.672.062c.1.127.062.25.176.391a.466.466,0,0,0,.356.158,1.472,1.472,0,0,1,.822.3c.242.237.119.479.356.809.325.44.7.114.91.532a2.427,2.427,0,0,1-.031,1.591c-.031.057-.316.914-.831,1.068-.36.105-.536-.207-.848,0-.22.145-.211.347-.439.571-.3.321-.567.158-1.182.2-.923.066-1.042.484-1.45.255S324.761,447.136,324.322,446.886Z" transform="translate(-179.809 -246.88)" fill="#e4eded"/>
    <rect id="Rectangle_1798" data-name="Rectangle 1798" width="7.581" height="2.795" rx="1.398" transform="translate(32.193 173.085)" fill="#414444"/>
    <rect id="Rectangle_1799" data-name="Rectangle 1799" width="14.983" height="8.834" rx="4.417" transform="translate(28.413 174.725)" fill="#dce5e5"/>
    <rect id="Rectangle_1800" data-name="Rectangle 1800" width="51.862" height="30.348" rx="12.74" transform="translate(64.527 216.601)" fill="#e5e5e5"/>
    <ellipse id="Ellipse_113" data-name="Ellipse 113" cx="26.951" cy="33.719" rx="26.951" ry="33.719" transform="translate(63.446 134.633)" fill="#e2e1e0"/>
    <ellipse id="Ellipse_114" data-name="Ellipse 114" cx="34.303" cy="24.226" rx="34.303" ry="24.226" transform="translate(56.036 192.208)" fill="#e2e1e0"/>
    <ellipse id="Ellipse_115" data-name="Ellipse 115" cx="25.891" cy="10.878" rx="25.891" ry="10.878" transform="translate(63.262 200.568)" fill="#c4c2c0"/>
    <path id="Path_2935" data-name="Path 2935" d="M316.61,445h24.973l-3.459,31.113-17.673-.787Q318.539,460.167,316.61,445Z" transform="translate(-177.178 -249.139)" fill="#4c4745"/>
    <path id="Path_2936" data-name="Path 2936" d="M161.873,320.007c2.571,2.518,6.245.066,17.558-1.033,14.5-1.406,21.747,1.319,23.413-2.066,1.288-2.637-2.883-4.549-4.835-12.051s1.1-9.792,0-19.281c-.672-5.819-1.257-10.856-4.835-14.117-6.865-6.281-22.555-3.907-28.234,4.131-3.771,5.336.092,8.606-1.723,24.793C161.89,312.487,159,317.2,161.873,320.007Z" transform="translate(-89.759 -149.866)" fill="#aa8857"/>
    <path id="Path_2937" data-name="Path 2937" d="M179.313,339.9c-1.973-2.2-7.133-1.978-9.23.382-1.222,1.384-1.38,3.371-1.538,5.38-.193,2.444.33,2.945,0,4.224-.721,2.813-4.057,3.608-6.153,5-4.158,2.76-2.637,7.357-5.38,19.206-2.575,11.146-5.046,12.979-5.74,22.279-1.143,15.545,6.535,17.018,7.683,38.417.33,6.179.079,13.3,2.3,13.827,1.789.44,4.131-3.665,4.228-3.841,2.971-5.274.589-9.6.382-22.279-.084-5.155.259-7.722,1.538-10.372.391-.813,3.1-6.412,6.913-6.531,3.991-.123,7.388,5.806,8.839,9.6,4.663,12.253-3.569,21.839,2.3,28.814,1.253,1.486,3.516,3.279,4.993,2.685,2.435-.967.756-7.5,1.152-18.82a106.224,106.224,0,0,1,2.69-21.514c1.6-6.738,2.751-8.206,2.307-12.306-.483-4.4-2.2-6.153-3.077-12.675a28.561,28.561,0,0,1-.211-5.226s-.022-1.068-.171-2.457c-.927-8.628-1.6-14.912-5.38-18.055-.545-.439-1.644-1.253-3.841-3.077-1.644-1.362-2.466-2.048-2.685-2.3C178.337,346.924,181.612,342.476,179.313,339.9Z" transform="translate(-84.442 -189.379)" fill="#eddebe"/>
    <path id="Path_2938" data-name="Path 2938" d="M170.268,272.341c-6.861,2.681-9.392,9.041-9.942,10.425-2.69,6.768.483,13.792.963,14.838.672,1.486,5.529,11.673,15.242,12.183,8.645.44,14.275-7.124,15.778-9.151,1.121-1.5,8.056-10.377,3.956-18.846C192.3,273.519,179.532,268.719,170.268,272.341Z" transform="translate(-88.982 -151.68)" fill="#eddebe"/>
    <path id="Path_2939" data-name="Path 2939" d="M197.1,335.107c-.523-.075-.7-.294-1.239-.387a3.142,3.142,0,0,0-1.319.149c-.36.088-.624.158-.9.242-.822.251-1.068.483-1.934.738a1.982,1.982,0,0,1-.7.114,2.757,2.757,0,0,1-.879-.237,14.878,14.878,0,0,0,2.017,1.442,6.856,6.856,0,0,0,3.415,1.9c3.318.637,6.667-1.951,6.544-2.839,0-.119-.207-.229-.58-.439a4.817,4.817,0,0,0-3.077-.879C197.769,334.975,197.654,335.186,197.1,335.107Z" transform="translate(-106.286 -187.319)" fill="#7a504c"/>
    <path id="Path_2940" data-name="Path 2940" d="M198.069,338.187a28.13,28.13,0,0,1-6.219-.7l.079-.338a27.482,27.482,0,0,0,6.9.681,27.045,27.045,0,0,0,4.109-.44l.062.343a28.26,28.26,0,0,1-4.162.44C198.57,338.187,198.315,338.187,198.069,338.187Z" transform="translate(-107.25 -188.69)" fill="url(#linear-gradient)"/>
    <path id="Path_2941" data-name="Path 2941" d="M178.078,304.247a5.465,5.465,0,0,0,2.536.6,14.16,14.16,0,0,0,4.114-.255c.839-.145,1.077-.242,1.121-.4.123-.483-1.758-1.217-1.951-1.288a7.721,7.721,0,0,0-3.046-.642,7.3,7.3,0,0,0-3.182.835l-.549.321A3.151,3.151,0,0,0,178.078,304.247Z" transform="translate(-98.994 -169.135)" fill="#fff"/>
    <path id="Path_2942" data-name="Path 2942" d="M181.489,304.8a9.2,9.2,0,0,1-1.217-.057,5.9,5.9,0,0,1-2.606-.62,3.362,3.362,0,0,1-1.011-.879l-.114-.154.712-.44a7.428,7.428,0,0,1,3.27-.879,8.051,8.051,0,0,1,3.112.655c1.015.391,2.2.967,2.057,1.494-.07.277-.439.382-1.257.523a16.259,16.259,0,0,1-2.945.356Zm-4.43-1.609a3,3,0,0,0,.782.633h0a5.581,5.581,0,0,0,2.461.576,13.883,13.883,0,0,0,4.07-.255c.879-.149.971-.237.98-.268.035-.141-.6-.611-1.846-1.09a7.691,7.691,0,0,0-2.98-.628,7.234,7.234,0,0,0-3.077.809Z" transform="translate(-98.669 -168.86)" fill="#070707"/>
    <path id="Path_2943" data-name="Path 2943" d="M178.843,302.554l-.123-.123a5.744,5.744,0,0,1,3.665-1.6,6.748,6.748,0,0,1,2.611.4,6.154,6.154,0,0,1,1.828,1l-.11.132a5.867,5.867,0,0,0-1.758-.967,6.548,6.548,0,0,0-2.545-.391A5.665,5.665,0,0,0,178.843,302.554Z" transform="translate(-99.891 -168.329)" fill="#070707"/>
    <ellipse id="Ellipse_116" data-name="Ellipse 116" cx="1.424" cy="1.292" rx="1.424" ry="1.292" transform="translate(81.176 133.187)" fill="#3a1d0e"/>
    <path id="Path_2944" data-name="Path 2944" d="M185.6,304.933a1.468,1.468,0,1,1,1.6-1.464A1.534,1.534,0,0,1,185.6,304.933Zm0-2.584a1.125,1.125,0,1,0,1.248,1.121A1.187,1.187,0,0,0,185.6,302.349Z" transform="translate(-102.996 -168.991)" fill="#2a1000"/>
    <ellipse id="Ellipse_117" data-name="Ellipse 117" cx="0.488" cy="0.677" rx="0.488" ry="0.677" transform="translate(82.248 133.657)"/>
    <path id="Path_2945" data-name="Path 2945" d="M186.214,304.732a.879.879,0,1,1,.664-.848A.769.769,0,0,1,186.214,304.732Zm0-1.354c-.163,0-.312.237-.312.505s.149.5.312.5.312-.207.312-.5S186.386,303.378,186.214,303.378Z" transform="translate(-103.478 -169.55)" fill="#2a1000"/>
    <ellipse id="Ellipse_118" data-name="Ellipse 118" cx="0.299" cy="0.189" rx="0.299" ry="0.189" transform="translate(82.376 134.073) rotate(-38.63)" fill="#e2e1e0"/>
    <path id="Path_2946" data-name="Path 2946" d="M215.95,305.478a11.5,11.5,0,0,0,2.281.237,8.522,8.522,0,0,0,4.048-.853c.4-.211.963-.514.932-.844-.048-.519-1.56-.734-2.2-.826a7.911,7.911,0,0,0-3.116,0,7.388,7.388,0,0,0-2.932,1.45l-.466.418a10.015,10.015,0,0,0,1.45.418Z" transform="translate(-119.946 -169.57)" fill="#fff"/>
    <path id="Path_2947" data-name="Path 2947" d="M217.873,305.687h-.035a11.705,11.705,0,0,1-2.316-.242h0a10.513,10.513,0,0,1-1.459-.413l-.272-.1.681-.615a7.6,7.6,0,0,1,3.011-1.49,8.156,8.156,0,0,1,3.182,0h.04c1.081.163,2.237.387,2.29.98.04.44-.576.769-1.024,1.006a8.75,8.75,0,0,1-4.1.87Zm-2.285-.58a11.234,11.234,0,0,0,2.246.233,8.417,8.417,0,0,0,3.956-.835c.281-.149.879-.44.844-.672s-.374-.44-1.991-.668h-.04a7.669,7.669,0,0,0-3.05,0,7.278,7.278,0,0,0-2.852,1.411l-.251.224a11.678,11.678,0,0,0,1.138.3Z" transform="translate(-119.548 -169.366)" fill="#070707"/>
    <ellipse id="Ellipse_119" data-name="Ellipse 119" cx="1.494" cy="1.358" rx="1.494" ry="1.358" transform="translate(97.824 133.446)" fill="#3a1d0e"/>
    <path id="Path_2948" data-name="Path 2948" d="M223.563,305.656a1.534,1.534,0,1,1,1.674-1.529A1.609,1.609,0,0,1,223.563,305.656Zm0-2.712a1.191,1.191,0,1,0,1.318,1.182,1.261,1.261,0,0,0-1.318-1.182Z" transform="translate(-124.244 -169.322)" fill="#2a1000"/>
    <ellipse id="Ellipse_120" data-name="Ellipse 120" cx="0.514" cy="0.712" rx="0.514" ry="0.712" transform="translate(98.949 133.943)"/>
    <path id="Path_2949" data-name="Path 2949" d="M224.789,305.508a.8.8,0,0,1-.686-.879c0-.5.3-.879.686-.879a.91.91,0,0,1,0,1.758Zm0-1.424c-.18,0-.334.251-.334.541s.154.536.334.536.338-.251.338-.536S224.969,304.084,224.789,304.084Z" transform="translate(-125.325 -169.97)" fill="#2a1000"/>
    <ellipse id="Ellipse_121" data-name="Ellipse 121" cx="0.312" cy="0.198" rx="0.312" ry="0.198" transform="translate(99.084 134.383) rotate(-38.63)" fill="#e2e1e0"/>
    <path id="Path_2950" data-name="Path 2950" d="M214.087,303.795l-.127-.123a5.766,5.766,0,0,1,3.665-1.6,6.814,6.814,0,0,1,2.611.4,6.122,6.122,0,0,1,1.828,1l-.11.136a5.875,5.875,0,0,0-1.758-.971,6.593,6.593,0,0,0-2.545-.387A5.538,5.538,0,0,0,214.087,303.795Z" transform="translate(-119.643 -169.026)" fill="#070707"/>
    <path id="Path_2951" data-name="Path 2951" d="M180.329,294.916a8.492,8.492,0,0,1,.932.145c.171.035.281.07.374.088.505.11.919.145,1.459.242,1.187.207,1.367.246,1.477.44a.712.712,0,0,1-.1.8c-.286.281-.853.141-1.815-.105l-.308-.088c-.3-.088-.514-.163-.545-.171a11.018,11.018,0,0,0-6.263-.154c-1.516.338-2.294.738-2.334.65a11.139,11.139,0,0,1,3.191-1.587,6.5,6.5,0,0,1,1.938-.44A18.378,18.378,0,0,1,180.329,294.916Z" transform="translate(-96.802 -164.915)" fill="#7f5f30"/>
    <path id="Path_2952" data-name="Path 2952" d="M215.079,297.021a.738.738,0,0,0-.066.734c.185.277.694.233,1.428.145,1.868-.215,2.435-.4,3.516-.466a15.253,15.253,0,0,1,1.679,0,8.135,8.135,0,0,1,2.347.255c.989.338,1.508.91,1.6.809s-.264-.633-.747-1.028a3.674,3.674,0,0,0-1.859-.752,20.876,20.876,0,0,0-3.8-.11C216.591,296.626,215.479,296.371,215.079,297.021Z" transform="translate(-120.195 -165.944)" fill="#7f5f30"/>
    <g id="Group_495" data-name="Group 495" transform="translate(100.681 133.2)" clip-path="url(#clip-path-3)">
      <path id="Path_2953" data-name="Path 2953" d="M228.6,302.43l-.163.87v-.87Z" transform="translate(-228.44 -302.43)" fill="#212023"/>
      <path id="Path_2954" data-name="Path 2954" d="M228.616,302.43l-.163.87h-.013l.163-.87Z" transform="translate(-228.44 -302.43)" fill="#212023"/>
      <path id="Path_2955" data-name="Path 2955" d="M228.641,302.43l-.163.87h-.009l.163-.87Z" transform="translate(-228.457 -302.43)" fill="#212023"/>
      <path id="Path_2956" data-name="Path 2956" d="M228.661,302.43l-.158.87h-.013l.163-.87Z" transform="translate(-228.468 -302.43)" fill="#212023"/>
      <path id="Path_2957" data-name="Path 2957" d="M228.691,302.43l-.163.87h-.009l.158-.87Z" transform="translate(-228.485 -302.43)" fill="#212023"/>
      <path id="Path_2958" data-name="Path 2958" d="M228.711,302.43l-.163.87h-.009l.163-.87Z" transform="translate(-228.496 -302.43)" fill="#212023"/>
      <path id="Path_2959" data-name="Path 2959" d="M228.736,302.43l-.163.87h-.013l.163-.87Z" transform="translate(-228.507 -302.43)" fill="#212023"/>
      <path id="Path_2960" data-name="Path 2960" d="M228.761,302.43l-.163.87h-.009l.163-.87Z" transform="translate(-228.524 -302.43)" fill="#212023"/>
      <path id="Path_2961" data-name="Path 2961" d="M228.786,302.43l-.163.87h-.013l.163-.87Z" transform="translate(-228.535 -302.43)" fill="#212023"/>
      <path id="Path_2962" data-name="Path 2962" d="M228.811,302.43l-.163.87h-.009l.163-.87Z" transform="translate(-228.552 -302.43)" fill="#212023"/>
      <path id="Path_2963" data-name="Path 2963" d="M228.836,302.43l-.163.87h-.013l.163-.87Z" transform="translate(-228.563 -302.43)" fill="#212023"/>
      <path id="Path_2964" data-name="Path 2964" d="M228.861,302.43l-.163.87h-.009l.163-.87Z" transform="translate(-228.58 -302.43)" fill="#212023"/>
      <path id="Path_2965" data-name="Path 2965" d="M228.881,302.43l-.158.87h-.013l.163-.87Z" transform="translate(-228.591 -302.43)" fill="#212024"/>
      <path id="Path_2966" data-name="Path 2966" d="M228.911,302.43l-.163.87h-.009l.158-.87Z" transform="translate(-228.608 -302.43)" fill="#222124"/>
      <path id="Path_2967" data-name="Path 2967" d="M228.931,302.43l-.158.87h-.013l.163-.87Z" transform="translate(-228.619 -302.43)" fill="#222124"/>
      <path id="Path_2968" data-name="Path 2968" d="M228.961,302.43l-.163.87h-.009l.158-.87Z" transform="translate(-228.636 -302.43)" fill="#222124"/>
      <path id="Path_2969" data-name="Path 2969" d="M228.981,302.43l-.158.87h-.013l.163-.87Z" transform="translate(-228.647 -302.43)" fill="#232225"/>
      <path id="Path_2970" data-name="Path 2970" d="M229.011,302.43l-.163.87h-.009l.158-.87Z" transform="translate(-228.664 -302.43)" fill="#232225"/>
      <path id="Path_2971" data-name="Path 2971" d="M229.031,302.43l-.163.87h-.009l.163-.87Z" transform="translate(-228.675 -302.43)" fill="#242326"/>
      <path id="Path_2972" data-name="Path 2972" d="M229.056,302.43l-.163.87h-.013l.163-.87Z" transform="translate(-228.687 -302.43)" fill="#242326"/>
      <path id="Path_2973" data-name="Path 2973" d="M229.081,302.43l-.163.87h-.009l.163-.87Z" transform="translate(-228.703 -302.43)" fill="#252427"/>
      <path id="Path_2974" data-name="Path 2974" d="M229.1,302.43l-.158.87h-.013l.163-.87Z" transform="translate(-228.715 -302.43)" fill="#262528"/>
      <path id="Path_2975" data-name="Path 2975" d="M229.131,302.43l-.163.87h-.009l.158-.87Z" transform="translate(-228.731 -302.43)" fill="#272629"/>
      <path id="Path_2976" data-name="Path 2976" d="M229.151,302.43l-.158.87h-.013l.163-.87Z" transform="translate(-228.743 -302.43)" fill="#28272b"/>
      <path id="Path_2977" data-name="Path 2977" d="M229.181,302.43l-.163.87h-.009l.158-.87Z" transform="translate(-228.76 -302.43)" fill="#29282c"/>
      <path id="Path_2978" data-name="Path 2978" d="M229.2,302.43l-.158.87h-.013l.163-.87Z" transform="translate(-228.771 -302.43)" fill="#2b2a2e"/>
      <path id="Path_2979" data-name="Path 2979" d="M229.231,302.43l-.163.87h-.009l.158-.87Z" transform="translate(-228.788 -302.43)" fill="#2d2b30"/>
      <path id="Path_2980" data-name="Path 2980" d="M229.251,302.43l-.163.87h-.009l.163-.87Z" transform="translate(-228.799 -302.43)" fill="#2f2d32"/>
      <path id="Path_2981" data-name="Path 2981" d="M229.276,302.43l-.163.87H229.1l.163-.87Z" transform="translate(-228.81 -302.43)" fill="#312f34"/>
      <path id="Path_2982" data-name="Path 2982" d="M229.3,302.43l-.163.87h-.009l.163-.87Z" transform="translate(-228.827 -302.43)" fill="#333237"/>
      <path id="Path_2983" data-name="Path 2983" d="M229.326,302.43l-.163.87h-.013l.163-.87Z" transform="translate(-228.838 -302.43)" fill="#363439"/>
      <path id="Path_2984" data-name="Path 2984" d="M229.351,302.43l-.163.87h-.009l.163-.87Z" transform="translate(-228.855 -302.43)" fill="#39373d"/>
      <path id="Path_2985" data-name="Path 2985" d="M229.371,302.43l-.158.87H229.2l.163-.87Z" transform="translate(-228.866 -302.43)" fill="#3c3a40"/>
      <path id="Path_2986" data-name="Path 2986" d="M229.4,302.43l-.163.87h-.009l.158-.87Z" transform="translate(-228.883 -302.43)" fill="#403e44"/>
      <path id="Path_2987" data-name="Path 2987" d="M229.25,303.3l.163-.87v.87Z" transform="translate(-228.894 -302.43)" fill="#403e44"/>
    </g>
    <path id="Path_2989" data-name="Path 2989" d="M227.82,302.741l.36-.839.721-.822-.2,1.046-.242.558Z" transform="translate(-127.411 -168.473)" fill="url(#linear-gradient-2)"/>
    <g id="Group_496" data-name="Group 496" transform="translate(101.226 133.249)" clip-path="url(#clip-path-4)">
      <path id="Path_2990" data-name="Path 2990" d="M229.825,302.54l-.145.765v-.765Z" transform="translate(-229.68 -302.54)" fill="#212023"/>
      <path id="Path_2991" data-name="Path 2991" d="M229.838,302.54l-.158.853V303.3l.145-.765Z" transform="translate(-229.68 -302.54)" fill="#212023"/>
      <path id="Path_2992" data-name="Path 2992" d="M229.856,302.54l-.167.905h-.009v-.053l.158-.853Z" transform="translate(-229.68 -302.54)" fill="#212023"/>
      <path id="Path_2993" data-name="Path 2993" d="M229.885,302.54l-.171.905H229.7l.167-.905Z" transform="translate(-229.691 -302.54)" fill="#212023"/>
      <path id="Path_2994" data-name="Path 2994" d="M229.915,302.54l-.167.905h-.018l.171-.905Z" transform="translate(-229.708 -302.54)" fill="#212023"/>
      <path id="Path_2995" data-name="Path 2995" d="M229.955,302.54l-.167.905h-.018l.167-.905Z" transform="translate(-229.73 -302.54)" fill="#212023"/>
      <path id="Path_2996" data-name="Path 2996" d="M229.995,302.54l-.171.905h-.013l.167-.905Z" transform="translate(-229.753 -302.54)" fill="#212023"/>
      <path id="Path_2997" data-name="Path 2997" d="M230.025,302.54l-.167.905h-.018l.171-.905Z" transform="translate(-229.77 -302.54)" fill="#212023"/>
      <path id="Path_2998" data-name="Path 2998" d="M230.065,302.54l-.167.905h-.018l.167-.905Z" transform="translate(-229.792 -302.54)" fill="#212023"/>
      <path id="Path_2999" data-name="Path 2999" d="M230.1,302.54l-.171.905h-.013l.167-.905Z" transform="translate(-229.815 -302.54)" fill="#212023"/>
      <path id="Path_3000" data-name="Path 3000" d="M230.135,302.54l-.167.905h-.018l.171-.905Z" transform="translate(-229.831 -302.54)" fill="#212023"/>
      <path id="Path_3001" data-name="Path 3001" d="M230.175,302.54l-.167.905h-.018l.167-.905Z" transform="translate(-229.854 -302.54)" fill="#212023"/>
      <path id="Path_3002" data-name="Path 3002" d="M230.21,302.54l-.167.905h-.013l.167-.905Z" transform="translate(-229.876 -302.54)" fill="#212024"/>
      <path id="Path_3003" data-name="Path 3003" d="M230.245,302.54l-.167.905h-.018l.167-.905Z" transform="translate(-229.893 -302.54)" fill="#222124"/>
      <path id="Path_3004" data-name="Path 3004" d="M230.285,302.54l-.171.905H230.1l.167-.905Z" transform="translate(-229.915 -302.54)" fill="#222124"/>
      <path id="Path_3005" data-name="Path 3005" d="M230.319,302.54l-.171.905h-.018l.171-.905Z" transform="translate(-229.932 -302.54)" fill="#222124"/>
      <path id="Path_3006" data-name="Path 3006" d="M230.355,302.54l-.167.905h-.018l.171-.905Z" transform="translate(-229.955 -302.54)" fill="#232225"/>
      <path id="Path_3007" data-name="Path 3007" d="M230.395,302.54l-.167.905h-.018l.167-.905Z" transform="translate(-229.977 -302.54)" fill="#232225"/>
      <path id="Path_3008" data-name="Path 3008" d="M230.43,302.54l-.167.905h-.013l.167-.905Z" transform="translate(-229.999 -302.54)" fill="#242326"/>
      <path id="Path_3009" data-name="Path 3009" d="M230.465,302.54l-.167.905h-.018l.167-.905Z" transform="translate(-230.016 -302.54)" fill="#242326"/>
      <path id="Path_3010" data-name="Path 3010" d="M230.5,302.54l-.171.905h-.013l.167-.905Z" transform="translate(-230.039 -302.54)" fill="#252427"/>
      <path id="Path_3011" data-name="Path 3011" d="M230.535,302.54l-.167.905h-.018l.171-.905Z" transform="translate(-230.056 -302.54)" fill="#262528"/>
      <path id="Path_3012" data-name="Path 3012" d="M230.575,302.54l-.167.905h-.018l.167-.905Z" transform="translate(-230.078 -302.54)" fill="#272629"/>
      <path id="Path_3013" data-name="Path 3013" d="M230.615,302.54l-.167.905h-.018l.167-.905Z" transform="translate(-230.1 -302.54)" fill="#28272b"/>
      <path id="Path_3014" data-name="Path 3014" d="M230.65,302.54l-.167.905h-.013l.167-.905Z" transform="translate(-230.123 -302.54)" fill="#29282c"/>
      <path id="Path_3015" data-name="Path 3015" d="M230.685,302.54l-.167.905H230.5l.167-.905Z" transform="translate(-230.14 -302.54)" fill="#2b2a2e"/>
      <path id="Path_3016" data-name="Path 3016" d="M230.725,302.54l-.171.905h-.013l.167-.905Z" transform="translate(-230.162 -302.54)" fill="#2d2b30"/>
      <path id="Path_3017" data-name="Path 3017" d="M230.755,302.54l-.167.905h-.018l.171-.905Z" transform="translate(-230.179 -302.54)" fill="#2f2d32"/>
      <path id="Path_3018" data-name="Path 3018" d="M230.795,302.54l-.167.905h-.018l.167-.905Z" transform="translate(-230.201 -302.54)" fill="#312f34"/>
      <path id="Path_3019" data-name="Path 3019" d="M230.835,302.54l-.171.905h-.013l.167-.905Z" transform="translate(-230.224 -302.54)" fill="#333237"/>
      <path id="Path_3020" data-name="Path 3020" d="M230.865,302.54l-.167.905h-.018l.171-.905Z" transform="translate(-230.24 -302.54)" fill="#363439"/>
      <path id="Path_3021" data-name="Path 3021" d="M230.9,302.54l-.167.905h-.018l.167-.905Z" transform="translate(-230.263 -302.54)" fill="#39373d"/>
      <path id="Path_3022" data-name="Path 3022" d="M230.945,302.54l-.171.905h-.013l.167-.905Z" transform="translate(-230.285 -302.54)" fill="#3c3a40"/>
      <path id="Path_3023" data-name="Path 3023" d="M230.975,302.54l-.167.905h-.018l.171-.905Z" transform="translate(-230.302 -302.54)" fill="#403e44"/>
      <path id="Path_3024" data-name="Path 3024" d="M230.83,303.445l.167-.905v.905Z" transform="translate(-230.325 -302.54)" fill="#403e44"/>
    </g>
    <path id="Path_3026" data-name="Path 3026" d="M229.669,303.093l-.589-.3.4-.523.294-.33.5-.418-.11.6-.237.615Z" transform="translate(-128.118 -168.72)" fill="url(#linear-gradient-3)"/>
    <g id="Group_497" data-name="Group 497" transform="translate(101.608 133.495)" clip-path="url(#clip-path-5)">
      <path id="Path_3027" data-name="Path 3027" d="M230.708,303.1l-.158.853V303.1Z" transform="translate(-230.55 -303.1)" fill="#212023"/>
      <path id="Path_3028" data-name="Path 3028" d="M230.743,303.1l-.193,1.024v-.171l.158-.853Z" transform="translate(-230.55 -303.1)" fill="#212023"/>
      <path id="Path_3029" data-name="Path 3029" d="M230.774,303.1l-.2,1.055h-.026v-.031l.193-1.024Z" transform="translate(-230.55 -303.1)" fill="#212023"/>
      <path id="Path_3030" data-name="Path 3030" d="M230.839,303.1l-.193,1.055h-.035l.2-1.055Z" transform="translate(-230.584 -303.1)" fill="#212023"/>
      <path id="Path_3031" data-name="Path 3031" d="M230.919,303.1l-.2,1.055h-.031l.193-1.055Z" transform="translate(-230.628 -303.1)" fill="#212023"/>
      <path id="Path_3032" data-name="Path 3032" d="M230.989,303.1l-.2,1.055h-.031l.2-1.055Z" transform="translate(-230.668 -303.1)" fill="#212023"/>
      <path id="Path_3033" data-name="Path 3033" d="M231.059,303.1l-.193,1.055h-.035l.2-1.055Z" transform="translate(-230.707 -303.1)" fill="#212023"/>
      <path id="Path_3034" data-name="Path 3034" d="M231.139,303.1l-.2,1.055h-.031l.193-1.055Z" transform="translate(-230.752 -303.1)" fill="#212023"/>
      <path id="Path_3035" data-name="Path 3035" d="M231.209,303.1l-.2,1.055h-.031l.2-1.055Z" transform="translate(-230.791 -303.1)" fill="#212023"/>
      <path id="Path_3036" data-name="Path 3036" d="M231.279,303.1l-.2,1.055h-.031l.2-1.055Z" transform="translate(-230.83 -303.1)" fill="#212023"/>
      <path id="Path_3037" data-name="Path 3037" d="M231.349,303.1l-.193,1.055h-.035l.2-1.055Z" transform="translate(-230.87 -303.1)" fill="#212023"/>
      <path id="Path_3038" data-name="Path 3038" d="M231.429,303.1l-.2,1.055H231.2l.193-1.055Z" transform="translate(-230.914 -303.1)" fill="#212023"/>
      <path id="Path_3039" data-name="Path 3039" d="M231.5,303.1l-.2,1.055h-.031l.2-1.055Z" transform="translate(-230.954 -303.1)" fill="#212024"/>
      <path id="Path_3040" data-name="Path 3040" d="M231.569,303.1l-.193,1.055h-.035l.2-1.055Z" transform="translate(-230.993 -303.1)" fill="#222124"/>
      <path id="Path_3041" data-name="Path 3041" d="M231.649,303.1l-.2,1.055h-.031l.193-1.055Z" transform="translate(-231.038 -303.1)" fill="#222124"/>
      <path id="Path_3042" data-name="Path 3042" d="M231.719,303.1l-.2,1.055h-.031l.2-1.055Z" transform="translate(-231.077 -303.1)" fill="#222124"/>
      <path id="Path_3043" data-name="Path 3043" d="M231.789,303.1l-.2,1.055h-.031l.2-1.055Z" transform="translate(-231.116 -303.1)" fill="#232225"/>
      <path id="Path_3044" data-name="Path 3044" d="M231.859,303.1l-.193,1.055h-.035l.2-1.055Z" transform="translate(-231.155 -303.1)" fill="#232225"/>
      <path id="Path_3045" data-name="Path 3045" d="M231.939,303.1l-.2,1.055h-.031l.193-1.055Z" transform="translate(-231.2 -303.1)" fill="#242326"/>
      <path id="Path_3046" data-name="Path 3046" d="M232.009,303.1l-.2,1.055h-.031l.2-1.055Z" transform="translate(-231.239 -303.1)" fill="#242326"/>
      <path id="Path_3047" data-name="Path 3047" d="M232.079,303.1l-.193,1.055h-.035l.2-1.055Z" transform="translate(-231.279 -303.1)" fill="#252427"/>
      <path id="Path_3048" data-name="Path 3048" d="M232.154,303.1l-.193,1.055h-.031l.193-1.055Z" transform="translate(-231.323 -303.1)" fill="#262528"/>
      <path id="Path_3049" data-name="Path 3049" d="M232.229,303.1l-.2,1.055H232l.193-1.055Z" transform="translate(-231.363 -303.1)" fill="#272629"/>
      <path id="Path_3050" data-name="Path 3050" d="M232.3,303.1l-.193,1.055h-.035l.2-1.055Z" transform="translate(-231.402 -303.1)" fill="#28272b"/>
      <path id="Path_3051" data-name="Path 3051" d="M232.374,303.1l-.193,1.055h-.031l.193-1.055Z" transform="translate(-231.447 -303.1)" fill="#29282c"/>
      <path id="Path_3052" data-name="Path 3052" d="M232.449,303.1l-.2,1.055h-.031l.193-1.055Z" transform="translate(-231.486 -303.1)" fill="#2b2a2e"/>
      <path id="Path_3053" data-name="Path 3053" d="M232.519,303.1l-.2,1.055h-.031l.2-1.055Z" transform="translate(-231.525 -303.1)" fill="#2d2b30"/>
      <path id="Path_3054" data-name="Path 3054" d="M232.589,303.1l-.193,1.055h-.035l.2-1.055Z" transform="translate(-231.565 -303.1)" fill="#2f2d32"/>
      <path id="Path_3055" data-name="Path 3055" d="M232.669,303.1l-.2,1.055h-.031l.193-1.055Z" transform="translate(-231.609 -303.1)" fill="#312f34"/>
      <path id="Path_3056" data-name="Path 3056" d="M232.739,303.1l-.2,1.055h-.031l.2-1.055Z" transform="translate(-231.649 -303.1)" fill="#333237"/>
      <path id="Path_3057" data-name="Path 3057" d="M232.809,303.1l-.193,1.055h-.035l.2-1.055Z" transform="translate(-231.688 -303.1)" fill="#363439"/>
      <path id="Path_3058" data-name="Path 3058" d="M232.884,303.1l-.193,1.055h-.031l.193-1.055Z" transform="translate(-231.733 -303.1)" fill="#39373d"/>
      <path id="Path_3059" data-name="Path 3059" d="M232.959,303.1l-.2,1.055h-.031l.193-1.055Z" transform="translate(-231.772 -303.1)" fill="#3c3a40"/>
      <path id="Path_3060" data-name="Path 3060" d="M233.029,303.1h0l-.2,1.055H232.8l.2-1.055Z" transform="translate(-231.811 -303.1)" fill="#403e44"/>
      <path id="Path_3061" data-name="Path 3061" d="M232.87,304.155l.2-1.055v1.055Z" transform="translate(-231.85 -303.1)" fill="#403e44"/>
    </g>
    <path id="Path_3063" data-name="Path 3063" d="M230.465,303.7l-.585-.391.387-.29.365-.132.33-.264.7-.686-.171.879-.211.347-.523.4Z" transform="translate(-128.566 -168.955)" fill="url(#linear-gradient-4)"/>
    <g id="Group_498" data-name="Group 498" transform="translate(102.241 134.198)" clip-path="url(#clip-path-6)">
      <path id="Path_3064" data-name="Path 3064" d="M232.065,304.7l-.075.409V304.7Z" transform="translate(-231.99 -304.7)" fill="#212023"/>
      <path id="Path_3065" data-name="Path 3065" d="M232.1,304.7l-.105.576v-.167l.075-.409Z" transform="translate(-231.99 -304.7)" fill="#212023"/>
      <path id="Path_3066" data-name="Path 3066" d="M232.126,304.7l-.11.6h-.026v-.026l.105-.576Z" transform="translate(-231.99 -304.7)" fill="#212023"/>
      <path id="Path_3067" data-name="Path 3067" d="M232.191,304.7l-.11.6h-.031l.11-.6Z" transform="translate(-232.024 -304.7)" fill="#212023"/>
      <path id="Path_3068" data-name="Path 3068" d="M232.261,304.7l-.11.6h-.031l.11-.6Z" transform="translate(-232.063 -304.7)" fill="#212023"/>
      <path id="Path_3069" data-name="Path 3069" d="M232.331,304.7l-.11.6h-.031l.11-.6Z" transform="translate(-232.102 -304.7)" fill="#212023"/>
      <path id="Path_3070" data-name="Path 3070" d="M232.4,304.7l-.11.6h-.031l.11-.6Z" transform="translate(-232.141 -304.7)" fill="#212023"/>
      <path id="Path_3071" data-name="Path 3071" d="M232.475,304.7l-.114.6h-.031l.11-.6Z" transform="translate(-232.181 -304.7)" fill="#212023"/>
      <path id="Path_3072" data-name="Path 3072" d="M232.541,304.7l-.11.6H232.4l.114-.6Z" transform="translate(-232.22 -304.7)" fill="#212023"/>
      <path id="Path_3073" data-name="Path 3073" d="M232.615,304.7l-.114.6h-.031l.11-.6Z" transform="translate(-232.259 -304.7)" fill="#212023"/>
      <path id="Path_3074" data-name="Path 3074" d="M232.685,304.7l-.114.6h-.031l.114-.6Z" transform="translate(-232.298 -304.7)" fill="#212023"/>
      <path id="Path_3075" data-name="Path 3075" d="M232.755,304.7l-.114.6h-.031l.114-.6Z" transform="translate(-232.338 -304.7)" fill="#212023"/>
      <path id="Path_3076" data-name="Path 3076" d="M232.825,304.7l-.114.6h-.031l.114-.6Z" transform="translate(-232.377 -304.7)" fill="#212024"/>
      <path id="Path_3077" data-name="Path 3077" d="M232.9,304.7l-.114.6h-.031l.114-.6Z" transform="translate(-232.416 -304.7)" fill="#222124"/>
      <path id="Path_3078" data-name="Path 3078" d="M232.965,304.7l-.114.6h-.031l.114-.6Z" transform="translate(-232.455 -304.7)" fill="#222124"/>
      <path id="Path_3079" data-name="Path 3079" d="M233.035,304.7l-.114.6h-.031l.114-.6Z" transform="translate(-232.494 -304.7)" fill="#222124"/>
      <path id="Path_3080" data-name="Path 3080" d="M233.105,304.7l-.114.6h-.031l.114-.6Z" transform="translate(-232.534 -304.7)" fill="#232225"/>
      <path id="Path_3081" data-name="Path 3081" d="M233.175,304.7l-.114.6h-.031l.114-.6Z" transform="translate(-232.573 -304.7)" fill="#232225"/>
      <path id="Path_3082" data-name="Path 3082" d="M233.245,304.7l-.11.6H233.1l.114-.6Z" transform="translate(-232.612 -304.7)" fill="#242326"/>
      <path id="Path_3083" data-name="Path 3083" d="M233.321,304.7l-.11.6h-.031l.11-.6Z" transform="translate(-232.657 -304.7)" fill="#242326"/>
      <path id="Path_3084" data-name="Path 3084" d="M233.391,304.7l-.11.6h-.031l.11-.6Z" transform="translate(-232.696 -304.7)" fill="#252427"/>
      <path id="Path_3085" data-name="Path 3085" d="M233.461,304.7l-.11.6h-.031l.11-.6Z" transform="translate(-232.735 -304.7)" fill="#262528"/>
      <path id="Path_3086" data-name="Path 3086" d="M233.531,304.7l-.11.6h-.031l.11-.6Z" transform="translate(-232.775 -304.7)" fill="#272629"/>
      <path id="Path_3087" data-name="Path 3087" d="M233.6,304.7l-.11.6h-.031l.11-.6Z" transform="translate(-232.814 -304.7)" fill="#28272b"/>
      <path id="Path_3088" data-name="Path 3088" d="M233.671,304.7l-.11.6h-.031l.11-.6Z" transform="translate(-232.853 -304.7)" fill="#29282c"/>
      <path id="Path_3089" data-name="Path 3089" d="M233.745,304.7l-.114.6H233.6l.11-.6Z" transform="translate(-232.892 -304.7)" fill="#2b2a2e"/>
      <path id="Path_3090" data-name="Path 3090" d="M233.815,304.7l-.114.6h-.031l.114-.6Z" transform="translate(-232.932 -304.7)" fill="#2d2b30"/>
      <path id="Path_3091" data-name="Path 3091" d="M233.885,304.7l-.114.6h-.031l.114-.6Z" transform="translate(-232.971 -304.7)" fill="#2f2d32"/>
      <path id="Path_3092" data-name="Path 3092" d="M233.955,304.7l-.114.6h-.031l.114-.6Z" transform="translate(-233.01 -304.7)" fill="#312f34"/>
      <path id="Path_3093" data-name="Path 3093" d="M234.025,304.7l-.114.6h-.031l.114-.6Z" transform="translate(-233.049 -304.7)" fill="#333237"/>
      <path id="Path_3094" data-name="Path 3094" d="M234.1,304.7l-.114.6h-.031l.114-.6Z" transform="translate(-233.089 -304.7)" fill="#363439"/>
      <path id="Path_3095" data-name="Path 3095" d="M234.165,304.7l-.114.6h-.031l.114-.6Z" transform="translate(-233.128 -304.7)" fill="#39373d"/>
      <path id="Path_3096" data-name="Path 3096" d="M234.235,304.7l-.114.6h-.031l.114-.6Z" transform="translate(-233.167 -304.7)" fill="#3c3a40"/>
      <path id="Path_3097" data-name="Path 3097" d="M234.305,304.7l-.114.6h-.031l.114-.6Z" transform="translate(-233.206 -304.7)" fill="#403e44"/>
      <path id="Path_3098" data-name="Path 3098" d="M234.23,305.3l.114-.6v.6Z" transform="translate(-233.245 -304.7)" fill="#403e44"/>
    </g>
    <path id="Path_3100" data-name="Path 3100" d="M231.681,305.018l-.721-.483.879-.158.422-.25.765-.286-.694.892Z" transform="translate(-129.171 -170.02)" fill="url(#linear-gradient-5)"/>
    <g id="Group_499" data-name="Group 499" transform="translate(98.888 133.499)" clip-path="url(#clip-path-7)">
      <path id="Path_3101" data-name="Path 3101" d="M224.523,303.11l-.163.861v-.861Z" transform="translate(-224.36 -303.11)" fill="#212023"/>
      <path id="Path_3102" data-name="Path 3102" d="M224.681,303.11l-.321,1.727v-.866l.163-.861Z" transform="translate(-224.36 -303.11)" fill="#212023"/>
      <path id="Path_3103" data-name="Path 3103" d="M224.843,303.11l-.365,1.951h-.062l-.057-.009v-.215l.321-1.727Z" transform="translate(-224.36 -303.11)" fill="#212023"/>
      <path id="Path_3104" data-name="Path 3104" d="M225.153,303.11l-.36,1.951h-.163l.365-1.951Z" transform="translate(-224.511 -303.11)" fill="#212023"/>
      <path id="Path_3105" data-name="Path 3105" d="M225.523,303.11l-.365,1.951H225l.36-1.951Z" transform="translate(-224.719 -303.11)" fill="#212023"/>
      <path id="Path_3106" data-name="Path 3106" d="M225.887,303.11l-.365,1.951h-.163l.365-1.951Z" transform="translate(-224.921 -303.11)" fill="#212023"/>
      <path id="Path_3107" data-name="Path 3107" d="M226.253,303.11l-.365,1.951h-.158l.365-1.951Z" transform="translate(-225.128 -303.11)" fill="#212023"/>
      <path id="Path_3108" data-name="Path 3108" d="M226.617,303.11l-.365,1.951h-.163l.365-1.951Z" transform="translate(-225.33 -303.11)" fill="#212023"/>
      <path id="Path_3109" data-name="Path 3109" d="M226.983,303.11l-.365,1.951h-.158l.365-1.951Z" transform="translate(-225.537 -303.11)" fill="#212023"/>
      <path id="Path_3110" data-name="Path 3110" d="M227.347,303.11l-.365,1.951h-.163l.365-1.951Z" transform="translate(-225.739 -303.11)" fill="#212023"/>
      <path id="Path_3111" data-name="Path 3111" d="M227.713,303.11l-.365,1.951h-.158l.365-1.951Z" transform="translate(-225.946 -303.11)" fill="#212023"/>
      <path id="Path_3112" data-name="Path 3112" d="M228.077,303.11l-.365,1.951h-.163l.365-1.951Z" transform="translate(-226.148 -303.11)" fill="#212024"/>
      <path id="Path_3113" data-name="Path 3113" d="M228.443,303.11l-.365,1.951h-.158l.365-1.951Z" transform="translate(-226.355 -303.11)" fill="#222124"/>
      <path id="Path_3114" data-name="Path 3114" d="M228.807,303.11l-.365,1.951h-.163l.365-1.951Z" transform="translate(-226.557 -303.11)" fill="#222124"/>
      <path id="Path_3115" data-name="Path 3115" d="M229.173,303.11l-.36,1.951h-.163l.365-1.951Z" transform="translate(-226.765 -303.11)" fill="#222124"/>
      <path id="Path_3116" data-name="Path 3116" d="M229.543,303.11l-.365,1.951h-.158l.36-1.951Z" transform="translate(-226.972 -303.11)" fill="#232225"/>
      <path id="Path_3117" data-name="Path 3117" d="M229.9,303.11l-.36,1.951h-.163l.365-1.951Z" transform="translate(-227.174 -303.11)" fill="#232225"/>
      <path id="Path_3118" data-name="Path 3118" d="M230.273,303.11l-.365,1.951h-.158l.36-1.951Z" transform="translate(-227.381 -303.11)" fill="#242326"/>
      <path id="Path_3119" data-name="Path 3119" d="M230.633,303.11l-.36,1.951h-.163l.365-1.951Z" transform="translate(-227.583 -303.11)" fill="#242326"/>
      <path id="Path_3120" data-name="Path 3120" d="M231,303.11l-.365,1.951h-.158l.36-1.951Z" transform="translate(-227.79 -303.11)" fill="#252427"/>
      <path id="Path_3121" data-name="Path 3121" d="M231.363,303.11l-.36,1.951h-.163l.365-1.951Z" transform="translate(-227.992 -303.11)" fill="#262528"/>
      <path id="Path_3122" data-name="Path 3122" d="M231.733,303.11l-.365,1.951h-.158l.36-1.951Z" transform="translate(-228.199 -303.11)" fill="#272629"/>
      <path id="Path_3123" data-name="Path 3123" d="M232.093,303.11l-.36,1.951h-.163l.365-1.951Z" transform="translate(-228.401 -303.11)" fill="#28272b"/>
      <path id="Path_3124" data-name="Path 3124" d="M232.463,303.11l-.365,1.951h-.158l.36-1.951Z" transform="translate(-228.609 -303.11)" fill="#29282c"/>
      <path id="Path_3125" data-name="Path 3125" d="M232.726,303.11l.1.018-.36,1.934H232.3l.365-1.951Z" transform="translate(-228.81 -303.11)" fill="#2b2a2e"/>
      <path id="Path_3126" data-name="Path 3126" d="M233.03,303.15l.154.026-.356,1.907h-.158Z" transform="translate(-229.018 -303.132)" fill="#2d2b30"/>
      <path id="Path_3127" data-name="Path 3127" d="M233.386,303.21l.154.031-.347,1.877h-.163Z" transform="translate(-229.219 -303.166)" fill="#2f2d32"/>
      <path id="Path_3128" data-name="Path 3128" d="M233.747,303.28l.158.026-.347,1.85H233.4Z" transform="translate(-229.427 -303.205)" fill="#312f34"/>
      <path id="Path_3129" data-name="Path 3129" d="M234.107,303.34l.154.031-.338,1.82h-.163Z" transform="translate(-229.629 -303.239)" fill="#333237"/>
      <path id="Path_3130" data-name="Path 3130" d="M234.468,303.41l.158.026-.334,1.793h-.163Z" transform="translate(-229.836 -303.278)" fill="#363439"/>
      <path id="Path_3131" data-name="Path 3131" d="M234.834,303.47l.154.026-.33,1.767H234.5Z" transform="translate(-230.043 -303.312)" fill="#39373d"/>
      <path id="Path_3132" data-name="Path 3132" d="M235.19,303.53l.114.022v.22l-.281,1.525h-.163Z" transform="translate(-230.245 -303.345)" fill="#3c3a40"/>
      <path id="Path_3133" data-name="Path 3133" d="M235.511,304.941l-.123.664h-.158l.281-1.525Z" transform="translate(-230.453 -303.654)" fill="#403e44"/>
      <path id="Path_3134" data-name="Path 3134" d="M235.59,306.7l.123-.664v.664Z" transform="translate(-230.654 -304.752)" fill="#403e44"/>
    </g>
    <path id="Path_3136" data-name="Path 3136" d="M228.25,305.067l-.1-.105a4.747,4.747,0,0,0-.4-.387,8.349,8.349,0,0,0-1.064-.769,2.223,2.223,0,0,0-.4-.22,2.042,2.042,0,0,0-.4-.119l-.822-.268-.769-.136.062-.343,2.2.391.567.475,1.121.523.523-.026a3.689,3.689,0,0,0,.607-.075l.879-.132Zm-.11-.611.171.167.308-.185h-.488Z" transform="translate(-125.433 -169.392)" fill="url(#linear-gradient-6)"/>
    <g id="Group_500" data-name="Group 500" transform="translate(80.341 132.73)" clip-path="url(#clip-path-8)">
      <path id="Path_3137" data-name="Path 3137" d="M183.116,302.257l-.136-.9h.136Z" transform="translate(-182.62 -301.36)" fill="#212023"/>
      <path id="Path_3138" data-name="Path 3138" d="M183.092,302.257l-.132-.9h.009l.136.9Z" transform="translate(-182.608 -301.36)" fill="#212023"/>
      <path id="Path_3139" data-name="Path 3139" d="M183.066,302.257l-.136-.9h.013l.132.9Z" transform="translate(-182.592 -301.36)" fill="#212023"/>
      <path id="Path_3140" data-name="Path 3140" d="M183.042,302.257l-.132-.9h.009l.136.9Z" transform="translate(-182.58 -301.36)" fill="#212023"/>
      <path id="Path_3141" data-name="Path 3141" d="M183.016,302.257l-.136-.9h.013l.132.9Z" transform="translate(-182.564 -301.36)" fill="#212023"/>
      <path id="Path_3142" data-name="Path 3142" d="M182.992,302.257l-.132-.9h.009l.136.9Z" transform="translate(-182.552 -301.36)" fill="#212023"/>
      <path id="Path_3143" data-name="Path 3143" d="M182.966,302.257l-.136-.9h.013l.132.9Z" transform="translate(-182.536 -301.36)" fill="#212023"/>
      <path id="Path_3144" data-name="Path 3144" d="M182.942,302.257l-.132-.9h.009l.136.9Z" transform="translate(-182.524 -301.36)" fill="#212023"/>
      <path id="Path_3145" data-name="Path 3145" d="M182.916,302.257l-.136-.9h.013l.132.9Z" transform="translate(-182.508 -301.36)" fill="#212023"/>
      <path id="Path_3146" data-name="Path 3146" d="M182.892,302.257l-.132-.9h.009l.136.9Z" transform="translate(-182.496 -301.36)" fill="#212023"/>
      <path id="Path_3147" data-name="Path 3147" d="M182.866,302.257l-.136-.9h.013l.132.9Z" transform="translate(-182.48 -301.36)" fill="#212023"/>
      <path id="Path_3148" data-name="Path 3148" d="M182.842,302.257l-.132-.9h.009l.136.9Z" transform="translate(-182.468 -301.36)" fill="#212023"/>
      <path id="Path_3149" data-name="Path 3149" d="M182.816,302.257l-.136-.9h.013l.132.9Z" transform="translate(-182.451 -301.36)" fill="#212024"/>
      <path id="Path_3150" data-name="Path 3150" d="M182.792,302.257l-.132-.9h.009l.136.9Z" transform="translate(-182.44 -301.36)" fill="#222124"/>
      <path id="Path_3151" data-name="Path 3151" d="M182.766,302.257l-.136-.9h.013l.132.9Z" transform="translate(-182.423 -301.36)" fill="#222124"/>
      <path id="Path_3152" data-name="Path 3152" d="M182.742,302.257l-.132-.9h.009l.136.9Z" transform="translate(-182.412 -301.36)" fill="#222124"/>
      <path id="Path_3153" data-name="Path 3153" d="M182.716,302.257l-.136-.9h.013l.132.9Z" transform="translate(-182.395 -301.36)" fill="#232225"/>
      <path id="Path_3154" data-name="Path 3154" d="M182.692,302.257l-.132-.9h.009l.136.9Z" transform="translate(-182.384 -301.36)" fill="#232225"/>
      <path id="Path_3155" data-name="Path 3155" d="M182.666,302.257l-.136-.9h.013l.132.9Z" transform="translate(-182.367 -301.36)" fill="#242326"/>
      <path id="Path_3156" data-name="Path 3156" d="M182.642,302.257l-.132-.9h.009l.136.9Z" transform="translate(-182.356 -301.36)" fill="#242326"/>
      <path id="Path_3157" data-name="Path 3157" d="M182.616,302.257l-.136-.9h.013l.132.9Z" transform="translate(-182.339 -301.36)" fill="#252427"/>
      <path id="Path_3158" data-name="Path 3158" d="M182.592,302.257l-.132-.9h.009l.136.9Z" transform="translate(-182.328 -301.36)" fill="#262528"/>
      <path id="Path_3159" data-name="Path 3159" d="M182.566,302.257l-.136-.9h.013l.132.9Z" transform="translate(-182.311 -301.36)" fill="#272629"/>
      <path id="Path_3160" data-name="Path 3160" d="M182.542,302.257l-.132-.9h.009l.136.9Z" transform="translate(-182.3 -301.36)" fill="#28272b"/>
      <path id="Path_3161" data-name="Path 3161" d="M182.516,302.257l-.136-.9h.013l.132.9Z" transform="translate(-182.283 -301.36)" fill="#29282c"/>
      <path id="Path_3162" data-name="Path 3162" d="M182.492,302.257l-.132-.9h.009l.136.9Z" transform="translate(-182.272 -301.36)" fill="#2b2a2e"/>
      <path id="Path_3163" data-name="Path 3163" d="M182.466,302.257l-.136-.9h.013l.132.9Z" transform="translate(-182.255 -301.36)" fill="#2d2b30"/>
      <path id="Path_3164" data-name="Path 3164" d="M182.442,302.257l-.132-.9h.009l.136.9Z" transform="translate(-182.244 -301.36)" fill="#2f2d32"/>
      <path id="Path_3165" data-name="Path 3165" d="M182.416,302.257l-.136-.9h.013l.132.9Z" transform="translate(-182.227 -301.36)" fill="#312f34"/>
      <path id="Path_3166" data-name="Path 3166" d="M182.392,302.257l-.132-.9h.009l.136.9Z" transform="translate(-182.216 -301.36)" fill="#333237"/>
      <path id="Path_3167" data-name="Path 3167" d="M182.366,302.257l-.136-.9h.013l.132.9Z" transform="translate(-182.199 -301.36)" fill="#363439"/>
      <path id="Path_3168" data-name="Path 3168" d="M182.342,302.257l-.132-.9h.009l.136.9Z" transform="translate(-182.188 -301.36)" fill="#39373d"/>
      <path id="Path_3169" data-name="Path 3169" d="M182.316,302.257l-.136-.9h.013l.132.9Z" transform="translate(-182.171 -301.36)" fill="#3c3a40"/>
      <path id="Path_3170" data-name="Path 3170" d="M182.292,302.257l-.132-.9h.009l.136.9Z" transform="translate(-182.16 -301.36)" fill="#403e44"/>
      <path id="Path_3171" data-name="Path 3171" d="M182.16,301.36l.132.9h-.132Z" transform="translate(-182.16 -301.36)" fill="#403e44"/>
    </g>
    <path id="Path_3173" data-name="Path 3173" d="M182.578,301.705l-.637-.084-.242-.611L181.55,300l.725.892Z" transform="translate(-101.477 -167.868)" fill="url(#linear-gradient-7)"/>
    <g id="Group_501" data-name="Group 501" transform="translate(79.62 132.752)" clip-path="url(#clip-path-9)">
      <path id="Path_3174" data-name="Path 3174" d="M181.869,302.21l-.119-.8h.119Z" transform="translate(-181.209 -301.41)" fill="#212023"/>
      <path id="Path_3175" data-name="Path 3175" d="M181.846,302.32l-.136-.91h.018l.119.8Z" transform="translate(-181.187 -301.41)" fill="#212023"/>
      <path id="Path_3176" data-name="Path 3176" d="M181.816,302.342l-.136-.932h.013l.136.91v.022Z" transform="translate(-181.17 -301.41)" fill="#212023"/>
      <path id="Path_3177" data-name="Path 3177" d="M181.781,302.342l-.141-.932h.018l.136.932Z" transform="translate(-181.148 -301.41)" fill="#212023"/>
      <path id="Path_3178" data-name="Path 3178" d="M181.741,302.342l-.141-.932h.018l.141.932Z" transform="translate(-181.125 -301.41)" fill="#212023"/>
      <path id="Path_3179" data-name="Path 3179" d="M181.7,302.342l-.141-.932h.018l.141.932Z" transform="translate(-181.103 -301.41)" fill="#212023"/>
      <path id="Path_3180" data-name="Path 3180" d="M181.666,302.342l-.136-.932h.013l.141.932Z" transform="translate(-181.086 -301.41)" fill="#212023"/>
      <path id="Path_3181" data-name="Path 3181" d="M181.631,302.342l-.141-.932h.018l.136.932Z" transform="translate(-181.064 -301.41)" fill="#212023"/>
      <path id="Path_3182" data-name="Path 3182" d="M181.591,302.342l-.141-.932h.018l.141.932Z" transform="translate(-181.041 -301.41)" fill="#212023"/>
      <path id="Path_3183" data-name="Path 3183" d="M181.556,302.342l-.136-.932h.013l.141.932Z" transform="translate(-181.024 -301.41)" fill="#212023"/>
      <path id="Path_3184" data-name="Path 3184" d="M181.516,302.342l-.136-.932h.018l.136.932Z" transform="translate(-181.002 -301.41)" fill="#212023"/>
      <path id="Path_3185" data-name="Path 3185" d="M181.481,302.342l-.141-.932h.018l.136.932Z" transform="translate(-180.98 -301.41)" fill="#212023"/>
      <path id="Path_3186" data-name="Path 3186" d="M181.441,302.342l-.141-.932h.018l.141.932Z" transform="translate(-180.957 -301.41)" fill="#212024"/>
      <path id="Path_3187" data-name="Path 3187" d="M181.406,302.342l-.136-.932h.013l.141.932Z" transform="translate(-180.94 -301.41)" fill="#222124"/>
      <path id="Path_3188" data-name="Path 3188" d="M181.366,302.342l-.136-.932h.018l.136.932Z" transform="translate(-180.918 -301.41)" fill="#222124"/>
      <path id="Path_3189" data-name="Path 3189" d="M181.331,302.342l-.141-.932h.018l.136.932Z" transform="translate(-180.896 -301.41)" fill="#222124"/>
      <path id="Path_3190" data-name="Path 3190" d="M181.3,302.342l-.136-.932h.013l.141.932Z" transform="translate(-180.879 -301.41)" fill="#232225"/>
      <path id="Path_3191" data-name="Path 3191" d="M181.256,302.342l-.136-.932h.018l.136.932Z" transform="translate(-180.856 -301.41)" fill="#232225"/>
      <path id="Path_3192" data-name="Path 3192" d="M181.221,302.342l-.141-.932h.018l.136.932Z" transform="translate(-180.834 -301.41)" fill="#242326"/>
      <path id="Path_3193" data-name="Path 3193" d="M181.181,302.342l-.141-.932h.018l.141.932Z" transform="translate(-180.811 -301.41)" fill="#242326"/>
      <path id="Path_3194" data-name="Path 3194" d="M181.146,302.342l-.136-.932h.013l.141.932Z" transform="translate(-180.795 -301.41)" fill="#252427"/>
      <path id="Path_3195" data-name="Path 3195" d="M181.106,302.342l-.136-.932h.018l.136.932Z" transform="translate(-180.772 -301.41)" fill="#262528"/>
      <path id="Path_3196" data-name="Path 3196" d="M181.071,302.342l-.141-.932h.018l.136.932Z" transform="translate(-180.75 -301.41)" fill="#272629"/>
      <path id="Path_3197" data-name="Path 3197" d="M181.031,302.342l-.141-.932h.018l.141.932Z" transform="translate(-180.727 -301.41)" fill="#28272b"/>
      <path id="Path_3198" data-name="Path 3198" d="M181,302.342l-.136-.932h.013l.141.932Z" transform="translate(-180.711 -301.41)" fill="#29282c"/>
      <path id="Path_3199" data-name="Path 3199" d="M180.956,302.342l-.136-.932h.018l.136.932Z" transform="translate(-180.688 -301.41)" fill="#2b2a2e"/>
      <path id="Path_3200" data-name="Path 3200" d="M180.921,302.342l-.141-.932h.018l.136.932Z" transform="translate(-180.666 -301.41)" fill="#2d2b30"/>
      <path id="Path_3201" data-name="Path 3201" d="M180.886,302.342l-.136-.932h.013l.141.932Z" transform="translate(-180.649 -301.41)" fill="#2f2d32"/>
      <path id="Path_3202" data-name="Path 3202" d="M180.846,302.342l-.136-.932h.018l.136.932Z" transform="translate(-180.626 -301.41)" fill="#312f34"/>
      <path id="Path_3203" data-name="Path 3203" d="M180.811,302.342l-.141-.932h.018l.136.932Z" transform="translate(-180.604 -301.41)" fill="#333237"/>
      <path id="Path_3204" data-name="Path 3204" d="M180.771,302.342l-.141-.932h.018l.141.932Z" transform="translate(-180.582 -301.41)" fill="#363439"/>
      <path id="Path_3205" data-name="Path 3205" d="M180.736,302.342l-.136-.932h.013l.141.932Z" transform="translate(-180.565 -301.41)" fill="#39373d"/>
      <path id="Path_3206" data-name="Path 3206" d="M180.7,302.342l-.136-.932h.018l.136.932Z" transform="translate(-180.542 -301.41)" fill="#3c3a40"/>
      <path id="Path_3207" data-name="Path 3207" d="M180.661,302.342l-.141-.932h.018l.136.932Z" transform="translate(-180.52 -301.41)" fill="#403e44"/>
      <path id="Path_3208" data-name="Path 3208" d="M180.52,301.41l.141.932h-.141Z" transform="translate(-180.52 -301.41)" fill="#403e44"/>
    </g>
    <path id="Path_3210" data-name="Path 3210" d="M180.523,301.984l-.272-.413-.193-.558-.1-.633.505.453.264.312.4.554Z" transform="translate(-100.586 -168.081)" fill="url(#linear-gradient-8)"/>
    <g id="Group_502" data-name="Group 502" transform="translate(78.662 132.972)" clip-path="url(#clip-path-10)">
      <path id="Path_3211" data-name="Path 3211" d="M180.926,302.815l-.136-.905h.136Z" transform="translate(-179.713 -301.91)" fill="#212023"/>
      <path id="Path_3212" data-name="Path 3212" d="M180.883,303.009l-.163-1.1h.031l.136.905v.193Z" transform="translate(-179.674 -301.91)" fill="#212023"/>
      <path id="Path_3213" data-name="Path 3213" d="M180.813,303.009l-.163-1.1h.031l.163,1.1Z" transform="translate(-179.635 -301.91)" fill="#212023"/>
      <path id="Path_3214" data-name="Path 3214" d="M180.733,303.009l-.163-1.1h.035l.163,1.1Z" transform="translate(-179.59 -301.91)" fill="#212023"/>
      <path id="Path_3215" data-name="Path 3215" d="M180.663,303.009l-.163-1.1h.031l.163,1.1Z" transform="translate(-179.551 -301.91)" fill="#212023"/>
      <path id="Path_3216" data-name="Path 3216" d="M180.587,303.009l-.167-1.1h.035l.163,1.1Z" transform="translate(-179.506 -301.91)" fill="#212023"/>
      <path id="Path_3217" data-name="Path 3217" d="M180.513,303.009l-.163-1.1h.031l.167,1.1Z" transform="translate(-179.467 -301.91)" fill="#212023"/>
      <path id="Path_3218" data-name="Path 3218" d="M180.437,303.009l-.167-1.1h.035l.163,1.1Z" transform="translate(-179.422 -301.91)" fill="#212023"/>
      <path id="Path_3219" data-name="Path 3219" d="M180.363,303.009l-.163-1.1h.031l.167,1.1Z" transform="translate(-179.383 -301.91)" fill="#212023"/>
      <path id="Path_3220" data-name="Path 3220" d="M180.293,303.009l-.163-1.1h.031l.163,1.1Z" transform="translate(-179.343 -301.91)" fill="#212023"/>
      <path id="Path_3221" data-name="Path 3221" d="M180.213,303.009l-.163-1.1h.035l.163,1.1Z" transform="translate(-179.298 -301.91)" fill="#212023"/>
      <path id="Path_3222" data-name="Path 3222" d="M180.143,303.009l-.163-1.1h.031l.163,1.1Z" transform="translate(-179.259 -301.91)" fill="#212023"/>
      <path id="Path_3223" data-name="Path 3223" d="M180.067,303.009l-.167-1.1h.035l.163,1.1Z" transform="translate(-179.214 -301.91)" fill="#212024"/>
      <path id="Path_3224" data-name="Path 3224" d="M179.993,303.009l-.163-1.1h.031l.167,1.1Z" transform="translate(-179.175 -301.91)" fill="#222124"/>
      <path id="Path_3225" data-name="Path 3225" d="M179.917,303.009l-.167-1.1h.035l.163,1.1Z" transform="translate(-179.13 -301.91)" fill="#222124"/>
      <path id="Path_3226" data-name="Path 3226" d="M179.843,303.009l-.163-1.1h.031l.167,1.1Z" transform="translate(-179.091 -301.91)" fill="#222124"/>
      <path id="Path_3227" data-name="Path 3227" d="M179.767,303.009l-.167-1.1h.035l.163,1.1Z" transform="translate(-179.046 -301.91)" fill="#232225"/>
      <path id="Path_3228" data-name="Path 3228" d="M179.693,303.009l-.163-1.1h.031l.167,1.1Z" transform="translate(-179.007 -301.91)" fill="#232225"/>
      <path id="Path_3229" data-name="Path 3229" d="M179.623,303.009l-.163-1.1h.031l.163,1.1Z" transform="translate(-178.968 -301.91)" fill="#242326"/>
      <path id="Path_3230" data-name="Path 3230" d="M179.543,303.009l-.163-1.1h.035l.163,1.1Z" transform="translate(-178.923 -301.91)" fill="#242326"/>
      <path id="Path_3231" data-name="Path 3231" d="M179.473,303.009l-.163-1.1h.031l.163,1.1Z" transform="translate(-178.884 -301.91)" fill="#252427"/>
      <path id="Path_3232" data-name="Path 3232" d="M179.4,303.009l-.167-1.1h.035l.163,1.1Z" transform="translate(-178.839 -301.91)" fill="#262528"/>
      <path id="Path_3233" data-name="Path 3233" d="M179.323,303.009l-.163-1.1h.031l.167,1.1Z" transform="translate(-178.8 -301.91)" fill="#272629"/>
      <path id="Path_3234" data-name="Path 3234" d="M179.253,303.009l-.163-1.1h.031l.163,1.1Z" transform="translate(-178.76 -301.91)" fill="#28272b"/>
      <path id="Path_3235" data-name="Path 3235" d="M179.173,303.009l-.163-1.1h.035l.163,1.1Z" transform="translate(-178.716 -301.91)" fill="#29282c"/>
      <path id="Path_3236" data-name="Path 3236" d="M179.1,303.009l-.163-1.1h.031l.163,1.1Z" transform="translate(-178.676 -301.91)" fill="#2b2a2e"/>
      <path id="Path_3237" data-name="Path 3237" d="M179.027,303.009l-.167-1.1h.035l.163,1.1Z" transform="translate(-178.631 -301.91)" fill="#2d2b30"/>
      <path id="Path_3238" data-name="Path 3238" d="M178.953,303.009l-.163-1.1h.031l.167,1.1Z" transform="translate(-178.592 -301.91)" fill="#2f2d32"/>
      <path id="Path_3239" data-name="Path 3239" d="M178.877,303.009l-.167-1.1h.035l.163,1.1Z" transform="translate(-178.547 -301.91)" fill="#312f34"/>
      <path id="Path_3240" data-name="Path 3240" d="M178.8,303.009l-.163-1.1h.031l.167,1.1Z" transform="translate(-178.508 -301.91)" fill="#333237"/>
      <path id="Path_3241" data-name="Path 3241" d="M178.727,303.009l-.167-1.1h.035l.163,1.1Z" transform="translate(-178.463 -301.91)" fill="#363439"/>
      <path id="Path_3242" data-name="Path 3242" d="M178.653,303.009l-.163-1.1h.031l.167,1.1Z" transform="translate(-178.424 -301.91)" fill="#39373d"/>
      <path id="Path_3243" data-name="Path 3243" d="M178.583,303.009l-.163-1.1h.031l.163,1.1Z" transform="translate(-178.385 -301.91)" fill="#3c3a40"/>
      <path id="Path_3244" data-name="Path 3244" d="M178.507,303.009l-.167-1.1h.035l.163,1.1Z" transform="translate(-178.34 -301.91)" fill="#403e44"/>
      <path id="Path_3245" data-name="Path 3245" d="M178.34,301.91l.167,1.1h-.167Z" transform="translate(-178.34 -301.91)" fill="#403e44"/>
    </g>
    <path id="Path_3247" data-name="Path 3247" d="M178.92,302.573l-.33-.167-.532-.439-.171-.356-.127-.831.7.721.316.264.413.176.338.277Zm-.07-.439.053.026h0Z" transform="translate(-99.353 -168.305)" fill="url(#linear-gradient-9)"/>
    <g id="Group_503" data-name="Group 503" transform="translate(78.108 133.666)" clip-path="url(#clip-path-11)">
      <path id="Path_3248" data-name="Path 3248" d="M179.526,303.943l-.066-.453h.066Z" transform="translate(-178.414 -303.49)" fill="#212023"/>
      <path id="Path_3249" data-name="Path 3249" d="M179.477,304.127l-.1-.637h.035l.066.453v.185Z" transform="translate(-178.369 -303.49)" fill="#212023"/>
      <path id="Path_3250" data-name="Path 3250" d="M179.407,304.127l-.1-.637h.031l.1.637Z" transform="translate(-178.33 -303.49)" fill="#212023"/>
      <path id="Path_3251" data-name="Path 3251" d="M179.337,304.127l-.1-.637h.031l.1.637Z" transform="translate(-178.291 -303.49)" fill="#212023"/>
      <path id="Path_3252" data-name="Path 3252" d="M179.262,304.127l-.092-.637h.031l.1.637Z" transform="translate(-178.251 -303.49)" fill="#212023"/>
      <path id="Path_3253" data-name="Path 3253" d="M179.192,304.127l-.092-.637h.031l.092.637Z" transform="translate(-178.212 -303.49)" fill="#212023"/>
      <path id="Path_3254" data-name="Path 3254" d="M179.122,304.127l-.092-.637h.031l.092.637Z" transform="translate(-178.173 -303.49)" fill="#212023"/>
      <path id="Path_3255" data-name="Path 3255" d="M179.047,304.127l-.1-.637h.035l.092.637Z" transform="translate(-178.128 -303.49)" fill="#212023"/>
      <path id="Path_3256" data-name="Path 3256" d="M178.977,304.127l-.1-.637h.031l.1.637Z" transform="translate(-178.089 -303.49)" fill="#212023"/>
      <path id="Path_3257" data-name="Path 3257" d="M178.907,304.127l-.1-.637h.031l.1.637Z" transform="translate(-178.05 -303.49)" fill="#212023"/>
      <path id="Path_3258" data-name="Path 3258" d="M178.832,304.127l-.092-.637h.031l.1.637Z" transform="translate(-178.01 -303.49)" fill="#212023"/>
      <path id="Path_3259" data-name="Path 3259" d="M178.757,304.127l-.1-.637h.035l.092.637Z" transform="translate(-177.966 -303.49)" fill="#212023"/>
      <path id="Path_3260" data-name="Path 3260" d="M178.687,304.127l-.1-.637h.031l.1.637Z" transform="translate(-177.926 -303.49)" fill="#212024"/>
      <path id="Path_3261" data-name="Path 3261" d="M178.617,304.127l-.1-.637h.031l.1.637Z" transform="translate(-177.887 -303.49)" fill="#222124"/>
      <path id="Path_3262" data-name="Path 3262" d="M178.547,304.127l-.1-.637h.031l.1.637Z" transform="translate(-177.848 -303.49)" fill="#222124"/>
      <path id="Path_3263" data-name="Path 3263" d="M178.472,304.127l-.092-.637h.031l.1.637Z" transform="translate(-177.809 -303.49)" fill="#222124"/>
      <path id="Path_3264" data-name="Path 3264" d="M178.4,304.127l-.092-.637h.031l.092.637Z" transform="translate(-177.769 -303.49)" fill="#232225"/>
      <path id="Path_3265" data-name="Path 3265" d="M178.327,304.127l-.1-.637h.035l.092.637Z" transform="translate(-177.725 -303.49)" fill="#232225"/>
      <path id="Path_3266" data-name="Path 3266" d="M178.257,304.127l-.1-.637h.031l.1.637Z" transform="translate(-177.685 -303.49)" fill="#242326"/>
      <path id="Path_3267" data-name="Path 3267" d="M178.187,304.127l-.1-.637h.031l.1.637Z" transform="translate(-177.646 -303.49)" fill="#242326"/>
      <path id="Path_3268" data-name="Path 3268" d="M178.117,304.127l-.1-.637h.031l.1.637Z" transform="translate(-177.607 -303.49)" fill="#252427"/>
      <path id="Path_3269" data-name="Path 3269" d="M178.042,304.127l-.092-.637h.031l.1.637Z" transform="translate(-177.568 -303.49)" fill="#262528"/>
      <path id="Path_3270" data-name="Path 3270" d="M177.967,304.127l-.1-.637h.035l.092.637Z" transform="translate(-177.523 -303.49)" fill="#272629"/>
      <path id="Path_3271" data-name="Path 3271" d="M177.9,304.127l-.1-.637h.031l.1.637Z" transform="translate(-177.484 -303.49)" fill="#28272b"/>
      <path id="Path_3272" data-name="Path 3272" d="M177.827,304.127l-.1-.637h.031l.1.637Z" transform="translate(-177.444 -303.49)" fill="#29282c"/>
      <path id="Path_3273" data-name="Path 3273" d="M177.757,304.127l-.1-.637h.031l.1.637Z" transform="translate(-177.405 -303.49)" fill="#2b2a2e"/>
      <path id="Path_3274" data-name="Path 3274" d="M177.682,304.127l-.092-.637h.031l.1.637Z" transform="translate(-177.366 -303.49)" fill="#2d2b30"/>
      <path id="Path_3275" data-name="Path 3275" d="M177.607,304.127l-.1-.637h.035l.092.637Z" transform="translate(-177.321 -303.49)" fill="#2f2d32"/>
      <path id="Path_3276" data-name="Path 3276" d="M177.537,304.127l-.1-.637h.031l.1.637Z" transform="translate(-177.282 -303.49)" fill="#312f34"/>
      <path id="Path_3277" data-name="Path 3277" d="M177.467,304.127l-.1-.637h.031l.1.637Z" transform="translate(-177.243 -303.49)" fill="#333237"/>
      <path id="Path_3278" data-name="Path 3278" d="M177.4,304.127l-.1-.637h.031l.1.637Z" transform="translate(-177.203 -303.49)" fill="#363439"/>
      <path id="Path_3279" data-name="Path 3279" d="M177.322,304.127l-.092-.637h.031l.1.637Z" transform="translate(-177.164 -303.49)" fill="#39373d"/>
      <path id="Path_3280" data-name="Path 3280" d="M177.252,304.127l-.092-.637h.031l.092.637Z" transform="translate(-177.125 -303.49)" fill="#3c3a40"/>
      <path id="Path_3281" data-name="Path 3281" d="M177.177,304.127l-.1-.637h.035l.092.637Z" transform="translate(-177.08 -303.49)" fill="#403e44"/>
      <path id="Path_3282" data-name="Path 3282" d="M177.08,303.49l.1.637h-.1Z" transform="translate(-177.08 -303.49)" fill="#403e44"/>
    </g>
    <path id="Path_3284" data-name="Path 3284" d="M177.269,303.826l-.655-.312-.664-.914.782.321.4.255.892.189Z" transform="translate(-98.339 -169.325)" fill="url(#linear-gradient-10)"/>
    <g id="Group_504" data-name="Group 504" transform="translate(77.488 133.108)" clip-path="url(#clip-path-12)">
      <path id="Path_3285" data-name="Path 3285" d="M187.307,303.319l-.167-1.1Z" transform="translate(-182.099 -302.22)" fill="#212023"/>
      <path id="Path_3286" data-name="Path 3286" d="M187.047,304.076l-.277-1.846h.163l.167,1.094v.752Z" transform="translate(-181.891 -302.226)" fill="#212023"/>
      <path id="Path_3287" data-name="Path 3287" d="M186.677,304.076l-.277-1.846h.163l.277,1.846Z" transform="translate(-181.684 -302.226)" fill="#212023"/>
      <path id="Path_3288" data-name="Path 3288" d="M186.3,304.076l-.272-1.846h.163l.277,1.846Z" transform="translate(-181.477 -302.226)" fill="#212023"/>
      <path id="Path_3289" data-name="Path 3289" d="M185.927,304.076l-.277-1.846h.167l.272,1.846Z" transform="translate(-181.264 -302.226)" fill="#212023"/>
      <path id="Path_3290" data-name="Path 3290" d="M185.557,304.076l-.277-1.846h.163l.277,1.846Z" transform="translate(-181.056 -302.226)" fill="#212023"/>
      <path id="Path_3291" data-name="Path 3291" d="M185.187,304.076l-.277-1.846h.163l.277,1.846Z" transform="translate(-180.849 -302.226)" fill="#212023"/>
      <path id="Path_3292" data-name="Path 3292" d="M184.813,304.076l-.272-1.846h.163l.277,1.846Z" transform="translate(-180.642 -302.226)" fill="#212023"/>
      <path id="Path_3293" data-name="Path 3293" d="M184.437,304.076l-.277-1.846h.167l.272,1.846Z" transform="translate(-180.429 -302.226)" fill="#212023"/>
      <path id="Path_3294" data-name="Path 3294" d="M184.067,304.076l-.277-1.846h.163l.277,1.846Z" transform="translate(-180.221 -302.226)" fill="#212023"/>
      <path id="Path_3295" data-name="Path 3295" d="M183.7,304.076l-.277-1.846h.163l.277,1.846Z" transform="translate(-180.014 -302.226)" fill="#212023"/>
      <path id="Path_3296" data-name="Path 3296" d="M183.322,304.076l-.272-1.846h.163l.277,1.846Z" transform="translate(-179.806 -302.226)" fill="#212024"/>
      <path id="Path_3297" data-name="Path 3297" d="M182.952,304.076l-.273-1.846h.163l.272,1.846Z" transform="translate(-179.599 -302.226)" fill="#222124"/>
      <path id="Path_3298" data-name="Path 3298" d="M182.577,304.076l-.277-1.846h.167l.273,1.846Z" transform="translate(-179.386 -302.226)" fill="#222124"/>
      <path id="Path_3299" data-name="Path 3299" d="M182.207,304.076l-.277-1.846h.163l.277,1.846Z" transform="translate(-179.179 -302.226)" fill="#222124"/>
      <path id="Path_3300" data-name="Path 3300" d="M181.837,304.076l-.277-1.846h.163l.277,1.846Z" transform="translate(-178.971 -302.226)" fill="#232225"/>
      <path id="Path_3301" data-name="Path 3301" d="M181.462,304.076l-.272-1.846h.163l.277,1.846Z" transform="translate(-178.764 -302.226)" fill="#232225"/>
      <path id="Path_3302" data-name="Path 3302" d="M181.087,304.076l-.277-1.846h.167l.272,1.846Z" transform="translate(-178.551 -302.226)" fill="#242326"/>
      <path id="Path_3303" data-name="Path 3303" d="M180.717,304.076l-.277-1.846h.163l.277,1.846Z" transform="translate(-178.344 -302.226)" fill="#242326"/>
      <path id="Path_3304" data-name="Path 3304" d="M180.347,304.076l-.277-1.846h.163l.277,1.846Z" transform="translate(-178.136 -302.226)" fill="#252427"/>
      <path id="Path_3305" data-name="Path 3305" d="M179.973,304.076l-.272-1.846h.163l.277,1.846Z" transform="translate(-177.929 -302.226)" fill="#262528"/>
      <path id="Path_3306" data-name="Path 3306" d="M179.6,304.076l-.277-1.846h.167l.272,1.846Z" transform="translate(-177.716 -302.226)" fill="#272629"/>
      <path id="Path_3307" data-name="Path 3307" d="M179.227,304.076l-.277-1.846h.163l.277,1.846Z" transform="translate(-177.508 -302.226)" fill="#28272b"/>
      <path id="Path_3308" data-name="Path 3308" d="M178.857,304.076l-.277-1.846h.163l.277,1.846Z" transform="translate(-177.301 -302.226)" fill="#29282c"/>
      <path id="Path_3309" data-name="Path 3309" d="M178.482,304.076l-.272-1.846h.163l.277,1.846Z" transform="translate(-177.094 -302.226)" fill="#2b2a2e"/>
      <path id="Path_3310" data-name="Path 3310" d="M178.113,304.076l-.273-1.846H178l.272,1.846Z" transform="translate(-176.886 -302.226)" fill="#2d2b30"/>
      <path id="Path_3311" data-name="Path 3311" d="M177.737,304.076l-.277-1.846h.167l.273,1.846Z" transform="translate(-176.673 -302.226)" fill="#2f2d32"/>
      <path id="Path_3312" data-name="Path 3312" d="M177.367,304.076l-.277-1.846h.163l.277,1.846Z" transform="translate(-176.466 -302.226)" fill="#312f34"/>
      <path id="Path_3313" data-name="Path 3313" d="M176.993,304.076l-.273-1.846h.163l.277,1.846Z" transform="translate(-176.259 -302.226)" fill="#333237"/>
      <path id="Path_3314" data-name="Path 3314" d="M176.623,304.076l-.273-1.841.048,0h.114l.272,1.846Z" transform="translate(-176.051 -302.226)" fill="#363439"/>
      <path id="Path_3315" data-name="Path 3315" d="M176.253,304.082l-.272-1.82.163-.022.273,1.842Z" transform="translate(-175.844 -302.231)" fill="#39373d"/>
      <path id="Path_3316" data-name="Path 3316" d="M175.888,304.11l-.268-1.793.158-.026.272,1.82Z" transform="translate(-175.642 -302.259)" fill="#3c3a40"/>
      <path id="Path_3317" data-name="Path 3317" d="M175.72,304.143l-.11-.712V302.35h0l.268,1.793Z" transform="translate(-175.636 -302.293)" fill="#403e44"/>
      <path id="Path_3318" data-name="Path 3318" d="M175.61,304.81l.11.712h-.11Z" transform="translate(-175.636 -303.672)" fill="#403e44"/>
    </g>
    <path id="Path_3320" data-name="Path 3320" d="M175.681,304.1l-1.951-1.261.879.158c.193.035.4.07.62.092s.365.04.536.048l1.169-.5.6-.44,2.25-.321.048.338-.8.119-.817.237a2.262,2.262,0,0,0-.439.11,2.1,2.1,0,0,0-.439.211,9.012,9.012,0,0,0-1.125.743c-.145.119-.286.246-.439.378Zm-.365-.65.316.207.2-.18h-.066A3.8,3.8,0,0,1,175.317,303.449Z" transform="translate(-97.094 -168.921)" fill="url(#linear-gradient-11)"/>
    <path id="Path_3321" data-name="Path 3321" d="M205.246,318.418a5.162,5.162,0,0,1-1.376-.193l.1-.334a4.3,4.3,0,0,0,2.707-.083,1.758,1.758,0,0,0,1.037-.747c.132-.277,0-.541-.233-1.068a9.554,9.554,0,0,1-.44-1.024,7.972,7.972,0,0,1-.4-1.877l.352-.031a7.524,7.524,0,0,0,.378,1.8,9.466,9.466,0,0,0,.439.989c.255.536.44.927.233,1.362a2.061,2.061,0,0,1-1.222.919A4.242,4.242,0,0,1,205.246,318.418Z" transform="translate(-113.988 -175.188)" fill="#b27b7b"/>
    <path id="Path_3322" data-name="Path 3322" d="M154.936,262.328a28.323,28.323,0,0,0-7.577,13.431c-1.864,7.327-.571,13.554.69,19.624,1.42,6.843,2.738,7.538,3.077,13.084.492,7.6-1.626,11.8-.343,12.394,1.587.743,7.089-4.65,8.948-11.7,1.288-4.879.229-8.241-.686-14.464-1.934-13.163-1.9-17.066-1.406-19.338a11.135,11.135,0,0,1,.374-1.319c1.2-3.652,4.514-9.366,8.606-9.643,2.285-.154,3.45,1.477,9.3,3.789a10.365,10.365,0,0,0,2.136.716c1.455.29,2.307,0,3.718.659,6.861,3.125,6.883,17.919,6.887,21.351,0,2.3-.945,13.273,0,18.248a6.724,6.724,0,0,0,1.376,3.1,7.945,7.945,0,0,0,4.136,2.409c1.683.483,2.527.73,3.077.343,1.683-1.129-1.288-6.232-2.413-14.117-.721-5.059.224-4.922-.343-14.8a69.577,69.577,0,0,0-1.033-10.328c-1.187-5.692-2.3-11.032-6.887-14.807-1.015-.835-4.369-3.591-8.61-3.789h-9.252a32.607,32.607,0,0,0-4.474,0,12.914,12.914,0,0,0-4.479,1.723,26.191,26.191,0,0,0-4.817,3.441Z" transform="translate(-81.789 -143.821)" fill="#ad8647"/>
    <path id="Path_3323" data-name="Path 3323" d="M194.247,486.928a5.218,5.218,0,0,0,2.3,1.538,5.432,5.432,0,0,0,3.459.382,4.367,4.367,0,0,0,2.69-1.921,14.262,14.262,0,0,1-2.307,1.151,4.764,4.764,0,0,1-1.921.387,6.866,6.866,0,0,1-2.3-.769A11.19,11.19,0,0,0,194.247,486.928Z" transform="translate(-108.592 -272.635)" fill="#e5d3b3"/>
    <path id="Path_3324" data-name="Path 3324" d="M204.175,485.614a1.9,1.9,0,0,0-.022.211,6.9,6.9,0,0,0,.022,1.134c0,.141.119.9.251.879s.246-.725.251-1.345-.105-1.319-.251-1.345S204.219,485.394,204.175,485.614Z" transform="translate(-114.138 -271.641)" fill="#e5d3b3"/>
    <path id="Path_3325" data-name="Path 3325" d="M145.2,440.292c6.153,2.778,17.2,1.965,23.048,1.538,11.533-.848,15.559-4.039,17.673-1.538,1.661,1.969.439,5.424,2.3,11.524a7.805,7.805,0,0,0,2.307,3.841c1.4,1.191,2.712,1.244,2.69,1.538-.057.664-6.922,1.2-16.134.382-10.7-.949-10.988-2.523-16.9-1.921-4.136.439-4.575,1.248-13.445,2.69-10,1.626-3.2-.44-10.372.382-.989.114-2.2.277-2.69-.382-.791-1.024.813-3.077,2.69-6.531,3.929-7.225,4.153-11.537,6.913-11.906a3.362,3.362,0,0,1,1.921.382Z" transform="translate(-74.529 -245.974)" fill="#474546"/>
    <path id="Path_3326" data-name="Path 3326" d="M169.261,562.042c.277,1.683-.057,2.074,0,4.228.053,1.973.114,3.494,1.156,4.224a2.1,2.1,0,0,0,1.152.382c2.527.044,4.4-5.147,4.61-5.762a15.616,15.616,0,0,0,.769-5.375c.026-1.508.031-2.272-.387-2.69-1.56-1.578-7.3.549-7.683,3.077C168.8,560.68,169.046,560.715,169.261,562.042Z" transform="translate(-94.366 -311.639)" fill="#7a7277"/>
    <path id="Path_3327" data-name="Path 3327" d="M223.756,558.069a13.259,13.259,0,0,0,.765,3.077c.642,1.7,1.428,3.793,3.459,5a4.87,4.87,0,0,0,3.077.765,2.636,2.636,0,0,0,1.921-.765c.782-1.05-.585-2.36-.769-5.762-.035-.721,0-1.459,0-2.307.066-2.69.3-2.923,0-3.459-.523-.936-1.885-1.134-4.606-1.534-1.7-.251-2.562-.369-3.077,0C223.237,553.982,223.545,556.478,223.756,558.069Z" transform="translate(-125.026 -309.587)" fill="#7a7277"/>
    <path id="Path_3328" data-name="Path 3328" d="M166.251,546.348c-.541,1.872,8.5,8.232,18.437,7.683,8.425-.461,15.906-5.806,15.383-7.683-.4-1.393-5.046-.281-20.74-.382C169.156,545.9,166.523,545.4,166.251,546.348Z" transform="translate(-92.889 -305.547)" fill="#f4e9ef"/>
    <path id="Path_3329" data-name="Path 3329" d="M147.05,451.451a20.578,20.578,0,0,1,3.055,4.4s.281.615.4.58c.237-.07-.439-2.5,0-2.69.369-.158,1.231,1.319,1.534,1.156s-.527-1.705,0-2.307c.628-.716,2.839.708,3.077.387s-1.059-1.675-5.38-5.362" transform="translate(-82.14 -250.602)" fill="#eddebe"/>
    <path id="Path_3330" data-name="Path 3330" d="M247.077,452.749a20.076,20.076,0,0,0-3.455,4.4s-.316.62-.44.585c-.272-.07.505-2.5,0-2.69-.439-.158-1.393,1.319-1.758,1.152s.6-1.7,0-2.3c-.708-.721-3.208.7-3.472.382s1.217-1.7,6.078-5.38" transform="translate(-133.074 -251.32)" fill="#eddebe"/>
    <path id="Path_3331" data-name="Path 3331" d="M162.749,375.584a33.265,33.265,0,0,0,9.6.387c7.2-.475,7.247-1.85,9.608-1.156,2.861.844,4.145,2.967,8.447,9.99,8.293,13.528,9.19,14.89,8.821,17.673-.624,4.918-4.615,9.867-7.683,9.608a3.5,3.5,0,0,1-3.077-2.69c-.088-1.257,1.319-1.639,3.077-4.228.993-1.455,1.96-2.87,1.921-4.61-.026-1.13-.461-1.538-2.307-4.606-2.2-3.674-3.257-5.859-3.455-5.766-.11.053.185.677.382,1.538.628,2.747.026,4.342,0,6.531-.04,3.472,1.406,4.65,1.151,5.762-1.547,6.8-39.516,7.006-40.72.769-.07-.369.062-.387,1.156-4.61.923-3.582.923-3.956,1.534-6.153,1.244-4.492,2.1-6.07,1.921-6.153-.36-.167-3.789,6.694-5.375,12.675a14.781,14.781,0,0,0-.374,1.653,10.638,10.638,0,0,0,0,2.2c.312,2.7,2.329,3.753,1.921,5s-2.958,2.272-4.61,1.534c-3.358-1.5-2.452-9.77-2.3-11.137.47-4.32,1.943-7.472,3.841-11.528a32.727,32.727,0,0,1,4.224-7.3c1.929-2.422,4.835-6.074,8.838-6.153C160.454,374.789,160.419,375.1,162.749,375.584Z" transform="translate(-79.402 -209.693)" fill="#cca6b1"/>
    <path id="Path_3332" data-name="Path 3332" d="M174.992,552.554c.171-1,3.7-2.2,5.762-.382,1.1.98,1.758,2.817,1.151,3.455C180.754,556.844,174.763,553.947,174.992,552.554Z" transform="translate(-97.798 -308.682)" fill="#ede2e8"/>
    <path id="Path_3333" data-name="Path 3333" d="M224.244,554.482c0-1.011-3.019-2.681-5.142-1.134-1.134.826-2,2.562-1.534,3.274C218.443,557.972,224.279,555.893,224.244,554.482Z" transform="translate(-121.594 -309.515)" fill="#ede2e8"/>
  </g>
</svg>
