<svg xmlns="http://www.w3.org/2000/svg" xmlns:xlink="http://www.w3.org/1999/xlink" width="195" height="377" viewBox="0 0 195 377">
  <defs>
    <clipPath id="clip-path">
      <rect id="Rectangle_1754" data-name="Rectangle 1754" width="195" height="377" fill="none"/>
    </clipPath>
    <clipPath id="clip-path-2">
      <rect id="Rectangle_1763" data-name="Rectangle 1763" width="15.08" height="10.053" fill="none"/>
    </clipPath>
    <linearGradient id="linear-gradient" y1="0.5" x2="1" y2="0.5" gradientUnits="objectBoundingBox">
      <stop offset="0" stop-color="#212023"/>
      <stop offset="0.5" stop-color="#232225"/>
      <stop offset="0.73" stop-color="#2a292d"/>
      <stop offset="0.91" stop-color="#363439"/>
      <stop offset="1" stop-color="#403e44"/>
    </linearGradient>
    <linearGradient id="linear-gradient-2" x1="-0.003" y1="0.501" x2="0.996" y2="0.501" xlink:href="#linear-gradient"/>
    <clipPath id="clip-path-3">
      <path id="Path_2556" data-name="Path 2556" d="M246.317,359.071l.431-.5-.1.563-.3.682-.347.035Z" transform="translate(-246 -358.57)" fill="none"/>
    </clipPath>
    <linearGradient id="linear-gradient-4" x1="164.539" y1="208.745" x2="165.237" y2="208.745" xlink:href="#linear-gradient"/>
    <clipPath id="clip-path-4">
      <path id="Path_2593" data-name="Path 2593" d="M248.586,358.88l-.391.44-.4.536.391.2.251-.347.3-.8.035-.176Z" transform="translate(-247.79 -358.73)" fill="none"/>
    </clipPath>
    <linearGradient id="linear-gradient-5" x1="147.465" y1="221.333" x2="148.253" y2="221.333" xlink:href="#linear-gradient"/>
    <clipPath id="clip-path-5">
      <path id="Path_2630" data-name="Path 2630" d="M249.274,360.627l.559-.207.515-.409.462-.462-.075.422-.237.431-.712.559-.295.141-.44-.3Z" transform="translate(-249.05 -359.55)" fill="none"/>
    </clipPath>
    <linearGradient id="linear-gradient-6" x1="99.339" y1="196.938" x2="100.182" y2="196.938" xlink:href="#linear-gradient"/>
    <clipPath id="clip-path-6">
      <path id="Path_2667" data-name="Path 2667" d="M252.449,362l-.607.374-.712.128.413.286.756-.339.418-.55Z" transform="translate(-251.13 -361.9)" fill="none"/>
    </clipPath>
    <linearGradient id="linear-gradient-7" x1="86.034" y1="295.296" x2="86.957" y2="295.296" xlink:href="#linear-gradient"/>
    <clipPath id="clip-path-7">
      <path id="Path_2703" data-name="Path 2703" d="M240.1,359.57l1.126.207,1.174.391a3.081,3.081,0,0,1,.638.185,3.516,3.516,0,0,1,.624.347,13.1,13.1,0,0,1,1.574,1.152c.154.141.361.339.594.589l1.592-.976c-.281.044-.581.079-.9.106s-.567.04-.831.044l-1.706-.809-.8-.673Z" transform="translate(-240.1 -359.57)" fill="none"/>
    </clipPath>
    <linearGradient id="linear-gradient-8" x1="29.957" y1="148.448" x2="30.966" y2="148.448" xlink:href="#linear-gradient"/>
    <clipPath id="clip-path-8">
      <path id="Path_2740" data-name="Path 2740" d="M179.472,357.513l-.422-.523.084.572.277.708.356.044Z" transform="translate(-179.05 -356.99)" fill="none"/>
    </clipPath>
    <linearGradient id="linear-gradient-9" x1="3959.175" y1="-166.298" x2="3959.914" y2="-166.298" xlink:href="#linear-gradient"/>
    <clipPath id="clip-path-9">
      <path id="Path_2777" data-name="Path 2777" d="M176.86,357.223l.378.462.4.554-.4.194-.246-.361-.277-.827-.026-.185Z" transform="translate(-176.68 -357.06)" fill="none"/>
    </clipPath>
    <linearGradient id="linear-gradient-10" x1="3485.943" y1="-176.962" x2="3486.761" y2="-176.962" xlink:href="#linear-gradient"/>
    <clipPath id="clip-path-10">
      <path id="Path_2814" data-name="Path 2814" d="M175.06,358.948l-.563-.233-.51-.431-.457-.484.062.431.229.444.708.589.295.154.462-.29Z" transform="translate(-173.53 -357.8)" fill="none"/>
    </clipPath>
    <linearGradient id="linear-gradient-11" x1="2320.714" y1="-156.258" x2="2321.581" y2="-156.258" xlink:href="#linear-gradient"/>
    <clipPath id="clip-path-11">
      <path id="Path_2851" data-name="Path 2851" d="M171.983,360.234l.607.4.726.154-.431.273-.765-.369-.409-.572Z" transform="translate(-171.71 -360.12)" fill="none"/>
    </clipPath>
    <linearGradient id="linear-gradient-12" x1="1964.048" y1="-231.101" x2="1964.973" y2="-231.101" xlink:href="#linear-gradient"/>
    <clipPath id="clip-path-12">
      <path id="Path_2887" data-name="Path 2887" d="M177.153,358.26l-1.161.172-1.218.356a3.515,3.515,0,0,0-.664.172,3.573,3.573,0,0,0-.651.33A12.874,12.874,0,0,0,171.8,360.4c-.163.136-.383.33-.629.576l-1.592-1.047c.286.053.594.1.915.141s.585.057.853.075l1.759-.765.84-.655Z" transform="translate(-169.58 -358.26)" fill="none"/>
    </clipPath>
    <linearGradient id="linear-gradient-13" x1="668.725" y1="-127.124" x2="669.72" y2="-127.124" xlink:href="#linear-gradient"/>
  </defs>
  <g id="Layer_2" data-name="Layer 2" transform="translate(-0.5 -0.969)">
    <g id="Group_478" data-name="Group 478" transform="translate(0.5 0.969)" opacity="0.8">
      <g id="Group_477" data-name="Group 477" transform="translate(0 0)" clip-path="url(#clip-path)">
        <path id="Path_2454" data-name="Path 2454" d="M173.352,377.828H22.949A22.486,22.486,0,0,1,.52,355.4V22.929A22.486,22.486,0,0,1,22.949.5h150.4a22.486,22.486,0,0,1,22.429,22.429V355.4a22.486,22.486,0,0,1-22.429,22.429" transform="translate(-0.511 -0.828)"/>
      </g>
    </g>
    <rect id="Rectangle_1755" data-name="Rectangle 1755" width="180.986" height="277.059" transform="translate(7.813 40.964)" fill="#fff"/>
    <path id="Path_2455" data-name="Path 2455" d="M224.415,782.772c0,8.985-6.957,16.272-15.537,16.272s-15.537-7.287-15.537-16.272S200.3,766.5,208.877,766.5s15.537,7.283,15.537,16.272" transform="translate(-108.033 -428.99)"/>
    <path id="Path_2456" data-name="Path 2456" d="M216.171,42.458H184.859a1.979,1.979,0,0,1,0-3.958h31.312a1.979,1.979,0,0,1,0,3.958" transform="translate(-102.174 -21.147)"/>
    <path id="Path_2457" data-name="Path 2457" d="M271.635,40.479a1.891,1.891,0,1,1-1.891-1.979,1.935,1.935,0,0,1,1.891,1.979" transform="translate(-149.778 -21.147)"/>
    <path id="Path_2458" data-name="Path 2458" d="M40.8,683.2h-.44a.224.224,0,0,1-.22-.22V667.03a.224.224,0,0,1,.22-.22h.44a.22.22,0,0,1,.22.22v15.955a.22.22,0,0,1-.22.22" transform="translate(-22.207 -373.142)" fill="#66a8de"/>
    <rect id="Rectangle_1756" data-name="Rectangle 1756" width="13.413" height="13.466" rx="4.1" transform="translate(11.525 301.571)" fill="none" stroke="#66a8de" stroke-miterlimit="10" stroke-width="1"/>
    <path id="Path_2459" data-name="Path 2459" d="M44.62,670.739l-3.492-5.453a.308.308,0,0,0-.365-.1l-.229.1a.2.2,0,0,0-.11.295l3.492,5.453a.308.308,0,0,0,.365.1l.229-.1a.207.207,0,0,0,.11-.3" transform="translate(-22.351 -372.22)" fill="#66a8de"/>
    <path id="Path_2460" data-name="Path 2460" d="M32.73,671.181l3.685-5.277a.2.2,0,0,0-.1-.3l-.224-.11a.3.3,0,0,0-.365.075l-3.685,5.277a.207.207,0,0,0,.1.3l.224.11a.3.3,0,0,0,.365-.079" transform="translate(-17.651 -372.384)" fill="#66a8de"/>
    <path id="Path_2461" data-name="Path 2461" d="M218.709,689.564c-1.491-3.633-4.455-5.994-6.619-5.277s-3.228,4.508-1.209,7.881c1.649,2.753,4.341,3.927,5.853,4.785a1.888,1.888,0,0,1,.286.128,2.412,2.412,0,0,1,.383.2,2,2,0,0,1,.29.149,2.156,2.156,0,0,1,.369.207l.088.044c1.35-.194,1.86-4.952.559-8.114" transform="translate(-117.258 -382.861)" fill="#cb2228"/>
    <path id="Path_2462" data-name="Path 2462" d="M227.458,689.88c1.557-3.61,4.565-5.919,6.711-5.163s3.149,4.56,1.073,7.916c-1.7,2.727-4.4,3.852-5.941,4.684a2.875,2.875,0,0,0-.29.123,2.224,2.224,0,0,0-.383.193,1.8,1.8,0,0,0-.295.141,2.136,2.136,0,0,0-.369.2l-.092.04c-1.346-.211-1.759-4.978-.413-8.118" transform="translate(-126.684 -383.093)" fill="#cb2228"/>
    <rect id="Rectangle_1757" data-name="Rectangle 1757" width="13.154" height="16.597" rx="0.02" transform="translate(172.65 298.128)" fill="none" stroke="#66a8de" stroke-miterlimit="10" stroke-width="1"/>
    <rect id="Rectangle_1758" data-name="Rectangle 1758" width="15.392" height="0.638" transform="translate(171.529 297.49)" fill="#66a8de"/>
    <rect id="Rectangle_1759" data-name="Rectangle 1759" width="0.281" height="14.363" transform="translate(174.889 299.087)" fill="#66a8de"/>
    <rect id="Rectangle_1760" data-name="Rectangle 1760" width="0.281" height="14.363" transform="translate(177.686 299.087)" fill="#66a8de"/>
    <rect id="Rectangle_1761" data-name="Rectangle 1761" width="0.281" height="14.363" transform="translate(180.487 299.087)" fill="#66a8de"/>
    <rect id="Rectangle_1762" data-name="Rectangle 1762" width="0.281" height="14.363" transform="translate(183.003 299.087)" fill="#66a8de"/>
    <path id="Path_2463" data-name="Path 2463" d="M405.158,677.245h-6.474c-.374,0-1.381.8-.682-.778v-1a.739.739,0,0,1,.682-.778h6.474a.739.739,0,0,1,.682.778v1C406.539,678.041,405.532,677.245,405.158,677.245Z" transform="translate(-222.555 -377.556)" fill="none" stroke="#66a8de" stroke-miterlimit="10" stroke-width="1"/>
    <g id="Group_480" data-name="Group 480" transform="translate(175.355 360.836)" opacity="0.25">
      <g id="Group_479" data-name="Group 479" clip-path="url(#clip-path-2)">
        <path id="Path_2464" data-name="Path 2464" d="M398.1,829.593c8.721-.712,15.463-5.211,15.067-10.053" transform="translate(-398.1 -819.54)" fill="#fff"/>
      </g>
    </g>
    <path id="Path_2465" data-name="Path 2465" d="M25.61,31.757c.88-7.476,5.682-13.066,10.753-12.472" transform="translate(-14.067 -10.358)" fill="#666665"/>
    <path id="Path_2466" data-name="Path 2466" d="M37.161,103.694l-5.519,3.958a.325.325,0,0,0-.084.391l.11.242a.211.211,0,0,0,.317.1l5.515-3.958a.321.321,0,0,0,.084-.391l-.11-.237a.207.207,0,0,0-.312-.106" transform="translate(-17.381 -57.651)" fill="#66a8de"/>
    <path id="Path_2467" data-name="Path 2467" d="M37.975,116.428l-5.629-3.707a.207.207,0,0,0-.308.119l-.106.242a.317.317,0,0,0,.1.387l5.634,3.707a.207.207,0,0,0,.308-.119l.106-.242a.317.317,0,0,0-.1-.387" transform="translate(-17.592 -62.71)" fill="#66a8de"/>
    <path id="Path_2468" data-name="Path 2468" d="M202.11,102.568h-1.35v-.488h3.29v.488h-1.359v3.958h-.581Z" transform="translate(-112.19 -56.766)"/>
    <path id="Path_2469" data-name="Path 2469" d="M209.7,102.43a.339.339,0,0,1-.369.356.343.343,0,0,1-.347-.356.352.352,0,0,1,.361-.361.343.343,0,0,1,.356.361Zm-.646,4.09v-3.193h.581v3.193Z" transform="translate(-116.795 -56.761)"/>
    <path id="Path_2470" data-name="Path 2470" d="M212.616,105.832c0-.378,0-.7-.026-1h.506v.629h.026a.959.959,0,0,1,.88-.7.673.673,0,0,1,.167,0v.55a.88.88,0,0,0-.2,0,.814.814,0,0,0-.774.748,1.63,1.63,0,0,0-.026.268v1.7h-.576Z" transform="translate(-118.818 -58.267)"/>
    <path id="Path_2471" data-name="Path 2471" d="M217.208,107.458a1.5,1.5,0,0,0,.765.233c.44,0,.62-.211.62-.475s-.163-.44-.594-.589c-.572-.2-.844-.519-.844-.88a.985.985,0,0,1,1.1-.937,1.583,1.583,0,0,1,.783.2l-.145.44a1.236,1.236,0,0,0-.651-.185c-.343,0-.537.2-.537.44s.193.383.607.541c.554.211.84.488.84.963,0,.559-.44.954-1.2.954a1.825,1.825,0,0,1-.88-.215Z" transform="translate(-121.333 -58.292)"/>
    <path id="Path_2472" data-name="Path 2472" d="M225.973,101.54V105.4a7.9,7.9,0,0,0,.026.822h-.519l-.026-.554h0a1.183,1.183,0,0,1-1.091.629A1.457,1.457,0,0,1,223,104.676a1.529,1.529,0,0,1,1.434-1.715,1.06,1.06,0,0,1,.959.488h0V101.54Zm-.576,2.793a.947.947,0,0,0-.031-.246.849.849,0,0,0-.836-.673c-.6,0-.954.528-.954,1.236s.317,1.179.941,1.179a.88.88,0,0,0,.849-.69.911.911,0,0,0,.031-.251Z" transform="translate(-124.65 -56.464)"/>
    <path id="Path_2473" data-name="Path 2473" d="M233.428,108.033l-.048-.4h-.022a1.179,1.179,0,0,1-.972.475.91.91,0,0,1-.976-.919c0-.77.686-1.192,1.917-1.187v-.066a.66.66,0,0,0-.726-.739,1.583,1.583,0,0,0-.831.237l-.132-.383a1.979,1.979,0,0,1,1.047-.281c.976,0,1.214.664,1.214,1.319v1.192a4.476,4.476,0,0,0,.053.765Zm-.088-1.627c-.633,0-1.355.1-1.355.717a.515.515,0,0,0,.55.554.792.792,0,0,0,.77-.532.572.572,0,0,0,.035-.185Z" transform="translate(-129.361 -58.273)"/>
    <path id="Path_2474" data-name="Path 2474" d="M241.673,104.866c0,.233-.026.488-.026.88V107.6a1.9,1.9,0,0,1-.44,1.46,1.684,1.684,0,0,1-1.161.383,2.045,2.045,0,0,1-1.06-.264l.145-.44a1.8,1.8,0,0,0,.937.251c.594,0,1.029-.308,1.029-1.113v-.339h0a1.148,1.148,0,0,1-1.016.532,1.429,1.429,0,0,1-1.359-1.557,1.529,1.529,0,0,1,1.438-1.693,1.055,1.055,0,0,1,.994.554h0l.026-.484Zm-.6,1.262a.822.822,0,0,0-.031-.264.84.84,0,0,0-.814-.616c-.554,0-.95.471-.95,1.209,0,.624.317,1.148.946,1.148a.849.849,0,0,0,.8-.594,1.091,1.091,0,0,0,.044-.312Z" transform="translate(-133.455 -58.299)"/>
    <path id="Path_2475" data-name="Path 2475" d="M206.4,120.987h0l-.748.4-.11-.44.937-.5h.493v4.288h-.559Z" transform="translate(-114.868 -67.058)"/>
    <path id="Path_2476" data-name="Path 2476" d="M215.2,120.44v.383l-1.869,3.905h-.616l1.86-3.791H212.5v-.484Z" transform="translate(-118.767 -67.052)"/>
    <path id="Path_2477" data-name="Path 2477" d="M220.119,128.883a.387.387,0,0,1,.4-.413.418.418,0,0,1,0,.831.391.391,0,0,1-.4-.418Z" transform="translate(-123.035 -71.551)"/>
    <path id="Path_2478" data-name="Path 2478" d="M223.12,124.626v-.356l.44-.44c1.1-1.042,1.592-1.6,1.6-2.243a.765.765,0,0,0-.849-.84,1.442,1.442,0,0,0-.91.365l-.185-.409a1.873,1.873,0,0,1,1.214-.44,1.205,1.205,0,0,1,1.319,1.245c0,.792-.572,1.434-1.478,2.3l-.343.317h1.926v.479Z" transform="translate(-124.717 -66.95)"/>
    <path id="Path_2479" data-name="Path 2479" d="M230.69,123.572a1.227,1.227,0,0,1,.853-1.148h0a1.06,1.06,0,0,1-.677-.963,1.2,1.2,0,0,1,1.319-1.139,1.108,1.108,0,0,1,1.249,1.055,1.1,1.1,0,0,1-.708,1h0a1.192,1.192,0,0,1,.88,1.108,1.323,1.323,0,0,1-1.46,1.249C231.231,124.733,230.69,124.2,230.69,123.572Zm2.309-.026c0-.523-.361-.774-.941-.937a.932.932,0,0,0-.774.88.8.8,0,0,0,.88.818.774.774,0,0,0,.836-.761Zm-1.6-2.146c0,.44.325.66.818.792a.844.844,0,0,0,.655-.778.668.668,0,0,0-.726-.7.682.682,0,0,0-.748.686Z" transform="translate(-128.958 -66.983)"/>
    <path id="Path_2480" data-name="Path 2480" d="M375,103.87a5.819,5.819,0,0,1,1.1-.092,1.816,1.816,0,0,1,1.284.361,1.1,1.1,0,0,1,.347.844,1.165,1.165,0,0,1-.836,1.135v.022a1.1,1.1,0,0,1,.651.88,6.9,6.9,0,0,0,.347,1.218H377.3a5.278,5.278,0,0,1-.3-1.06c-.132-.616-.369-.844-.88-.88h-.541v1.97H375Zm.576,2.023h.585c.616,0,1-.334,1-.844s-.413-.822-1.025-.831a2.344,2.344,0,0,0-.563.053Z" transform="translate(-209.804 -57.712)" fill="#66a8de"/>
    <path id="Path_2481" data-name="Path 2481" d="M383.071,108.312a1.02,1.02,0,0,0,1.1,1.108,2.12,2.12,0,0,0,.88-.163l.1.413a2.573,2.573,0,0,1-1.06.2,1.482,1.482,0,0,1-1.57-1.61,1.548,1.548,0,0,1,1.5-1.72,1.352,1.352,0,0,1,1.319,1.5v.268Zm1.7-.413a.831.831,0,0,0-.8-.946.963.963,0,0,0-.88.946Z" transform="translate(-214.009 -59.265)" fill="#66a8de"/>
    <path id="Path_2482" data-name="Path 2482" d="M393.043,103.31v3.861a6.781,6.781,0,0,0,.031.822h-.523l-.026-.554h0a1.179,1.179,0,0,1-1.086.629,1.457,1.457,0,0,1-1.368-1.623,1.531,1.531,0,0,1,1.434-1.715,1.073,1.073,0,0,1,.963.488h0V103.31Zm-.576,2.793a.947.947,0,0,0-.031-.246.849.849,0,0,0-.836-.673c-.6,0-.954.528-.954,1.236s.317,1.179.941,1.179a.88.88,0,0,0,.849-.69.909.909,0,0,0,.031-.251Z" transform="translate(-218.246 -57.456)" fill="#66a8de"/>
    <path id="Path_2483" data-name="Path 2483" d="M399.577,104.2a.339.339,0,0,1-.369.356.343.343,0,0,1-.347-.356.356.356,0,0,1,.365-.361.343.343,0,0,1,.352.361Zm-.655,4.108V105.1h.581v3.21Z" transform="translate(-223.17 -57.752)" fill="#66a8de"/>
    <path id="Path_2484" data-name="Path 2484" d="M405.018,106.613c0,.233-.026.488-.026.88v1.851a1.9,1.9,0,0,1-.44,1.46,1.7,1.7,0,0,1-1.161.383,2.076,2.076,0,0,1-1.064-.264l.145-.44a1.8,1.8,0,0,0,.937.251c.594,0,1.029-.308,1.029-1.113v-.356h0a1.143,1.143,0,0,1-1.016.532,1.429,1.429,0,0,1-1.359-1.557,1.529,1.529,0,0,1,1.438-1.693,1.055,1.055,0,0,1,.994.554h0l.026-.484Zm-.6,1.262a.822.822,0,0,0-.031-.264.84.84,0,0,0-.814-.616c-.554,0-.946.471-.946,1.209,0,.624.317,1.148.941,1.148a.849.849,0,0,0,.8-.594.957.957,0,0,0,.044-.312Z" transform="translate(-224.962 -59.268)" fill="#66a8de"/>
    <path id="Path_2485" data-name="Path 2485" d="M410.942,108.312a1.025,1.025,0,0,0,1.1,1.108,2.08,2.08,0,0,0,.88-.163l.1.413a2.6,2.6,0,0,1-1.064.2,1.482,1.482,0,0,1-1.566-1.61,1.548,1.548,0,0,1,1.5-1.72,1.352,1.352,0,0,1,1.319,1.5,1.7,1.7,0,0,1-.022.268Zm1.706-.413a.831.831,0,0,0-.8-.946.963.963,0,0,0-.88.946Z" transform="translate(-229.628 -59.265)" fill="#66a8de"/>
    <path id="Path_2486" data-name="Path 2486" d="M418.4,107.632c0-.378,0-.7-.026-1h.51v.629h.026a.959.959,0,0,1,.88-.7.652.652,0,0,1,.167,0v.55a.879.879,0,0,0-.2,0,.818.818,0,0,0-.778.748,1.628,1.628,0,0,0-.026.268v1.7h-.576Z" transform="translate(-234.101 -59.275)" fill="#66a8de"/>
    <rect id="Rectangle_1764" data-name="Rectangle 1764" width="181.355" height="115.406" transform="translate(7.893 117.542)" fill="#eacae5"/>
    <rect id="Rectangle_1765" data-name="Rectangle 1765" width="181.355" height="29.214" transform="translate(7.893 203.901)" fill="#e2c3de"/>
    <rect id="Rectangle_1766" data-name="Rectangle 1766" width="49.07" height="64.77" transform="translate(131.936 128.924)" fill="#e5dae4"/>
    <path id="Path_2487" data-name="Path 2487" d="M361.381,377l3.971.321,2.7,2.428,2.353,4.71-1.961,1.961-1.961-1.174,1.179-1.966-1.966-1.57,1.179,4.71-5.889.4-2.357-.4.4-5.493-1.57,1.57,1.961,1.179-1.491,1.961-2.133-1.9-1.086-1.632,5.1-5.106Z" transform="translate(-198.437 -210.783)" fill="#37381c"/>
    <ellipse id="Ellipse_101" data-name="Ellipse 101" cx="4.345" cy="5.137" rx="4.345" ry="5.137" transform="translate(160.337 156.995)" fill="#f9e5d4"/>
    <path id="Path_2488" data-name="Path 2488" d="M366.318,356.5a9.472,9.472,0,0,1,2.34-.29,10.148,10.148,0,0,1,1.218.246c2.2.5,2.683.651,2.819.44s-.167-.778-.532-1.121c-1.236-1.165-3.518-.44-3.993-.3A3.713,3.713,0,0,0,366.318,356.5Z" transform="translate(-204.939 -198.525)" fill="#8c7a69"/>
    <path id="Path_2489" data-name="Path 2489" d="M364.921,364.006l2.357.391h3.14l1.961-.787.391.4-.783.391-1.179.391v.787l-.787.391-.783-.391-.391-.4H367.67l-.391.787h-.787l-.787-.787v-.391l-1.174-.391v-.466Z" transform="translate(-203.938 -203.282)" fill="url(#linear-gradient)"/>
    <path id="Path_2490" data-name="Path 2490" d="M334.475,375.1c.308.092.712.224,1.179.391,1.53.554,2.3.827,2.357,1.179.1.624-1.355,1.843-2.749,1.57a2.878,2.878,0,0,1-1.961-3.14c0-.123.1-.726.391-.787S334.224,374.579,334.475,375.1Z" transform="translate(-186.43 -209.272)" fill="url(#linear-gradient-2)"/>
    <path id="Path_2491" data-name="Path 2491" d="M331.427,377h5.462l2,2.357,2.353,2.749.391,3.531h-1.57l-2.353-3.531-.787-.787,1.966,5.1-9.029,1.179,1.179-6.28-3.144,2.749-2.744,2.353-.787-1.961Z" transform="translate(-181.434 -210.783)" fill="url(#linear-gradient)"/>
    <ellipse id="Ellipse_102" data-name="Ellipse 102" cx="4.851" cy="5.405" rx="4.851" ry="5.405" transform="translate(147.57 156.599)" fill="#edd5c5"/>
    <path id="Path_2492" data-name="Path 2492" d="M335.58,356.208l2.63-1.557,2.357.391.783-.391h1.966l.391-1.961-.787-.4-.391.4-.391-1.179-.787.391h-1.174l-.787-.783-1.179,1.174-.783.4-.391-.787-.787,1.57h-.787l-.391,2.357.167.8Z" transform="translate(-187.434 -196.285)" fill="#e5d1bd"/>
    <rect id="Rectangle_1767" data-name="Rectangle 1767" width="49.07" height="12.956" transform="translate(131.936 128.924)" fill="#fff"/>
    <ellipse id="Ellipse_103" data-name="Ellipse 103" cx="0.29" cy="0.462" rx="0.29" ry="0.462" transform="translate(151.618 161.463) rotate(-78.93)" fill="#2a1000"/>
    <ellipse id="Ellipse_104" data-name="Ellipse 104" cx="0.462" cy="0.251" rx="0.462" ry="0.251" transform="translate(154.445 161.165) rotate(-20.42)" fill="#2a1000"/>
    <path id="Path_2493" data-name="Path 2493" d="M313.65,298.82l.708,6.227a.677.677,0,0,0,.66.66.664.664,0,0,0,.66-.66l-.708-6.227a.677.677,0,0,0-.66-.66A.664.664,0,0,0,313.65,298.82Z" transform="translate(-175.434 -166.615)" fill="#666"/>
    <path id="Path_2494" data-name="Path 2494" d="M311.337,298.552a8.521,8.521,0,0,1,1.284-.259,2.362,2.362,0,0,1,1.2.035c.3.15.145.361.048.62l-.532,1.464a.66.66,0,0,0,.633.836l1.363-.031a3.807,3.807,0,0,1,1.183,0c.361.119.673.95.44,1.231a1.368,1.368,0,0,1-.695.295c-.413.1-.836.18-1.249.264-.9.172-1.8.321-2.713.44a.686.686,0,0,0-.66.66c0,.321.3.708.66.66,1.192-.154,2.384-.347,3.562-.589.88-.18,2.027-.378,2.384-1.359a2.471,2.471,0,0,0-.88-2.661,2.757,2.757,0,0,0-1.636-.286l-1.733.04.638.836a16.273,16.273,0,0,0,.673-1.882,1.522,1.522,0,0,0-.633-1.592,2.6,2.6,0,0,0-1.733-.317,9.953,9.953,0,0,0-1.935.334.66.66,0,0,0,.352,1.271Z" transform="translate(-173.693 -165.921)" fill="#666"/>
    <path id="Path_2495" data-name="Path 2495" d="M327.5,299.673l.035.026.1.075.211.167c.141.114.281.229.44.347.286.237.563.484.84.734.541.5,1.055,1.016,1.552,1.557a.664.664,0,0,0,.932,0,.673.673,0,0,0,0-.932,26.661,26.661,0,0,0-3.417-3.114.655.655,0,0,0-.9.237.682.682,0,0,0,.233.9Z" transform="translate(-183.026 -166.773)" fill="#666"/>
    <path id="Path_2496" data-name="Path 2496" d="M336.692,298.312a35.113,35.113,0,0,0-1.113,7.591c-.035.849,1.284.849,1.319,0a33.62,33.62,0,0,1,1.064-7.243.66.66,0,0,0-1.271-.347Z" transform="translate(-187.719 -166.446)" fill="#666"/>
    <path id="Path_2497" data-name="Path 2497" d="M347.646,297.388a21.512,21.512,0,0,0,.29,5.277.662.662,0,1,0,1.275-.352,19.939,19.939,0,0,1-.246-4.934.66.66,0,1,0-1.319,0Z" transform="translate(-194.451 -165.808)" fill="#666"/>
    <path id="Path_2498" data-name="Path 2498" d="M345.216,296.687A3.585,3.585,0,0,1,346.5,296a2.459,2.459,0,0,1,1.319-.128c.295.11.4.594.4.88a1.473,1.473,0,0,1-.378,1.047.664.664,0,0,0,.8,1.038c.545-.242,2.168.6,1.412,1.2a4.1,4.1,0,0,1-1.7.541q-1.042.246-2.1.409a.664.664,0,0,0-.44.809.673.673,0,0,0,.814.462c.95-.15,1.9-.343,2.828-.585a2.575,2.575,0,0,0,2.08-1.517,1.943,1.943,0,0,0-1.033-2.164,2.6,2.6,0,0,0-2.511-.29l.8,1.033c.954-1.038,1.126-3.03-.158-3.914a2.938,2.938,0,0,0-2.269-.136,5.1,5.1,0,0,0-2.076,1.086.664.664,0,0,0,0,.932.677.677,0,0,0,.932,0Z" transform="translate(-192.496 -164.574)" fill="#666"/>
    <path id="Path_2499" data-name="Path 2499" d="M365.261,296.237a9.055,9.055,0,0,0-.62,3.6,3.81,3.81,0,0,0,.224,1.662,2.311,2.311,0,0,0,1.429,1.06,2.1,2.1,0,0,0,1.847-.1,3.228,3.228,0,0,0,1.148-1.223,4.786,4.786,0,0,0,.563-1.592,3.114,3.114,0,0,0-.1-1.869,3.017,3.017,0,0,0-1.4-1.319,3.773,3.773,0,0,0-1.909-.383.677.677,0,0,0-.66.66.66.66,0,0,0,.66.66,2.388,2.388,0,0,1,1.992.752,1.183,1.183,0,0,1,.172,1,4.4,4.4,0,0,1-.273,1.055,2.67,2.67,0,0,1-.642.954.783.783,0,0,1-.853.185,3.515,3.515,0,0,1-.563-.233.506.506,0,0,1-.229-.2,3.6,3.6,0,0,1-.084-1.082,7.476,7.476,0,0,1,.44-2.938.682.682,0,0,0-.237-.9.66.66,0,0,0-.9.237Z" transform="translate(-203.992 -165.347)" fill="#666"/>
    <path id="Path_2500" data-name="Path 2500" d="M380.121,302.3q-.04,1.319.026,2.608a.66.66,0,0,0,1.319,0q-.066-1.319-.026-2.608a.66.66,0,0,0-.66-.66.673.673,0,0,0-.66.66Z" transform="translate(-212.664 -168.565)" fill="#666"/>
    <path id="Path_2501" data-name="Path 2501" d="M380.048,295.674a1.761,1.761,0,0,0,.246-.075,3.007,3.007,0,0,0,.369-.158l.088-.057a1.142,1.142,0,0,0,.2-.163.982.982,0,0,0,.211-.356.743.743,0,0,0,.04-.259.8.8,0,0,0-.035-.246.951.951,0,0,0-.2-.347.709.709,0,0,0-.123-.105l-.1-.07a1.809,1.809,0,0,0-.193-.088l-.084-.022a1,1,0,0,0-.259-.026,1.574,1.574,0,0,0-.207.031l-.119.048a.633.633,0,0,0-.163.084,1.051,1.051,0,0,0-.2.167,1.459,1.459,0,0,0-.163.215,1.835,1.835,0,0,0-.114.251l-.04.114a.761.761,0,0,0,.07.51.519.519,0,0,0,.167.185.555.555,0,0,0,.224.119l.176.022a.69.69,0,0,0,.334-.088.7.7,0,0,0,.3-.4.5.5,0,0,1,.04-.114l-.07.154a1.023,1.023,0,0,1,.088-.15l-.106.136a.8.8,0,0,1,.084-.088l-.132.106a.471.471,0,0,1,.092-.057l-.158.07.07-.022-.176.022h.079l-.176-.026a.291.291,0,0,1,.088.026l-.158-.07.07.04-.136-.1a.323.323,0,0,1,.057.053l-.106-.132a.179.179,0,0,1,.031.048l-.066-.158v.057l-.022-.176v.048l.022-.176v.057l.066-.158a.249.249,0,0,1-.035.057l.1-.132a.531.531,0,0,1-.07.07l.132-.106a1.281,1.281,0,0,1-.216.119l.158-.066a2.067,2.067,0,0,1-.33.106.44.44,0,0,0-.224.114.575.575,0,0,0-.172.185.44.44,0,0,0-.075.246.488.488,0,0,0,0,.264.682.682,0,0,0,.3.4l.158.066a.682.682,0,0,0,.352,0Z" transform="translate(-212.147 -164.116)" fill="#666"/>
    <path id="Path_2502" data-name="Path 2502" d="M391.066,294.9a2.215,2.215,0,0,0-2.173,1.926,2.9,2.9,0,0,0,.026,1.676c.259.519.945.646,1.442.84l.88.343c.145.057.5.136.589.277.154.242-.259.563-.4.686-.673.541-1.715,1.161-2.6.77a.69.69,0,0,0-.906.237.668.668,0,0,0,.237.88,3.545,3.545,0,0,0,3.36-.369c.88-.554,2.049-1.5,1.544-2.7a1.948,1.948,0,0,0-1.231-.981c-.589-.233-1.183-.44-1.759-.686-.128-.04-.163-.053-.1-.044.132.273.185.308.158.114v-.339a2.09,2.09,0,0,1,.154-.8.8.8,0,0,1,.783-.532.66.66,0,0,0,.66-.66.673.673,0,0,0-.66-.66Z" transform="translate(-216.999 -164.778)" fill="#666"/>
    <path id="Path_2503" data-name="Path 2503" d="M36.476,324.822l5.493-9.029,12.564,6.671-5.889-10.99,5.889-7.067h-10.6L37.65,295.77l-1.174,10.994L29.8,310.3l6.676,2.749Z" transform="translate(-16.415 -165.276)" fill="#e2c3de"/>
    <path id="Path_2504" data-name="Path 2504" d="M33.229,390.64l-4.319,4.71h4.319v4.319l3.923-5.5,5.106.787-4.319-4.319,1.961-4.319-4.319,1.57-5.1-1.961Z" transform="translate(-15.916 -215.786)" fill="#e2c3de"/>
    <path id="Path_2505" data-name="Path 2505" d="M86.891,373.856,83.36,377h5.1v7.063l3.927-6.28,6.28.4-5.889-3.14,2.749-4.714L91.21,371.5l-5.889-4.319Z" transform="translate(-46.42 -205.282)" fill="#e2c3de"/>
    <path id="Path_2506" data-name="Path 2506" d="M139.829,392.026c2.709,7.881,59.132,4.912,60.417-3.149.128-.8-.352-1.245-1.416-2.753-6.777-9.631-4.2-15.5-8.022-20.08-6.891-8.228-31.36-8.479-38.7-.391-3.958,4.354-.818,8.8-6.6,18.106C141.914,389.523,139.218,390.24,139.829,392.026Z" transform="translate(-78.007 -201.106)" fill="#473124"/>
    <path id="Path_2507" data-name="Path 2507" d="M179.267,418.32c1.491,10.489,5.4,15.045,8.637,17.274,3.043,2.089,3.958,1.055,11.777,4.71,9.772,4.556,11.808,7.78,12.542,10.207a8.241,8.241,0,0,1,.4,3.923c-1.891,9.785-30.96,11.874-40.824,12.564-16.813,1.2-26.052,2.107-29.052-3.14-2.735-4.8.616-13.026,4.71-17.666,3.883-4.4,6.935-3.888,10.994-7.85,2.995-2.929,6.377-8.136,7.063-18.057" transform="translate(-79.132 -233.932)" fill="#f2ddce"/>
    <path id="Path_2508" data-name="Path 2508" d="M164.232,314.975c-8.505,4.688-10.814,14.174-11.315,16.237-2.458,10.093,2.749,19.865,3.518,21.316,1.1,2.063,8.98,16.2,21.677,15.784,11.3-.374,17.45-11.979,19.1-15.084,1.223-2.3,8.87-15.942,2.265-27.706C193.046,314.069,175.71,308.647,164.232,314.975Z" transform="translate(-85.021 -174.534)" fill="#f9e5d4"/>
    <path id="Path_2509" data-name="Path 2509" d="M173.125,363.446c.633.506,1.368.818,3.69,1,2.885.229,4.367.321,6-.629.62-.365,1.508-.88,1.557-1.662.075-1.231-2.023-2.26-2.885-2.691a7.371,7.371,0,0,0-4.437-1.033,8.3,8.3,0,0,0-4.569,2.423l-.778.831A5.431,5.431,0,0,0,173.125,363.446Z" transform="translate(-95.91 -200.356)" fill="#fff"/>
    <path id="Path_2510" data-name="Path 2510" d="M179.157,364.536c-.787,0-1.68-.07-2.757-.154-2.348-.185-3.131-.5-3.83-1.06h0a5.677,5.677,0,0,1-1.5-1.856l-.084-.163.123-.128.778-.831a8.492,8.492,0,0,1,4.728-2.485,7.6,7.6,0,0,1,4.582,1.055l.057.026c.989.5,3.048,1.535,2.968,2.907-.057.915-1.038,1.491-1.684,1.869a6.227,6.227,0,0,1-3.386.818Zm-7.547-3.149a5.084,5.084,0,0,0,1.275,1.539h0c.616.493,1.319.774,3.553.946,2.951.233,4.319.3,5.849-.594.585-.343,1.39-.814,1.429-1.456.062-1.042-1.935-2.045-2.687-2.423l-.057-.031a7.092,7.092,0,0,0-4.292-1,8.1,8.1,0,0,0-4.4,2.326h0Z" transform="translate(-95.513 -200.034)" fill="#070707"/>
    <path id="Path_2511" data-name="Path 2511" d="M174.29,358.759l-.18-.18a8.232,8.232,0,0,1,5.3-2.353,9.543,9.543,0,0,1,3.778.585,8.756,8.756,0,0,1,2.639,1.469l-.158.2a8.511,8.511,0,0,0-2.573-1.429,9.408,9.408,0,0,0-3.681-.572A8.008,8.008,0,0,0,174.29,358.759Z" transform="translate(-97.26 -199.139)" fill="#070707"/>
    <ellipse id="Ellipse_105" data-name="Ellipse 105" cx="2.933" cy="2.705" rx="2.933" ry="2.705" transform="translate(79.286 158.27)" fill="#7ca3bf"/>
    <path id="Path_2512" data-name="Path 2512" d="M182.813,364.257A2.969,2.969,0,1,1,186,361.3,3.078,3.078,0,0,1,182.813,364.257Zm0-5.409a2.458,2.458,0,1,0,2.678,2.45A2.573,2.573,0,0,0,182.813,358.848Z" transform="translate(-100.594 -200.323)" fill="#2a1000"/>
    <ellipse id="Ellipse_106" data-name="Ellipse 106" cx="1.003" cy="1.416" rx="1.003" ry="1.416" transform="translate(81.498 159.255)"/>
    <path id="Path_2513" data-name="Path 2513" d="M185.4,363.932c-.708,0-1.258-.734-1.258-1.671s.55-1.671,1.258-1.671,1.258.734,1.258,1.671S186.084,363.932,185.4,363.932Zm0-2.832c-.409,0-.752.532-.752,1.161s.312,1.148.752,1.148.748-.532.748-1.161S185.785,361.1,185.4,361.1Z" transform="translate(-102.879 -201.59)" fill="#2a1000"/>
    <ellipse id="Ellipse_107" data-name="Ellipse 107" cx="0.616" cy="0.396" rx="0.616" ry="0.396" transform="matrix(0.769, -0.639, 0.639, 0.769, 81.749, 160.146)" fill="#e2e1e0"/>
    <path id="Path_2514" data-name="Path 2514" d="M227.3,364.761c.664.44,1.42.7,3.751.734,2.889.04,4.376.04,5.941-.985.6-.391,1.451-.95,1.451-1.7,0-1.2-2.164-2.058-3.048-2.419a7.549,7.549,0,0,0-4.495-.721,8.417,8.417,0,0,0-4.4,2.612l-.726.853A5.436,5.436,0,0,0,227.3,364.761Z" transform="translate(-126.207 -201.016)" fill="#fff"/>
    <path id="Path_2515" data-name="Path 2515" d="M232,365.46h-1.363c-2.353-.031-3.158-.286-3.888-.778a5.612,5.612,0,0,1-1.61-1.706l-.1-.154.844-.994a8.54,8.54,0,0,1,4.556-2.7,7.814,7.814,0,0,1,4.64.73l.057.022c1.02.44,3.14,1.293,3.149,2.639,0,.88-.941,1.508-1.566,1.913A7.916,7.916,0,0,1,232,365.46Zm-6.328-2.608a5.012,5.012,0,0,0,1.359,1.394h0c.651.44,1.39.664,3.611.69,2.96.04,4.332,0,5.805-.941.532-.352,1.319-.88,1.319-1.491,0-1-2.058-1.843-2.832-2.164h-.057a7.311,7.311,0,0,0-4.354-.7,8.224,8.224,0,0,0-4.261,2.529Z" transform="translate(-125.793 -200.712)" fill="#070707"/>
    <ellipse id="Ellipse_108" data-name="Ellipse 108" cx="3.008" cy="2.775" rx="3.008" ry="2.775" transform="translate(102.981 158.618)" fill="#7ca3bf"/>
    <path id="Path_2516" data-name="Path 2516" d="M236.784,365.2a3.039,3.039,0,1,1,3.263-3.03A3.162,3.162,0,0,1,236.784,365.2Zm0-5.554a2.533,2.533,0,1,0,2.753,2.524,2.639,2.639,0,0,0-2.753-2.524Z" transform="translate(-130.795 -200.771)" fill="#2a1000"/>
    <ellipse id="Ellipse_109" data-name="Ellipse 109" cx="1.029" cy="1.456" rx="1.029" ry="1.456" transform="translate(105.25 159.629)"/>
    <path id="Path_2517" data-name="Path 2517" d="M239.359,364.857c-.721,0-1.289-.748-1.289-1.706s.567-1.711,1.289-1.711,1.284.752,1.284,1.711S240.089,364.857,239.359,364.857Zm0-2.907c-.44,0-.778.55-.778,1.2s.356,1.2.778,1.2.774-.55.774-1.2S239.8,361.95,239.359,361.95Z" transform="translate(-133.092 -202.066)" fill="#2a1000"/>
    <ellipse id="Ellipse_110" data-name="Ellipse 110" cx="0.633" cy="0.405" rx="0.633" ry="0.405" transform="matrix(0.769, -0.639, 0.639, 0.769, 105.51, 160.545)" fill="#e2e1e0"/>
    <path id="Path_2518" data-name="Path 2518" d="M225.23,360.538l-.18-.176a8.277,8.277,0,0,1,5.3-2.375,9.628,9.628,0,0,1,3.782.589,8.8,8.8,0,0,1,2.639,1.469l-.163.2a8.51,8.51,0,0,0-2.573-1.429,9.293,9.293,0,0,0-3.677-.572A8.026,8.026,0,0,0,225.23,360.538Z" transform="translate(-125.798 -200.126)" fill="#070707"/>
    <path id="Path_2519" data-name="Path 2519" d="M182.754,350.792a.69.69,0,0,1,.506.215c.277.365-.114,1.1-.312,1.434l-2.142-.369c-1.478-.255-2.2-.4-3.18-.625a10.826,10.826,0,0,0-3.734-.51c-.268.026-.479.062-.655.092a12.41,12.41,0,0,0-2.964.919c-2.23.954-3.052,1.469-3.1,1.385a17.449,17.449,0,0,1,3.69-2.538,9.162,9.162,0,0,1,1.948-.9c1.069-.3,1.588-.141,3.861.04C178.708,350.1,180.727,350.625,182.754,350.792Z" transform="translate(-93.371 -195.503)" fill="#4c3526"/>
    <path id="Path_2520" data-name="Path 2520" d="M226.309,351.627a1.24,1.24,0,0,0,.44,1.359c.2.1.532.031,1.209-.1l.616-.136c.22-.048.5-.11.858-.18.607-.123,1.464-.22,1.728-.251a22.647,22.647,0,0,0,2.45-.55,13.121,13.121,0,0,1,3-.506,7.12,7.12,0,0,1,3.259,1.223c.642.418,1.1.844,1.117.814a17.192,17.192,0,0,0-1.61-1.561c-.778-.7-1.17-1.055-1.376-1.2-1.183-.836-2.59-.321-4.961.048C228.781,351.244,226.674,350.62,226.309,351.627Z" transform="translate(-126.472 -195.705)" fill="#4c3526"/>
    <g id="Group_481" data-name="Group 481" transform="translate(108.465 158.112)" clip-path="url(#clip-path-3)">
      <path id="Path_2521" data-name="Path 2521" d="M246.233,358.57,246,359.85v-1.28Z" transform="translate(-246 -358.57)" fill="#212023"/>
      <path id="Path_2522" data-name="Path 2522" d="M246.251,358.57l-.237,1.28H246l.233-1.28Z" transform="translate(-246 -358.57)" fill="#212023"/>
      <path id="Path_2523" data-name="Path 2523" d="M246.281,358.57l-.233,1.28h-.018l.237-1.28Z" transform="translate(-246.017 -358.57)" fill="#212023"/>
      <path id="Path_2524" data-name="Path 2524" d="M246.321,358.57l-.237,1.28h-.013l.233-1.28Z" transform="translate(-246.039 -358.57)" fill="#212023"/>
      <path id="Path_2525" data-name="Path 2525" d="M246.351,358.57l-.233,1.28H246.1l.237-1.28Z" transform="translate(-246.056 -358.57)" fill="#212023"/>
      <path id="Path_2526" data-name="Path 2526" d="M246.391,358.57l-.233,1.28h-.018l.233-1.28Z" transform="translate(-246.078 -358.57)" fill="#212023"/>
      <path id="Path_2527" data-name="Path 2527" d="M246.426,358.57l-.233,1.28h-.013l.233-1.28Z" transform="translate(-246.101 -358.57)" fill="#212023"/>
      <path id="Path_2528" data-name="Path 2528" d="M246.461,358.57l-.233,1.28h-.018l.233-1.28Z" transform="translate(-246.118 -358.57)" fill="#212023"/>
      <path id="Path_2529" data-name="Path 2529" d="M246.5,358.57l-.233,1.28h-.013l.233-1.28Z" transform="translate(-246.14 -358.57)" fill="#212023"/>
      <path id="Path_2530" data-name="Path 2530" d="M246.531,358.57l-.233,1.28h-.018l.233-1.28Z" transform="translate(-246.157 -358.57)" fill="#212023"/>
      <path id="Path_2531" data-name="Path 2531" d="M246.566,358.57l-.233,1.28h-.013l.233-1.28Z" transform="translate(-246.179 -358.57)" fill="#212023"/>
      <path id="Path_2532" data-name="Path 2532" d="M246.6,358.57l-.233,1.28h-.018l.233-1.28Z" transform="translate(-246.196 -358.57)" fill="#212023"/>
      <path id="Path_2533" data-name="Path 2533" d="M246.641,358.57l-.237,1.28h-.013l.233-1.28Z" transform="translate(-246.218 -358.57)" fill="#212024"/>
      <path id="Path_2534" data-name="Path 2534" d="M246.671,358.57l-.233,1.28h-.018l.237-1.28Z" transform="translate(-246.235 -358.57)" fill="#222124"/>
      <path id="Path_2535" data-name="Path 2535" d="M246.711,358.57l-.237,1.28h-.013l.233-1.28Z" transform="translate(-246.258 -358.57)" fill="#222124"/>
      <path id="Path_2536" data-name="Path 2536" d="M246.741,358.57l-.233,1.28h-.018l.237-1.28Z" transform="translate(-246.275 -358.57)" fill="#222124"/>
      <path id="Path_2537" data-name="Path 2537" d="M246.781,358.57l-.237,1.28h-.013l.233-1.28Z" transform="translate(-246.297 -358.57)" fill="#232225"/>
      <path id="Path_2538" data-name="Path 2538" d="M246.811,358.57l-.233,1.28h-.018l.237-1.28Z" transform="translate(-246.314 -358.57)" fill="#232225"/>
      <path id="Path_2539" data-name="Path 2539" d="M246.851,358.57l-.233,1.28H246.6l.233-1.28Z" transform="translate(-246.336 -358.57)" fill="#242326"/>
      <path id="Path_2540" data-name="Path 2540" d="M246.886,358.57l-.233,1.28h-.013l.233-1.28Z" transform="translate(-246.359 -358.57)" fill="#242326"/>
      <path id="Path_2541" data-name="Path 2541" d="M246.921,358.57l-.233,1.28h-.018l.233-1.28Z" transform="translate(-246.375 -358.57)" fill="#252427"/>
      <path id="Path_2542" data-name="Path 2542" d="M246.961,358.57l-.237,1.28h-.013l.233-1.28Z" transform="translate(-246.398 -358.57)" fill="#262528"/>
      <path id="Path_2543" data-name="Path 2543" d="M246.991,358.57l-.233,1.28h-.018l.237-1.28Z" transform="translate(-246.415 -358.57)" fill="#272629"/>
      <path id="Path_2544" data-name="Path 2544" d="M247.031,358.57l-.237,1.28h-.013l.233-1.28Z" transform="translate(-246.437 -358.57)" fill="#28272b"/>
      <path id="Path_2545" data-name="Path 2545" d="M247.061,358.57l-.233,1.28h-.018l.237-1.28Z" transform="translate(-246.454 -358.57)" fill="#29282c"/>
      <path id="Path_2546" data-name="Path 2546" d="M247.1,358.57l-.237,1.28h-.013l.233-1.28Z" transform="translate(-246.476 -358.57)" fill="#2b2a2e"/>
      <path id="Path_2547" data-name="Path 2547" d="M247.131,358.57l-.233,1.28h-.018l.237-1.28Z" transform="translate(-246.493 -358.57)" fill="#2d2b30"/>
      <path id="Path_2548" data-name="Path 2548" d="M247.171,358.57l-.233,1.28h-.018l.233-1.28Z" transform="translate(-246.515 -358.57)" fill="#2f2d32"/>
      <path id="Path_2549" data-name="Path 2549" d="M247.206,358.57l-.233,1.28h-.013l.233-1.28Z" transform="translate(-246.538 -358.57)" fill="#312f34"/>
      <path id="Path_2550" data-name="Path 2550" d="M247.241,358.57l-.233,1.28h-.018l.233-1.28Z" transform="translate(-246.555 -358.57)" fill="#333237"/>
      <path id="Path_2551" data-name="Path 2551" d="M247.276,358.57l-.233,1.28h-.013l.233-1.28Z" transform="translate(-246.577 -358.57)" fill="#363439"/>
      <path id="Path_2552" data-name="Path 2552" d="M247.311,358.57l-.233,1.28h-.018l.233-1.28Z" transform="translate(-246.594 -358.57)" fill="#39373d"/>
      <path id="Path_2553" data-name="Path 2553" d="M247.346,358.57l-.233,1.28H247.1l.233-1.28Z" transform="translate(-246.616 -358.57)" fill="#3c3a40"/>
      <path id="Path_2554" data-name="Path 2554" d="M247.381,358.57l-.233,1.28h-.018l.233-1.28Z" transform="translate(-246.633 -358.57)" fill="#403e44"/>
      <path id="Path_2555" data-name="Path 2555" d="M247.17,359.85l.233-1.28v1.28Z" transform="translate(-246.655 -358.57)" fill="#403e44"/>
    </g>
    <path id="Path_2557" data-name="Path 2557" d="M245.1,359.03l.519-1.24,1.042-1.209-.286,1.535-.356.827Z" transform="translate(-137.031 -199.343)" fill="url(#linear-gradient-4)"/>
    <g id="Group_482" data-name="Group 482" transform="translate(109.252 158.182)" clip-path="url(#clip-path-4)">
      <path id="Path_2558" data-name="Path 2558" d="M248,358.73l-.207,1.126V358.73Z" transform="translate(-247.79 -358.73)" fill="#212023"/>
      <path id="Path_2559" data-name="Path 2559" d="M248.019,358.73l-.229,1.253v-.128L248,358.73Z" transform="translate(-247.79 -358.73)" fill="#212023"/>
      <path id="Path_2560" data-name="Path 2560" d="M248.045,358.73l-.246,1.328h-.009v-.075l.229-1.253Z" transform="translate(-247.79 -358.73)" fill="#212023"/>
      <path id="Path_2561" data-name="Path 2561" d="M248.078,358.73l-.242,1.328h-.026l.246-1.328Z" transform="translate(-247.801 -358.73)" fill="#212023"/>
      <path id="Path_2562" data-name="Path 2562" d="M248.134,358.73l-.242,1.328h-.022l.242-1.328Z" transform="translate(-247.835 -358.73)" fill="#212023"/>
      <path id="Path_2563" data-name="Path 2563" d="M248.188,358.73l-.246,1.328h-.022l.242-1.328Z" transform="translate(-247.863 -358.73)" fill="#212023"/>
      <path id="Path_2564" data-name="Path 2564" d="M248.238,358.73l-.246,1.328h-.022l.246-1.328Z" transform="translate(-247.891 -358.73)" fill="#212023"/>
      <path id="Path_2565" data-name="Path 2565" d="M248.288,358.73l-.242,1.328h-.026l.246-1.328Z" transform="translate(-247.919 -358.73)" fill="#212023"/>
      <path id="Path_2566" data-name="Path 2566" d="M248.344,358.73l-.242,1.328h-.022l.242-1.328Z" transform="translate(-247.952 -358.73)" fill="#212023"/>
      <path id="Path_2567" data-name="Path 2567" d="M248.4,358.73l-.246,1.328h-.022l.242-1.328Z" transform="translate(-247.98 -358.73)" fill="#212023"/>
      <path id="Path_2568" data-name="Path 2568" d="M248.448,358.73l-.242,1.328h-.026l.246-1.328Z" transform="translate(-248.008 -358.73)" fill="#212023"/>
      <path id="Path_2569" data-name="Path 2569" d="M248.5,358.73l-.242,1.328h-.022l.242-1.328Z" transform="translate(-248.042 -358.73)" fill="#212023"/>
      <path id="Path_2570" data-name="Path 2570" d="M248.558,358.73l-.246,1.328h-.022l.242-1.328Z" transform="translate(-248.07 -358.73)" fill="#212024"/>
      <path id="Path_2571" data-name="Path 2571" d="M248.608,358.73l-.246,1.328h-.022l.246-1.328Z" transform="translate(-248.098 -358.73)" fill="#222124"/>
      <path id="Path_2572" data-name="Path 2572" d="M248.658,358.73l-.242,1.328h-.026l.246-1.328Z" transform="translate(-248.126 -358.73)" fill="#222124"/>
      <path id="Path_2573" data-name="Path 2573" d="M248.714,358.73l-.242,1.328h-.022l.242-1.328Z" transform="translate(-248.16 -358.73)" fill="#222124"/>
      <path id="Path_2574" data-name="Path 2574" d="M248.768,358.73l-.246,1.328H248.5l.242-1.328Z" transform="translate(-248.188 -358.73)" fill="#232225"/>
      <path id="Path_2575" data-name="Path 2575" d="M248.818,358.73l-.242,1.328h-.026l.246-1.328Z" transform="translate(-248.216 -358.73)" fill="#232225"/>
      <path id="Path_2576" data-name="Path 2576" d="M248.874,358.73l-.242,1.328h-.022l.242-1.328Z" transform="translate(-248.249 -358.73)" fill="#242326"/>
      <path id="Path_2577" data-name="Path 2577" d="M248.924,358.73l-.242,1.328h-.022l.242-1.328Z" transform="translate(-248.277 -358.73)" fill="#242326"/>
      <path id="Path_2578" data-name="Path 2578" d="M248.978,358.73l-.246,1.328h-.022l.242-1.328Z" transform="translate(-248.305 -358.73)" fill="#252427"/>
      <path id="Path_2579" data-name="Path 2579" d="M249.028,358.73l-.242,1.328h-.026l.246-1.328Z" transform="translate(-248.333 -358.73)" fill="#262528"/>
      <path id="Path_2580" data-name="Path 2580" d="M249.084,358.73l-.242,1.328h-.022l.242-1.328Z" transform="translate(-248.367 -358.73)" fill="#272629"/>
      <path id="Path_2581" data-name="Path 2581" d="M249.138,358.73l-.246,1.328h-.022l.242-1.328Z" transform="translate(-248.395 -358.73)" fill="#28272b"/>
      <path id="Path_2582" data-name="Path 2582" d="M249.188,358.73l-.242,1.328h-.026l.246-1.328Z" transform="translate(-248.423 -358.73)" fill="#29282c"/>
      <path id="Path_2583" data-name="Path 2583" d="M249.244,358.73,249,360.058h-.022l.242-1.328Z" transform="translate(-248.457 -358.73)" fill="#2b2a2e"/>
      <path id="Path_2584" data-name="Path 2584" d="M249.3,358.73l-.246,1.328h-.022l.242-1.328Z" transform="translate(-248.485 -358.73)" fill="#2d2b30"/>
      <path id="Path_2585" data-name="Path 2585" d="M249.348,358.73l-.246,1.328h-.022l.246-1.328Z" transform="translate(-248.513 -358.73)" fill="#2f2d32"/>
      <path id="Path_2586" data-name="Path 2586" d="M249.4,358.73l-.242,1.328h-.026l.246-1.328Z" transform="translate(-248.541 -358.73)" fill="#312f34"/>
      <path id="Path_2587" data-name="Path 2587" d="M249.454,358.73l-.242,1.328h-.022l.242-1.328Z" transform="translate(-248.574 -358.73)" fill="#333237"/>
      <path id="Path_2588" data-name="Path 2588" d="M249.508,358.73l-.246,1.328h-.022l.242-1.328Z" transform="translate(-248.602 -358.73)" fill="#363439"/>
      <path id="Path_2589" data-name="Path 2589" d="M249.558,358.73l-.242,1.328h-.026l.246-1.328Z" transform="translate(-248.63 -358.73)" fill="#39373d"/>
      <path id="Path_2590" data-name="Path 2590" d="M249.614,358.73l-.242,1.328h-.022l.242-1.328Z" transform="translate(-248.664 -358.73)" fill="#3c3a40"/>
      <path id="Path_2591" data-name="Path 2591" d="M249.668,358.73l-.246,1.328H249.4l.242-1.328Z" transform="translate(-248.692 -358.73)" fill="#403e44"/>
      <path id="Path_2592" data-name="Path 2592" d="M249.45,360.058l.246-1.328v1.328Z" transform="translate(-248.72 -358.73)" fill="#403e44"/>
    </g>
    <path id="Path_2594" data-name="Path 2594" d="M247.763,359.549l-.853-.44.589-.778.427-.479.726-.611-.163.88-.343.906Z" transform="translate(-138.045 -199.713)" fill="url(#linear-gradient-5)"/>
    <g id="Group_483" data-name="Group 483" transform="translate(109.806 158.543)" clip-path="url(#clip-path-5)">
      <path id="Path_2595" data-name="Path 2595" d="M249.279,359.55l-.229,1.253V359.55Z" transform="translate(-249.05 -359.55)" fill="#212023"/>
      <path id="Path_2596" data-name="Path 2596" d="M249.327,359.55l-.277,1.5V360.8l.229-1.253Z" transform="translate(-249.05 -359.55)" fill="#212023"/>
      <path id="Path_2597" data-name="Path 2597" d="M249.371,359.55l-.281,1.552h-.04v-.048l.277-1.5Z" transform="translate(-249.05 -359.55)" fill="#212023"/>
      <path id="Path_2598" data-name="Path 2598" d="M249.47,359.55l-.286,1.552h-.044l.281-1.552Z" transform="translate(-249.1 -359.55)" fill="#212023"/>
      <path id="Path_2599" data-name="Path 2599" d="M249.574,359.55l-.286,1.552h-.048l.286-1.552Z" transform="translate(-249.156 -359.55)" fill="#212023"/>
      <path id="Path_2600" data-name="Path 2600" d="M249.68,359.55,249.4,361.1h-.048l.286-1.552Z" transform="translate(-249.218 -359.55)" fill="#212023"/>
      <path id="Path_2601" data-name="Path 2601" d="M249.79,359.55,249.5,361.1h-.044l.281-1.552Z" transform="translate(-249.28 -359.55)" fill="#212023"/>
      <path id="Path_2602" data-name="Path 2602" d="M249.89,359.55l-.281,1.552h-.048l.286-1.552Z" transform="translate(-249.336 -359.55)" fill="#212023"/>
      <path id="Path_2603" data-name="Path 2603" d="M250,359.55l-.286,1.552h-.044l.281-1.552Z" transform="translate(-249.397 -359.55)" fill="#212023"/>
      <path id="Path_2604" data-name="Path 2604" d="M250.1,359.55l-.281,1.552h-.048l.286-1.552Z" transform="translate(-249.453 -359.55)" fill="#212023"/>
      <path id="Path_2605" data-name="Path 2605" d="M250.21,359.55l-.286,1.552h-.044l.281-1.552Z" transform="translate(-249.515 -359.55)" fill="#212023"/>
      <path id="Path_2606" data-name="Path 2606" d="M250.31,359.55l-.281,1.552h-.048l.286-1.552Z" transform="translate(-249.571 -359.55)" fill="#212023"/>
      <path id="Path_2607" data-name="Path 2607" d="M250.42,359.55l-.286,1.552h-.044l.281-1.552Z" transform="translate(-249.633 -359.55)" fill="#212024"/>
      <path id="Path_2608" data-name="Path 2608" d="M250.52,359.55l-.281,1.552h-.048l.286-1.552Z" transform="translate(-249.689 -359.55)" fill="#222124"/>
      <path id="Path_2609" data-name="Path 2609" d="M250.63,359.55l-.286,1.552H250.3l.281-1.552Z" transform="translate(-249.75 -359.55)" fill="#222124"/>
      <path id="Path_2610" data-name="Path 2610" d="M250.734,359.55l-.286,1.552H250.4l.286-1.552Z" transform="translate(-249.806 -359.55)" fill="#222124"/>
      <path id="Path_2611" data-name="Path 2611" d="M250.84,359.55l-.281,1.552h-.048l.286-1.552Z" transform="translate(-249.868 -359.55)" fill="#232225"/>
      <path id="Path_2612" data-name="Path 2612" d="M250.95,359.55l-.286,1.552h-.044l.281-1.552Z" transform="translate(-249.93 -359.55)" fill="#232225"/>
      <path id="Path_2613" data-name="Path 2613" d="M251.05,359.55l-.281,1.552h-.048l.286-1.552Z" transform="translate(-249.986 -359.55)" fill="#242326"/>
      <path id="Path_2614" data-name="Path 2614" d="M251.16,359.55l-.286,1.552h-.044l.281-1.552Z" transform="translate(-250.047 -359.55)" fill="#242326"/>
      <path id="Path_2615" data-name="Path 2615" d="M251.26,359.55l-.281,1.552h-.048l.286-1.552Z" transform="translate(-250.103 -359.55)" fill="#252427"/>
      <path id="Path_2616" data-name="Path 2616" d="M251.37,359.55l-.286,1.552h-.044l.281-1.552Z" transform="translate(-250.165 -359.55)" fill="#262528"/>
      <path id="Path_2617" data-name="Path 2617" d="M251.47,359.55l-.281,1.552h-.048l.286-1.552Z" transform="translate(-250.221 -359.55)" fill="#272629"/>
      <path id="Path_2618" data-name="Path 2618" d="M251.58,359.55l-.286,1.552h-.044l.281-1.552Z" transform="translate(-250.282 -359.55)" fill="#28272b"/>
      <path id="Path_2619" data-name="Path 2619" d="M251.68,359.55,251.4,361.1h-.048l.286-1.552Z" transform="translate(-250.339 -359.55)" fill="#29282c"/>
      <path id="Path_2620" data-name="Path 2620" d="M251.79,359.55,251.5,361.1h-.044l.281-1.552Z" transform="translate(-250.4 -359.55)" fill="#2b2a2e"/>
      <path id="Path_2621" data-name="Path 2621" d="M251.89,359.55l-.281,1.552h-.048l.286-1.552Z" transform="translate(-250.456 -359.55)" fill="#2d2b30"/>
      <path id="Path_2622" data-name="Path 2622" d="M252,359.55l-.281,1.552h-.048l.281-1.552Z" transform="translate(-250.518 -359.55)" fill="#2f2d32"/>
      <path id="Path_2623" data-name="Path 2623" d="M252.11,359.55l-.286,1.552h-.044l.281-1.552Z" transform="translate(-250.579 -359.55)" fill="#312f34"/>
      <path id="Path_2624" data-name="Path 2624" d="M252.21,359.55l-.281,1.552h-.048l.286-1.552Z" transform="translate(-250.635 -359.55)" fill="#333237"/>
      <path id="Path_2625" data-name="Path 2625" d="M252.32,359.55l-.286,1.552h-.044l.281-1.552Z" transform="translate(-250.697 -359.55)" fill="#363439"/>
      <path id="Path_2626" data-name="Path 2626" d="M252.42,359.55l-.281,1.552h-.048l.286-1.552Z" transform="translate(-250.753 -359.55)" fill="#39373d"/>
      <path id="Path_2627" data-name="Path 2627" d="M252.53,359.55l-.286,1.552H252.2l.281-1.552Z" transform="translate(-250.815 -359.55)" fill="#3c3a40"/>
      <path id="Path_2628" data-name="Path 2628" d="M252.63,359.55l-.281,1.552H252.3l.286-1.552Z" transform="translate(-250.871 -359.55)" fill="#403e44"/>
      <path id="Path_2629" data-name="Path 2629" d="M252.41,361.1l.281-1.552V361.1Z" transform="translate(-250.932 -359.55)" fill="#403e44"/>
    </g>
    <path id="Path_2631" data-name="Path 2631" d="M248.919,360.435l-.849-.576.567-.427.519-.194.484-.383,1.016-1.016-.251,1.3-.3.506-.761.589Z" transform="translate(-138.695 -200.049)" fill="url(#linear-gradient-6)"/>
    <g id="Group_484" data-name="Group 484" transform="translate(110.721 159.576)" clip-path="url(#clip-path-6)">
      <path id="Path_2632" data-name="Path 2632" d="M251.24,361.9l-.11.6v-.6Z" transform="translate(-251.13 -361.9)" fill="#212023"/>
      <path id="Path_2633" data-name="Path 2633" d="M251.284,361.9l-.154.849V362.5l.11-.6Z" transform="translate(-251.13 -361.9)" fill="#212023"/>
      <path id="Path_2634" data-name="Path 2634" d="M251.328,361.9l-.163.888h-.035v-.04l.154-.849Z" transform="translate(-251.13 -361.9)" fill="#212023"/>
      <path id="Path_2635" data-name="Path 2635" d="M251.417,361.9l-.163.888h-.044l.163-.888Z" transform="translate(-251.175 -361.9)" fill="#212023"/>
      <path id="Path_2636" data-name="Path 2636" d="M251.517,361.9l-.158.888h-.048l.163-.888Z" transform="translate(-251.231 -361.9)" fill="#212023"/>
      <path id="Path_2637" data-name="Path 2637" d="M251.627,361.9l-.163.888h-.044l.158-.888Z" transform="translate(-251.292 -361.9)" fill="#212023"/>
      <path id="Path_2638" data-name="Path 2638" d="M251.727,361.9l-.163.888h-.044l.163-.888Z" transform="translate(-251.349 -361.9)" fill="#212023"/>
      <path id="Path_2639" data-name="Path 2639" d="M251.827,361.9l-.163.888h-.044l.163-.888Z" transform="translate(-251.405 -361.9)" fill="#212023"/>
      <path id="Path_2640" data-name="Path 2640" d="M251.927,361.9l-.163.888h-.044l.163-.888Z" transform="translate(-251.461 -361.9)" fill="#212023"/>
      <path id="Path_2641" data-name="Path 2641" d="M252.027,361.9l-.158.888h-.048l.163-.888Z" transform="translate(-251.517 -361.9)" fill="#212023"/>
      <path id="Path_2642" data-name="Path 2642" d="M252.137,361.9l-.163.888h-.044l.158-.888Z" transform="translate(-251.578 -361.9)" fill="#212023"/>
      <path id="Path_2643" data-name="Path 2643" d="M252.237,361.9l-.163.888h-.044l.163-.888Z" transform="translate(-251.634 -361.9)" fill="#212023"/>
      <path id="Path_2644" data-name="Path 2644" d="M252.337,361.9l-.163.888h-.044l.163-.888Z" transform="translate(-251.69 -361.9)" fill="#212024"/>
      <path id="Path_2645" data-name="Path 2645" d="M252.437,361.9l-.163.888h-.044l.163-.888Z" transform="translate(-251.746 -361.9)" fill="#222124"/>
      <path id="Path_2646" data-name="Path 2646" d="M252.541,361.9l-.163.888h-.048l.163-.888Z" transform="translate(-251.802 -361.9)" fill="#222124"/>
      <path id="Path_2647" data-name="Path 2647" d="M252.647,361.9l-.163.888h-.044l.163-.888Z" transform="translate(-251.864 -361.9)" fill="#222124"/>
      <path id="Path_2648" data-name="Path 2648" d="M252.747,361.9l-.163.888h-.044l.163-.888Z" transform="translate(-251.92 -361.9)" fill="#232225"/>
      <path id="Path_2649" data-name="Path 2649" d="M252.847,361.9l-.163.888h-.044l.163-.888Z" transform="translate(-251.976 -361.9)" fill="#232225"/>
      <path id="Path_2650" data-name="Path 2650" d="M252.947,361.9l-.163.888h-.044l.163-.888Z" transform="translate(-252.032 -361.9)" fill="#242326"/>
      <path id="Path_2651" data-name="Path 2651" d="M253.051,361.9l-.163.888h-.048L253,361.9Z" transform="translate(-252.088 -361.9)" fill="#242326"/>
      <path id="Path_2652" data-name="Path 2652" d="M253.157,361.9l-.163.888h-.044l.163-.888Z" transform="translate(-252.15 -361.9)" fill="#252427"/>
      <path id="Path_2653" data-name="Path 2653" d="M253.257,361.9l-.163.888h-.044l.163-.888Z" transform="translate(-252.206 -361.9)" fill="#262528"/>
      <path id="Path_2654" data-name="Path 2654" d="M253.357,361.9l-.163.888h-.044l.163-.888Z" transform="translate(-252.262 -361.9)" fill="#272629"/>
      <path id="Path_2655" data-name="Path 2655" d="M253.457,361.9l-.163.888h-.044l.163-.888Z" transform="translate(-252.318 -361.9)" fill="#28272b"/>
      <path id="Path_2656" data-name="Path 2656" d="M253.561,361.9l-.163.888h-.048l.163-.888Z" transform="translate(-252.374 -361.9)" fill="#29282c"/>
      <path id="Path_2657" data-name="Path 2657" d="M253.667,361.9l-.163.888h-.044l.163-.888Z" transform="translate(-252.435 -361.9)" fill="#2b2a2e"/>
      <path id="Path_2658" data-name="Path 2658" d="M253.767,361.9l-.163.888h-.044l.163-.888Z" transform="translate(-252.491 -361.9)" fill="#2d2b30"/>
      <path id="Path_2659" data-name="Path 2659" d="M253.867,361.9l-.163.888h-.044l.163-.888Z" transform="translate(-252.547 -361.9)" fill="#2f2d32"/>
      <path id="Path_2660" data-name="Path 2660" d="M253.967,361.9l-.158.888h-.048l.163-.888Z" transform="translate(-252.603 -361.9)" fill="#312f34"/>
      <path id="Path_2661" data-name="Path 2661" d="M254.077,361.9l-.163.888h-.044l.158-.888Z" transform="translate(-252.665 -361.9)" fill="#333237"/>
      <path id="Path_2662" data-name="Path 2662" d="M254.177,361.9l-.163.888h-.044l.163-.888Z" transform="translate(-252.721 -361.9)" fill="#363439"/>
      <path id="Path_2663" data-name="Path 2663" d="M254.277,361.9l-.163.888h-.044l.163-.888Z" transform="translate(-252.777 -361.9)" fill="#39373d"/>
      <path id="Path_2664" data-name="Path 2664" d="M254.377,361.9l-.163.888h-.044l.163-.888Z" transform="translate(-252.833 -361.9)" fill="#3c3a40"/>
      <path id="Path_2665" data-name="Path 2665" d="M254.477,361.9l-.158.888h-.048l.163-.888Z" transform="translate(-252.889 -361.9)" fill="#403e44"/>
      <path id="Path_2666" data-name="Path 2666" d="M254.38,362.788l.158-.888v.888Z" transform="translate(-252.951 -361.9)" fill="#403e44"/>
    </g>
    <path id="Path_2668" data-name="Path 2668" d="M250.678,362.378l-1.038-.712,1.275-.233.607-.369,1.1-.413-1,1.306Z" transform="translate(-139.574 -201.624)" fill="url(#linear-gradient-7)"/>
    <g id="Group_485" data-name="Group 485" transform="translate(105.87 158.552)" clip-path="url(#clip-path-7)">
      <path id="Path_2669" data-name="Path 2669" d="M240.333,359.57l-.233,1.267V359.57Z" transform="translate(-240.1 -359.57)" fill="#212023"/>
      <path id="Path_2670" data-name="Path 2670" d="M240.562,359.57l-.462,2.538v-1.271l.233-1.267Z" transform="translate(-240.1 -359.57)" fill="#212023"/>
      <path id="Path_2671" data-name="Path 2671" d="M240.795,359.57l-.523,2.872h-.092l-.079-.013v-.321l.462-2.538Z" transform="translate(-240.1 -359.57)" fill="#212023"/>
      <path id="Path_2672" data-name="Path 2672" d="M241.246,359.57l-.528,2.872h-.229l.523-2.872Z" transform="translate(-240.319 -359.57)" fill="#212023"/>
      <path id="Path_2673" data-name="Path 2673" d="M241.771,359.57l-.528,2.872h-.233l.528-2.872Z" transform="translate(-240.61 -359.57)" fill="#212023"/>
      <path id="Path_2674" data-name="Path 2674" d="M242.3,359.57l-.528,2.872h-.233l.528-2.872Z" transform="translate(-240.907 -359.57)" fill="#212023"/>
      <path id="Path_2675" data-name="Path 2675" d="M242.831,359.57l-.528,2.872h-.233l.528-2.872Z" transform="translate(-241.204 -359.57)" fill="#212023"/>
      <path id="Path_2676" data-name="Path 2676" d="M243.356,359.57l-.523,2.872H242.6l.528-2.872Z" transform="translate(-241.501 -359.57)" fill="#212023"/>
      <path id="Path_2677" data-name="Path 2677" d="M243.886,359.57l-.523,2.872h-.233l.523-2.872Z" transform="translate(-241.797 -359.57)" fill="#212023"/>
      <path id="Path_2678" data-name="Path 2678" d="M244.416,359.57l-.523,2.872h-.233l.523-2.872Z" transform="translate(-242.094 -359.57)" fill="#212023"/>
      <path id="Path_2679" data-name="Path 2679" d="M244.946,359.57l-.528,2.872h-.229l.523-2.872Z" transform="translate(-242.391 -359.57)" fill="#212023"/>
      <path id="Path_2680" data-name="Path 2680" d="M245.471,359.57l-.528,2.872h-.233l.528-2.872Z" transform="translate(-242.683 -359.57)" fill="#212024"/>
      <path id="Path_2681" data-name="Path 2681" d="M246,359.57l-.528,2.872h-.233l.528-2.872Z" transform="translate(-242.98 -359.57)" fill="#222124"/>
      <path id="Path_2682" data-name="Path 2682" d="M246.531,359.57,246,362.442h-.233l.528-2.872Z" transform="translate(-243.276 -359.57)" fill="#222124"/>
      <path id="Path_2683" data-name="Path 2683" d="M247.056,359.57l-.523,2.872H246.3l.528-2.872Z" transform="translate(-243.573 -359.57)" fill="#222124"/>
      <path id="Path_2684" data-name="Path 2684" d="M247.586,359.57l-.528,2.872h-.229l.523-2.872Z" transform="translate(-243.87 -359.57)" fill="#232225"/>
      <path id="Path_2685" data-name="Path 2685" d="M248.111,359.57l-.528,2.872h-.233l.528-2.872Z" transform="translate(-244.162 -359.57)" fill="#232225"/>
      <path id="Path_2686" data-name="Path 2686" d="M248.641,359.57l-.528,2.872h-.233l.528-2.872Z" transform="translate(-244.459 -359.57)" fill="#242326"/>
      <path id="Path_2687" data-name="Path 2687" d="M249.171,359.57l-.528,2.872h-.233l.528-2.872Z" transform="translate(-244.755 -359.57)" fill="#242326"/>
      <path id="Path_2688" data-name="Path 2688" d="M249.7,359.57l-.528,2.872h-.233l.528-2.872Z" transform="translate(-245.052 -359.57)" fill="#252427"/>
      <path id="Path_2689" data-name="Path 2689" d="M250.226,359.57l-.523,2.872h-.233L250,359.57Z" transform="translate(-245.349 -359.57)" fill="#262528"/>
      <path id="Path_2690" data-name="Path 2690" d="M250.756,359.57l-.523,2.872H250l.523-2.872Z" transform="translate(-245.646 -359.57)" fill="#272629"/>
      <path id="Path_2691" data-name="Path 2691" d="M251.286,359.57l-.528,2.872h-.229l.523-2.872Z" transform="translate(-245.943 -359.57)" fill="#28272b"/>
      <path id="Path_2692" data-name="Path 2692" d="M251.811,359.57l-.528,2.872h-.233l.528-2.872Z" transform="translate(-246.234 -359.57)" fill="#29282c"/>
      <path id="Path_2693" data-name="Path 2693" d="M252.191,359.57l.145.026-.523,2.845h-.233l.528-2.872Z" transform="translate(-246.531 -359.57)" fill="#2b2a2e"/>
      <path id="Path_2694" data-name="Path 2694" d="M252.633,359.63l.224.04-.515,2.806h-.233Z" transform="translate(-246.828 -359.604)" fill="#2d2b30"/>
      <path id="Path_2695" data-name="Path 2695" d="M253.155,359.72l.224.04-.506,2.766h-.233Z" transform="translate(-247.125 -359.654)" fill="#2f2d32"/>
      <path id="Path_2696" data-name="Path 2696" d="M253.676,359.81l.224.044-.5,2.722h-.233Z" transform="translate(-247.422 -359.704)" fill="#312f34"/>
      <path id="Path_2697" data-name="Path 2697" d="M254.2,359.91l.224.04-.493,2.683H253.7Z" transform="translate(-247.719 -359.76)" fill="#333237"/>
      <path id="Path_2698" data-name="Path 2698" d="M254.713,360l.224.044-.484,2.639h-.233Z" transform="translate(-248.01 -359.811)" fill="#363439"/>
      <path id="Path_2699" data-name="Path 2699" d="M255.234,360.1l.229.04-.479,2.6h-.233Z" transform="translate(-248.307 -359.867)" fill="#39373d"/>
      <path id="Path_2700" data-name="Path 2700" d="M255.759,360.19l.167.031v.321l-.413,2.247h-.233Z" transform="translate(-248.604 -359.917)" fill="#3c3a40"/>
      <path id="Path_2701" data-name="Path 2701" d="M256.223,362.261l-.18.976h-.233l.413-2.247Z" transform="translate(-248.901 -360.366)" fill="#403e44"/>
      <path id="Path_2702" data-name="Path 2702" d="M256.34,364.856l.18-.976v.976Z" transform="translate(-249.198 -361.985)" fill="#403e44"/>
    </g>
    <path id="Path_2704" data-name="Path 2704" d="M245.695,362.448l-.141-.154c-.185-.2-.378-.391-.576-.572a12.758,12.758,0,0,0-1.548-1.126,2.811,2.811,0,0,0-.581-.325,2.781,2.781,0,0,0-.585-.172l-1.192-.4-1.113-.2.092-.5,3.158.576.822.695,1.623.77a4.931,4.931,0,0,0,.752-.04c.259-.04.607-.062.88-.106l1.245-.193Zm-.158-.88.246.251.44-.273-.624.026h-.057Z" transform="translate(-134.151 -200.699)" fill="url(#linear-gradient-8)"/>
    <g id="Group_486" data-name="Group 486" transform="translate(79.022 157.417)" clip-path="url(#clip-path-8)">
      <path id="Path_2705" data-name="Path 2705" d="M180.434,358.314l-.193-1.324h.193Z" transform="translate(-179.717 -356.99)" fill="#212023"/>
      <path id="Path_2706" data-name="Path 2706" d="M180.4,358.314l-.2-1.324h.018l.193,1.324Z" transform="translate(-179.694 -356.99)" fill="#212023"/>
      <path id="Path_2707" data-name="Path 2707" d="M180.363,358.314l-.193-1.324h.013l.2,1.324Z" transform="translate(-179.677 -356.99)" fill="#212023"/>
      <path id="Path_2708" data-name="Path 2708" d="M180.324,358.314l-.194-1.324h.018l.194,1.324Z" transform="translate(-179.655 -356.99)" fill="#212023"/>
      <path id="Path_2709" data-name="Path 2709" d="M180.293,358.314l-.193-1.324h.013l.194,1.324Z" transform="translate(-179.638 -356.99)" fill="#212023"/>
      <path id="Path_2710" data-name="Path 2710" d="M180.254,358.314l-.194-1.324h.018l.193,1.324Z" transform="translate(-179.616 -356.99)" fill="#212023"/>
      <path id="Path_2711" data-name="Path 2711" d="M180.218,358.314l-.2-1.324h.018l.194,1.324Z" transform="translate(-179.593 -356.99)" fill="#212023"/>
      <path id="Path_2712" data-name="Path 2712" d="M180.184,358.314l-.193-1.324H180l.2,1.324Z" transform="translate(-179.577 -356.99)" fill="#212023"/>
      <path id="Path_2713" data-name="Path 2713" d="M180.143,358.314l-.193-1.324h.018l.193,1.324Z" transform="translate(-179.554 -356.99)" fill="#212023"/>
      <path id="Path_2714" data-name="Path 2714" d="M180.114,358.314l-.193-1.324h.013l.193,1.324Z" transform="translate(-179.537 -356.99)" fill="#212023"/>
      <path id="Path_2715" data-name="Path 2715" d="M180.074,358.314l-.194-1.324h.018l.193,1.324Z" transform="translate(-179.515 -356.99)" fill="#212023"/>
      <path id="Path_2716" data-name="Path 2716" d="M180.034,358.314l-.194-1.324h.018l.193,1.324Z" transform="translate(-179.493 -356.99)" fill="#212023"/>
      <path id="Path_2717" data-name="Path 2717" d="M180,358.314l-.193-1.324h.013l.194,1.324Z" transform="translate(-179.476 -356.99)" fill="#212024"/>
      <path id="Path_2718" data-name="Path 2718" d="M179.964,358.314l-.193-1.324h.018l.193,1.324Z" transform="translate(-179.453 -356.99)" fill="#222124"/>
      <path id="Path_2719" data-name="Path 2719" d="M179.934,358.314l-.193-1.324h.013l.193,1.324Z" transform="translate(-179.437 -356.99)" fill="#222124"/>
      <path id="Path_2720" data-name="Path 2720" d="M179.893,358.314l-.193-1.324h.018l.193,1.324Z" transform="translate(-179.414 -356.99)" fill="#222124"/>
      <path id="Path_2721" data-name="Path 2721" d="M179.854,358.314l-.193-1.324h.018l.193,1.324Z" transform="translate(-179.392 -356.99)" fill="#232225"/>
      <path id="Path_2722" data-name="Path 2722" d="M179.824,358.314l-.193-1.324h.013l.194,1.324Z" transform="translate(-179.375 -356.99)" fill="#232225"/>
      <path id="Path_2723" data-name="Path 2723" d="M179.783,358.314l-.193-1.324h.018l.194,1.324Z" transform="translate(-179.353 -356.99)" fill="#242326"/>
      <path id="Path_2724" data-name="Path 2724" d="M179.754,358.314l-.194-1.324h.013l.194,1.324Z" transform="translate(-179.336 -356.99)" fill="#242326"/>
      <path id="Path_2725" data-name="Path 2725" d="M179.714,358.314l-.193-1.324h.018l.194,1.324Z" transform="translate(-179.313 -356.99)" fill="#252427"/>
      <path id="Path_2726" data-name="Path 2726" d="M179.674,358.314l-.193-1.324h.018l.194,1.324Z" transform="translate(-179.291 -356.99)" fill="#262528"/>
      <path id="Path_2727" data-name="Path 2727" d="M179.643,358.314l-.193-1.324h.013l.193,1.324Z" transform="translate(-179.274 -356.99)" fill="#272629"/>
      <path id="Path_2728" data-name="Path 2728" d="M179.6,358.314l-.194-1.324h.018l.194,1.324Z" transform="translate(-179.252 -356.99)" fill="#28272b"/>
      <path id="Path_2729" data-name="Path 2729" d="M179.564,358.314l-.194-1.324h.018l.194,1.324Z" transform="translate(-179.229 -356.99)" fill="#29282c"/>
      <path id="Path_2730" data-name="Path 2730" d="M179.534,358.314l-.194-1.324h.013l.194,1.324Z" transform="translate(-179.212 -356.99)" fill="#2b2a2e"/>
      <path id="Path_2731" data-name="Path 2731" d="M179.493,358.314l-.193-1.324h.018l.194,1.324Z" transform="translate(-179.19 -356.99)" fill="#2d2b30"/>
      <path id="Path_2732" data-name="Path 2732" d="M179.464,358.314l-.193-1.324h.013l.193,1.324Z" transform="translate(-179.173 -356.99)" fill="#2f2d32"/>
      <path id="Path_2733" data-name="Path 2733" d="M179.423,358.314l-.193-1.324h.018l.194,1.324Z" transform="translate(-179.151 -356.99)" fill="#312f34"/>
      <path id="Path_2734" data-name="Path 2734" d="M179.384,358.314l-.194-1.324h.018l.194,1.324Z" transform="translate(-179.128 -356.99)" fill="#333237"/>
      <path id="Path_2735" data-name="Path 2735" d="M179.354,358.314l-.194-1.324h.013l.194,1.324Z" transform="translate(-179.112 -356.99)" fill="#363439"/>
      <path id="Path_2736" data-name="Path 2736" d="M179.314,358.314l-.194-1.324h.018l.194,1.324Z" transform="translate(-179.089 -356.99)" fill="#39373d"/>
      <path id="Path_2737" data-name="Path 2737" d="M179.284,358.314l-.194-1.324h.013l.194,1.324Z" transform="translate(-179.072 -356.99)" fill="#3c3a40"/>
      <path id="Path_2738" data-name="Path 2738" d="M179.244,358.314l-.193-1.324h.018l.193,1.324Z" transform="translate(-179.05 -356.99)" fill="#403e44"/>
      <path id="Path_2739" data-name="Path 2739" d="M179.05,356.99h0l.193,1.324h-.193Z" transform="translate(-179.05 -356.99)" fill="#403e44"/>
    </g>
    <path id="Path_2741" data-name="Path 2741" d="M179.656,357.5l-.919-.114-.347-.906-.22-1.486,1.051,1.315Z" transform="translate(-99.535 -198.453)" fill="url(#linear-gradient-9)"/>
    <g id="Group_487" data-name="Group 487" transform="translate(77.98 157.448)" clip-path="url(#clip-path-9)">
      <path id="Path_2742" data-name="Path 2742" d="M178.632,358.239l-.172-1.179h.172Z" transform="translate(-177.677 -357.06)" fill="#212023"/>
      <path id="Path_2743" data-name="Path 2743" d="M178.6,358.4l-.194-1.341h.022l.172,1.179Z" transform="translate(-177.649 -357.06)" fill="#212023"/>
      <path id="Path_2744" data-name="Path 2744" d="M178.552,358.432l-.2-1.372h.026l.194,1.341v.031Z" transform="translate(-177.616 -357.06)" fill="#212023"/>
      <path id="Path_2745" data-name="Path 2745" d="M178.5,358.432l-.2-1.372h.022l.2,1.372Z" transform="translate(-177.588 -357.06)" fill="#212023"/>
      <path id="Path_2746" data-name="Path 2746" d="M178.448,358.432l-.2-1.372h.022l.2,1.372Z" transform="translate(-177.56 -357.06)" fill="#212023"/>
      <path id="Path_2747" data-name="Path 2747" d="M178.392,358.432l-.2-1.372h.026l.2,1.372Z" transform="translate(-177.526 -357.06)" fill="#212023"/>
      <path id="Path_2748" data-name="Path 2748" d="M178.338,358.432l-.2-1.372h.022l.2,1.372Z" transform="translate(-177.498 -357.06)" fill="#212023"/>
      <path id="Path_2749" data-name="Path 2749" d="M178.282,358.432l-.2-1.372h.026l.2,1.372Z" transform="translate(-177.464 -357.06)" fill="#212023"/>
      <path id="Path_2750" data-name="Path 2750" d="M178.232,358.432l-.2-1.372h.022l.2,1.372Z" transform="translate(-177.436 -357.06)" fill="#212023"/>
      <path id="Path_2751" data-name="Path 2751" d="M178.178,358.432l-.2-1.372H178l.2,1.372Z" transform="translate(-177.408 -357.06)" fill="#212023"/>
      <path id="Path_2752" data-name="Path 2752" d="M178.122,358.432l-.2-1.372h.026l.2,1.372Z" transform="translate(-177.375 -357.06)" fill="#212023"/>
      <path id="Path_2753" data-name="Path 2753" d="M178.068,358.432l-.2-1.372h.022l.2,1.372Z" transform="translate(-177.347 -357.06)" fill="#212023"/>
      <path id="Path_2754" data-name="Path 2754" d="M178.012,358.432l-.2-1.372h.026l.2,1.372Z" transform="translate(-177.313 -357.06)" fill="#212024"/>
      <path id="Path_2755" data-name="Path 2755" d="M177.962,358.432l-.2-1.372h.022l.2,1.372Z" transform="translate(-177.285 -357.06)" fill="#222124"/>
      <path id="Path_2756" data-name="Path 2756" d="M177.908,358.432l-.2-1.372h.022l.2,1.372Z" transform="translate(-177.257 -357.06)" fill="#222124"/>
      <path id="Path_2757" data-name="Path 2757" d="M177.852,358.432l-.2-1.372h.026l.2,1.372Z" transform="translate(-177.223 -357.06)" fill="#222124"/>
      <path id="Path_2758" data-name="Path 2758" d="M177.8,358.432l-.2-1.372h.022l.2,1.372Z" transform="translate(-177.195 -357.06)" fill="#232225"/>
      <path id="Path_2759" data-name="Path 2759" d="M177.742,358.432l-.2-1.372h.026l.2,1.372Z" transform="translate(-177.162 -357.06)" fill="#232225"/>
      <path id="Path_2760" data-name="Path 2760" d="M177.692,358.432l-.2-1.372h.022l.2,1.372Z" transform="translate(-177.134 -357.06)" fill="#242326"/>
      <path id="Path_2761" data-name="Path 2761" d="M177.638,358.432l-.2-1.372h.022l.2,1.372Z" transform="translate(-177.106 -357.06)" fill="#242326"/>
      <path id="Path_2762" data-name="Path 2762" d="M177.582,358.432l-.2-1.372h.026l.2,1.372Z" transform="translate(-177.072 -357.06)" fill="#252427"/>
      <path id="Path_2763" data-name="Path 2763" d="M177.528,358.432l-.2-1.372h.022l.2,1.372Z" transform="translate(-177.044 -357.06)" fill="#262528"/>
      <path id="Path_2764" data-name="Path 2764" d="M177.478,358.432l-.2-1.372h.022l.2,1.372Z" transform="translate(-177.016 -357.06)" fill="#272629"/>
      <path id="Path_2765" data-name="Path 2765" d="M177.422,358.432l-.2-1.372h.026l.2,1.372Z" transform="translate(-176.983 -357.06)" fill="#28272b"/>
      <path id="Path_2766" data-name="Path 2766" d="M177.368,358.432l-.2-1.372h.022l.2,1.372Z" transform="translate(-176.955 -357.06)" fill="#29282c"/>
      <path id="Path_2767" data-name="Path 2767" d="M177.312,358.432l-.2-1.372h.026l.2,1.372Z" transform="translate(-176.921 -357.06)" fill="#2b2a2e"/>
      <path id="Path_2768" data-name="Path 2768" d="M177.258,358.432l-.2-1.372h.022l.2,1.372Z" transform="translate(-176.893 -357.06)" fill="#2d2b30"/>
      <path id="Path_2769" data-name="Path 2769" d="M177.2,358.432l-.2-1.372h.026l.2,1.372Z" transform="translate(-176.859 -357.06)" fill="#2f2d32"/>
      <path id="Path_2770" data-name="Path 2770" d="M177.152,358.432l-.2-1.372h.022l.2,1.372Z" transform="translate(-176.831 -357.06)" fill="#312f34"/>
      <path id="Path_2771" data-name="Path 2771" d="M177.1,358.432l-.2-1.372h.022l.2,1.372Z" transform="translate(-176.803 -357.06)" fill="#333237"/>
      <path id="Path_2772" data-name="Path 2772" d="M177.042,358.432l-.2-1.372h.026l.2,1.372Z" transform="translate(-176.77 -357.06)" fill="#363439"/>
      <path id="Path_2773" data-name="Path 2773" d="M176.992,358.432l-.2-1.372h.022l.2,1.372Z" transform="translate(-176.742 -357.06)" fill="#39373d"/>
      <path id="Path_2774" data-name="Path 2774" d="M176.938,358.432l-.2-1.372h.022l.2,1.372Z" transform="translate(-176.714 -357.06)" fill="#3c3a40"/>
      <path id="Path_2775" data-name="Path 2775" d="M176.882,358.432l-.2-1.372h.026l.2,1.372Z" transform="translate(-176.68 -357.06)" fill="#403e44"/>
      <path id="Path_2776" data-name="Path 2776" d="M176.68,357.06h0l.2,1.372h-.2Z" transform="translate(-176.68 -357.06)" fill="#403e44"/>
    </g>
    <path id="Path_2778" data-name="Path 2778" d="M176.689,357.917l-.4-.607-.277-.827-.136-.924.726.66.383.462.581.818Z" transform="translate(-98.252 -198.772)" fill="url(#linear-gradient-10)"/>
    <g id="Group_488" data-name="Group 488" transform="translate(76.595 157.773)" clip-path="url(#clip-path-10)">
      <path id="Path_2779" data-name="Path 2779" d="M177.268,359.128l-.2-1.328h.2Z" transform="translate(-175.513 -357.8)" fill="#212023"/>
      <path id="Path_2780" data-name="Path 2780" d="M177.207,359.418l-.237-1.618h.044l.2,1.328v.29Z" transform="translate(-175.457 -357.8)" fill="#212023"/>
      <path id="Path_2781" data-name="Path 2781" d="M177.1,359.418l-.237-1.618h.048l.237,1.618Z" transform="translate(-175.396 -357.8)" fill="#212023"/>
      <path id="Path_2782" data-name="Path 2782" d="M176.987,359.418l-.237-1.618h.048l.237,1.618Z" transform="translate(-175.334 -357.8)" fill="#212023"/>
      <path id="Path_2783" data-name="Path 2783" d="M176.887,359.418l-.237-1.618h.044l.237,1.618Z" transform="translate(-175.278 -357.8)" fill="#212023"/>
      <path id="Path_2784" data-name="Path 2784" d="M176.777,359.418l-.237-1.618h.048l.237,1.618Z" transform="translate(-175.216 -357.8)" fill="#212023"/>
      <path id="Path_2785" data-name="Path 2785" d="M176.667,359.418l-.237-1.618h.048l.237,1.618Z" transform="translate(-175.155 -357.8)" fill="#212023"/>
      <path id="Path_2786" data-name="Path 2786" d="M176.557,359.418l-.237-1.618h.048l.237,1.618Z" transform="translate(-175.093 -357.8)" fill="#212023"/>
      <path id="Path_2787" data-name="Path 2787" d="M176.453,359.418l-.233-1.618h.044l.237,1.618Z" transform="translate(-175.037 -357.8)" fill="#212023"/>
      <path id="Path_2788" data-name="Path 2788" d="M176.347,359.418l-.237-1.618h.048l.233,1.618Z" transform="translate(-174.975 -357.8)" fill="#212023"/>
      <path id="Path_2789" data-name="Path 2789" d="M176.237,359.418,176,357.8h.048l.237,1.618Z" transform="translate(-174.914 -357.8)" fill="#212023"/>
      <path id="Path_2790" data-name="Path 2790" d="M176.127,359.418l-.237-1.618h.048l.237,1.618Z" transform="translate(-174.852 -357.8)" fill="#212023"/>
      <path id="Path_2791" data-name="Path 2791" d="M176.027,359.418l-.237-1.618h.044l.237,1.618Z" transform="translate(-174.796 -357.8)" fill="#212024"/>
      <path id="Path_2792" data-name="Path 2792" d="M175.917,359.418l-.237-1.618h.048l.237,1.618Z" transform="translate(-174.734 -357.8)" fill="#222124"/>
      <path id="Path_2793" data-name="Path 2793" d="M175.807,359.418l-.237-1.618h.048l.237,1.618Z" transform="translate(-174.673 -357.8)" fill="#222124"/>
      <path id="Path_2794" data-name="Path 2794" d="M175.7,359.418l-.237-1.618h.048l.237,1.618Z" transform="translate(-174.611 -357.8)" fill="#222124"/>
      <path id="Path_2795" data-name="Path 2795" d="M175.6,359.418l-.237-1.618h.044l.237,1.618Z" transform="translate(-174.555 -357.8)" fill="#232225"/>
      <path id="Path_2796" data-name="Path 2796" d="M175.487,359.418l-.237-1.618h.048l.237,1.618Z" transform="translate(-174.494 -357.8)" fill="#232225"/>
      <path id="Path_2797" data-name="Path 2797" d="M175.377,359.418l-.237-1.618h.048l.237,1.618Z" transform="translate(-174.432 -357.8)" fill="#242326"/>
      <path id="Path_2798" data-name="Path 2798" d="M175.267,359.418l-.237-1.618h.048l.237,1.618Z" transform="translate(-174.37 -357.8)" fill="#242326"/>
      <path id="Path_2799" data-name="Path 2799" d="M175.167,359.418l-.237-1.618h.044l.237,1.618Z" transform="translate(-174.314 -357.8)" fill="#252427"/>
      <path id="Path_2800" data-name="Path 2800" d="M175.057,359.418l-.237-1.618h.048l.237,1.618Z" transform="translate(-174.253 -357.8)" fill="#262528"/>
      <path id="Path_2801" data-name="Path 2801" d="M174.947,359.418l-.237-1.618h.048l.237,1.618Z" transform="translate(-174.191 -357.8)" fill="#272629"/>
      <path id="Path_2802" data-name="Path 2802" d="M174.837,359.418,174.6,357.8h.048l.237,1.618Z" transform="translate(-174.129 -357.8)" fill="#28272b"/>
      <path id="Path_2803" data-name="Path 2803" d="M174.737,359.418,174.5,357.8h.044l.237,1.618Z" transform="translate(-174.073 -357.8)" fill="#29282c"/>
      <path id="Path_2804" data-name="Path 2804" d="M174.627,359.418l-.237-1.618h.048l.237,1.618Z" transform="translate(-174.012 -357.8)" fill="#2b2a2e"/>
      <path id="Path_2805" data-name="Path 2805" d="M174.517,359.418l-.237-1.618h.048l.237,1.618Z" transform="translate(-173.95 -357.8)" fill="#2d2b30"/>
      <path id="Path_2806" data-name="Path 2806" d="M174.407,359.418l-.237-1.618h.048l.237,1.618Z" transform="translate(-173.889 -357.8)" fill="#2f2d32"/>
      <path id="Path_2807" data-name="Path 2807" d="M174.307,359.418l-.237-1.618h.044l.237,1.618Z" transform="translate(-173.833 -357.8)" fill="#312f34"/>
      <path id="Path_2808" data-name="Path 2808" d="M174.2,359.418l-.237-1.618h.048l.237,1.618Z" transform="translate(-173.771 -357.8)" fill="#333237"/>
      <path id="Path_2809" data-name="Path 2809" d="M174.087,359.418l-.237-1.618h.048l.237,1.618Z" transform="translate(-173.709 -357.8)" fill="#363439"/>
      <path id="Path_2810" data-name="Path 2810" d="M173.977,359.418l-.237-1.618h.048l.237,1.618Z" transform="translate(-173.648 -357.8)" fill="#39373d"/>
      <path id="Path_2811" data-name="Path 2811" d="M173.877,359.418l-.237-1.618h.044l.237,1.618Z" transform="translate(-173.592 -357.8)" fill="#3c3a40"/>
      <path id="Path_2812" data-name="Path 2812" d="M173.767,359.418l-.237-1.618h.048l.237,1.618Z" transform="translate(-173.53 -357.8)" fill="#403e44"/>
      <path id="Path_2813" data-name="Path 2813" d="M173.53,357.8l.237,1.618h-.237Z" transform="translate(-173.53 -357.8)" fill="#403e44"/>
    </g>
    <path id="Path_2815" data-name="Path 2815" d="M174.366,358.739l-.475-.246-.77-.673-.251-.523-.18-1.227,1.011,1.069.44.387.594.255.493.409Zm-.106-.624.079.044h0Z" transform="translate(-96.465 -199.058)" fill="url(#linear-gradient-11)"/>
    <g id="Group_489" data-name="Group 489" transform="translate(75.794 158.793)" clip-path="url(#clip-path-11)">
      <path id="Path_2816" data-name="Path 2816" d="M175.237,360.788l-.1-.668h.1Z" transform="translate(-173.632 -360.12)" fill="#212023"/>
      <path id="Path_2817" data-name="Path 2817" d="M175.176,361.061l-.136-.941h.044l.1.668v.273Z" transform="translate(-173.576 -360.12)" fill="#212023"/>
      <path id="Path_2818" data-name="Path 2818" d="M175.071,361.061l-.141-.941h.048l.136.941Z" transform="translate(-173.514 -360.12)" fill="#212023"/>
      <path id="Path_2819" data-name="Path 2819" d="M174.966,361.061l-.136-.941h.044l.141.941Z" transform="translate(-173.458 -360.12)" fill="#212023"/>
      <path id="Path_2820" data-name="Path 2820" d="M174.861,361.061l-.141-.941h.048l.136.941Z" transform="translate(-173.396 -360.12)" fill="#212023"/>
      <path id="Path_2821" data-name="Path 2821" d="M174.756,361.061l-.136-.941h.044l.141.941Z" transform="translate(-173.34 -360.12)" fill="#212023"/>
      <path id="Path_2822" data-name="Path 2822" d="M174.656,361.061l-.136-.941h.044l.136.941Z" transform="translate(-173.284 -360.12)" fill="#212023"/>
      <path id="Path_2823" data-name="Path 2823" d="M174.551,361.061l-.141-.941h.048l.136.941Z" transform="translate(-173.223 -360.12)" fill="#212023"/>
      <path id="Path_2824" data-name="Path 2824" d="M174.446,361.061l-.136-.941h.044l.141.941Z" transform="translate(-173.167 -360.12)" fill="#212023"/>
      <path id="Path_2825" data-name="Path 2825" d="M174.341,361.061l-.141-.941h.048l.136.941Z" transform="translate(-173.105 -360.12)" fill="#212023"/>
      <path id="Path_2826" data-name="Path 2826" d="M174.236,361.061l-.136-.941h.044l.141.941Z" transform="translate(-173.049 -360.12)" fill="#212023"/>
      <path id="Path_2827" data-name="Path 2827" d="M174.136,361.061,174,360.12h.044l.136.941Z" transform="translate(-172.993 -360.12)" fill="#212023"/>
      <path id="Path_2828" data-name="Path 2828" d="M174.031,361.061l-.141-.941h.048l.136.941Z" transform="translate(-172.931 -360.12)" fill="#212024"/>
      <path id="Path_2829" data-name="Path 2829" d="M173.926,361.061l-.136-.941h.044l.141.941Z" transform="translate(-172.875 -360.12)" fill="#222124"/>
      <path id="Path_2830" data-name="Path 2830" d="M173.821,361.061l-.141-.941h.048l.136.941Z" transform="translate(-172.814 -360.12)" fill="#222124"/>
      <path id="Path_2831" data-name="Path 2831" d="M173.716,361.061l-.136-.941h.044l.141.941Z" transform="translate(-172.758 -360.12)" fill="#222124"/>
      <path id="Path_2832" data-name="Path 2832" d="M173.616,361.061l-.136-.941h.044l.136.941Z" transform="translate(-172.702 -360.12)" fill="#232225"/>
      <path id="Path_2833" data-name="Path 2833" d="M173.511,361.061l-.141-.941h.048l.136.941Z" transform="translate(-172.64 -360.12)" fill="#232225"/>
      <path id="Path_2834" data-name="Path 2834" d="M173.406,361.061l-.136-.941h.044l.141.941Z" transform="translate(-172.584 -360.12)" fill="#242326"/>
      <path id="Path_2835" data-name="Path 2835" d="M173.3,361.061l-.141-.941h.048l.136.941Z" transform="translate(-172.522 -360.12)" fill="#242326"/>
      <path id="Path_2836" data-name="Path 2836" d="M173.2,361.061l-.136-.941h.044l.141.941Z" transform="translate(-172.466 -360.12)" fill="#252427"/>
      <path id="Path_2837" data-name="Path 2837" d="M173.1,361.061l-.136-.941H173l.136.941Z" transform="translate(-172.41 -360.12)" fill="#262528"/>
      <path id="Path_2838" data-name="Path 2838" d="M172.991,361.061l-.141-.941h.048l.136.941Z" transform="translate(-172.349 -360.12)" fill="#272629"/>
      <path id="Path_2839" data-name="Path 2839" d="M172.886,361.061l-.136-.941h.044l.141.941Z" transform="translate(-172.293 -360.12)" fill="#28272b"/>
      <path id="Path_2840" data-name="Path 2840" d="M172.781,361.061l-.141-.941h.048l.136.941Z" transform="translate(-172.231 -360.12)" fill="#29282c"/>
      <path id="Path_2841" data-name="Path 2841" d="M172.676,361.061l-.136-.941h.044l.141.941Z" transform="translate(-172.175 -360.12)" fill="#2b2a2e"/>
      <path id="Path_2842" data-name="Path 2842" d="M172.576,361.061l-.136-.941h.044l.136.941Z" transform="translate(-172.119 -360.12)" fill="#2d2b30"/>
      <path id="Path_2843" data-name="Path 2843" d="M172.471,361.061l-.141-.941h.048l.136.941Z" transform="translate(-172.057 -360.12)" fill="#2f2d32"/>
      <path id="Path_2844" data-name="Path 2844" d="M172.366,361.061l-.136-.941h.044l.141.941Z" transform="translate(-172.001 -360.12)" fill="#312f34"/>
      <path id="Path_2845" data-name="Path 2845" d="M172.261,361.061l-.141-.941h.048l.136.941Z" transform="translate(-171.94 -360.12)" fill="#333237"/>
      <path id="Path_2846" data-name="Path 2846" d="M172.156,361.061l-.136-.941h.044l.141.941Z" transform="translate(-171.884 -360.12)" fill="#363439"/>
      <path id="Path_2847" data-name="Path 2847" d="M172.056,361.061l-.136-.941h.044l.136.941Z" transform="translate(-171.828 -360.12)" fill="#39373d"/>
      <path id="Path_2848" data-name="Path 2848" d="M171.951,361.061l-.141-.941h.048l.136.941Z" transform="translate(-171.766 -360.12)" fill="#3c3a40"/>
      <path id="Path_2849" data-name="Path 2849" d="M171.846,361.061l-.136-.941h.044l.141.941Z" transform="translate(-171.71 -360.12)" fill="#403e44"/>
      <path id="Path_2850" data-name="Path 2850" d="M171.71,360.12l.136.941h-.136Z" transform="translate(-171.71 -360.12)" fill="#403e44"/>
    </g>
    <path id="Path_2852" data-name="Path 2852" d="M171.973,360.617l-.946-.457-.967-1.35,1.139.475.567.374,1.293.281Z" transform="translate(-94.992 -200.593)" fill="url(#linear-gradient-12)"/>
    <g id="Group_490" data-name="Group 490" transform="translate(74.857 157.975)" clip-path="url(#clip-path-12)">
      <path id="Path_2853" data-name="Path 2853" d="M186.5,359.878l-.237-1.618Z" transform="translate(-178.925 -358.26)" fill="#212023"/>
      <path id="Path_2854" data-name="Path 2854" d="M186.12,360.978l-.4-2.718h.237l.237,1.618v1.1Z" transform="translate(-178.622 -358.26)" fill="#212023"/>
      <path id="Path_2855" data-name="Path 2855" d="M185.58,360.978l-.4-2.718h.237l.4,2.718Z" transform="translate(-178.319 -358.26)" fill="#212023"/>
      <path id="Path_2856" data-name="Path 2856" d="M185.04,360.978l-.4-2.718h.237l.4,2.718Z" transform="translate(-178.017 -358.26)" fill="#212023"/>
      <path id="Path_2857" data-name="Path 2857" d="M184.506,360.978l-.4-2.718h.233l.4,2.718Z" transform="translate(-177.72 -358.26)" fill="#212023"/>
      <path id="Path_2858" data-name="Path 2858" d="M183.966,360.978l-.4-2.718h.237l.4,2.718Z" transform="translate(-177.418 -358.26)" fill="#212023"/>
      <path id="Path_2859" data-name="Path 2859" d="M183.426,360.978l-.4-2.718h.237l.4,2.718Z" transform="translate(-177.115 -358.26)" fill="#212023"/>
      <path id="Path_2860" data-name="Path 2860" d="M182.89,360.978l-.4-2.718h.237l.4,2.718Z" transform="translate(-176.813 -358.26)" fill="#212023"/>
      <path id="Path_2861" data-name="Path 2861" d="M182.35,360.978l-.4-2.718h.237l.4,2.718Z" transform="translate(-176.51 -358.26)" fill="#212023"/>
      <path id="Path_2862" data-name="Path 2862" d="M181.81,360.978l-.4-2.718h.237l.4,2.718Z" transform="translate(-176.207 -358.26)" fill="#212023"/>
      <path id="Path_2863" data-name="Path 2863" d="M181.27,360.978l-.4-2.718h.237l.4,2.718Z" transform="translate(-175.905 -358.26)" fill="#212023"/>
      <path id="Path_2864" data-name="Path 2864" d="M180.736,360.978l-.4-2.718h.233l.4,2.718Z" transform="translate(-175.608 -358.26)" fill="#212024"/>
      <path id="Path_2865" data-name="Path 2865" d="M180.2,360.978l-.4-2.718h.237l.4,2.718Z" transform="translate(-175.306 -358.26)" fill="#222124"/>
      <path id="Path_2866" data-name="Path 2866" d="M179.656,360.978l-.4-2.718h.237l.4,2.718Z" transform="translate(-175.003 -358.26)" fill="#222124"/>
      <path id="Path_2867" data-name="Path 2867" d="M179.12,360.978l-.4-2.718h.237l.4,2.718Z" transform="translate(-174.7 -358.26)" fill="#222124"/>
      <path id="Path_2868" data-name="Path 2868" d="M178.58,360.978l-.4-2.718h.237l.4,2.718Z" transform="translate(-174.398 -358.26)" fill="#232225"/>
      <path id="Path_2869" data-name="Path 2869" d="M178.04,360.978l-.4-2.718h.237l.4,2.718Z" transform="translate(-174.095 -358.26)" fill="#232225"/>
      <path id="Path_2870" data-name="Path 2870" d="M177.5,360.978l-.4-2.718h.237l.4,2.718Z" transform="translate(-173.793 -358.26)" fill="#242326"/>
      <path id="Path_2871" data-name="Path 2871" d="M176.966,360.978l-.4-2.718h.233l.4,2.718Z" transform="translate(-173.496 -358.26)" fill="#242326"/>
      <path id="Path_2872" data-name="Path 2872" d="M176.426,360.978l-.4-2.718h.237l.4,2.718Z" transform="translate(-173.193 -358.26)" fill="#252427"/>
      <path id="Path_2873" data-name="Path 2873" d="M175.89,360.978l-.4-2.718h.237l.4,2.718Z" transform="translate(-172.891 -358.26)" fill="#262528"/>
      <path id="Path_2874" data-name="Path 2874" d="M175.35,360.978l-.4-2.718h.237l.4,2.718Z" transform="translate(-172.588 -358.26)" fill="#272629"/>
      <path id="Path_2875" data-name="Path 2875" d="M174.81,360.978l-.4-2.718h.237l.4,2.718Z" transform="translate(-172.286 -358.26)" fill="#28272b"/>
      <path id="Path_2876" data-name="Path 2876" d="M174.27,360.978l-.4-2.718h.237l.4,2.718Z" transform="translate(-171.983 -358.26)" fill="#29282c"/>
      <path id="Path_2877" data-name="Path 2877" d="M173.736,360.978l-.4-2.718h.233l.4,2.718Z" transform="translate(-171.686 -358.26)" fill="#2b2a2e"/>
      <path id="Path_2878" data-name="Path 2878" d="M173.2,360.978l-.4-2.718h.237l.4,2.718Z" transform="translate(-171.384 -358.26)" fill="#2d2b30"/>
      <path id="Path_2879" data-name="Path 2879" d="M172.656,360.978l-.4-2.718h.237l.4,2.718Z" transform="translate(-171.081 -358.26)" fill="#2f2d32"/>
      <path id="Path_2880" data-name="Path 2880" d="M172.12,360.978l-.4-2.718h.237l.4,2.718Z" transform="translate(-170.779 -358.26)" fill="#312f34"/>
      <path id="Path_2881" data-name="Path 2881" d="M171.58,360.978l-.4-2.718h.237l.4,2.718Z" transform="translate(-170.476 -358.26)" fill="#333237"/>
      <path id="Path_2882" data-name="Path 2882" d="M171.046,360.978l-.4-2.7.066-.013h.167l.4,2.718Z" transform="translate(-170.179 -358.26)" fill="#363439"/>
      <path id="Path_2883" data-name="Path 2883" d="M170.511,360.995l-.391-2.674.233-.031.4,2.7Z" transform="translate(-169.883 -358.277)" fill="#39373d"/>
      <path id="Path_2884" data-name="Path 2884" d="M169.977,361.034l-.387-2.639.233-.035.391,2.674Z" transform="translate(-169.586 -358.316)" fill="#3c3a40"/>
      <path id="Path_2885" data-name="Path 2885" d="M169.734,361.079l-.154-1.047V358.44h0l.387,2.639Z" transform="translate(-169.58 -358.361)" fill="#403e44"/>
      <path id="Path_2886" data-name="Path 2886" d="M169.58,362.06l.154,1.047h-.154Z" transform="translate(-169.58 -360.389)" fill="#403e44"/>
    </g>
    <path id="Path_2888" data-name="Path 2888" d="M169.673,361.006l-2.823-1.838,1.249.233c.281.053.581.1.88.141s.532.053.778.066l1.693-.73.88-.673,3.254-.475.07.506-1.161.167-1.183.352a2.915,2.915,0,0,0-.642.163,3.149,3.149,0,0,0-.611.308,13.366,13.366,0,0,0-1.627,1.091,8.2,8.2,0,0,0-.611.563Zm-.528-.954.466.3.286-.264h-.092a5.776,5.776,0,0,1-.66-.044Z" transform="translate(-93.193 -199.988)" fill="url(#linear-gradient-13)"/>
    <path id="Path_2889" data-name="Path 2889" d="M126.057,313.868a43.348,43.348,0,0,0-3.14,14.513c-.321,9.97,2.463,10.555,1.961,19.627-.4,7.146-2.4,11.707-.783,12.564,1.082.572,3.008-.95,6.28-3.518a35.347,35.347,0,0,0,5.889-5.493c2.639-3.391,2.841-6.759,3.518-16.487,1.165-16.412,1.319-17.71,2.749-19.627,2.639-3.545,4.143-1.86,11.381-8.246,3.606-3.175,6.777-6.715,8.246-5.889.44.264.413.77.783,1.57,1.157,2.52,4.239,3.232,6.28,3.927a29.831,29.831,0,0,1,10.207,6.671c1.223,1.218,4.253,4.253,5.106,8.637,1.319,6.795-4.13,9.015-3.927,18.471a23.875,23.875,0,0,0,1.961,8.637,13.4,13.4,0,0,0,5.5,6.676c1.2.682,3.518,2.01,5.1,1.174,2.331-1.227,1.632-6.43,1.179-11.381-1.53-16.668,1.077-14.864-.783-25.507s-2.951-16.87-8.246-22.376c-9.394-9.772-23.233-8.281-24.337-7.476-.378.281-.787.519-1.179.787-.954.651-1.249.88-1.57.783s-.325-.545-.783-.783a1.544,1.544,0,0,0-1.179,0c-1.821.563-5.057.048-10.207,1.961a33.279,33.279,0,0,0-12.56,8.637,37.073,37.073,0,0,0-7.445,12.147Z" transform="translate(-68.566 -161.9)" fill="#4c3526"/>
    <path id="Path_2890" data-name="Path 2890" d="M195.539,398.344c1.953-.356,2.2-1.28,3.659-1.249,1.293.031,1.447.743,2.7.638,1.183-.1,1.218-.752,2.454-.963a6.066,6.066,0,0,1,3.483.708,6.388,6.388,0,0,0,2.665,1.029c.44,0,.717-.053.783.07.193.374-1.8,1.917-3.408,2.845s-5.761,3.32-10.023,1.86c-3.228-1.108-5.5-4.094-5.084-4.794C192.984,398.111,193.81,398.657,195.539,398.344Z" transform="translate(-107.686 -221.828)" fill="#7c133e"/>
    <path id="Path_2891" data-name="Path 2891" d="M198.8,401.969c.141-.308,1.253.224,3.14.391,2.058.18,2.775-.273,7.85-.787,1.491-.15,1.909-.158,1.961,0,.141.4-2.058,1.7-4.314,2.357a9.1,9.1,0,0,1-6.284,0C199.844,403.35,198.644,402.307,198.8,401.969Z" transform="translate(-111.086 -224.485)" fill="#f4f3ed"/>
    <path id="Path_2892" data-name="Path 2892" d="M210.754,504.4c-.365-3.874-3.18-6.72-4.156-7.617l-.259-.233c-1.72-1.526-8.492-7.547-8.694-7.138-.11.22,1.662,2.3,3.351,3.927,1.522,1.46,1.785,1.412,3.307,2.863a19.649,19.649,0,0,1,3.76,4.358c1.728,2.9,2.155,5.8,2.533,5.717C210.815,506.241,210.828,505.211,210.754,504.4Z" transform="translate(-110.442 -273.749)" fill="#edd5c5"/>
    <path id="Path_2893" data-name="Path 2893" d="M236.71,502.961a13.129,13.129,0,0,1,2.964-7.775l.185-.233c2.916-3.575,6.632-7.239,6.839-6.918.11.172-.778,1.434-2.032,3.206-.787,1.117-1.46,2-2.423,3.219-3.206,4.072-3.166,3.778-3.518,4.53-1.4,2.819-1.39,5.792-1.715,5.761C236.8,504.742,236.71,503.753,236.71,502.961Z" transform="translate(-132.33 -272.976)" fill="#edd5c5"/>
    <circle id="Ellipse_111" data-name="Ellipse 111" cx="1.755" cy="1.755" r="1.755" transform="translate(85.188 228.863)" fill="#c19185"/>
    <circle id="Ellipse_112" data-name="Ellipse 112" cx="1.755" cy="1.755" r="1.755" transform="translate(114.283 225.503)" fill="#c19185"/>
    <path id="Path_2894" data-name="Path 2894" d="M202.566,462.471h0a7.256,7.256,0,0,0-3.4-1.649h-.031l-.207-.035c-1.6-.255-7.894-1.275-8.123-1.055a9.963,9.963,0,0,0,3.056.9c1.077.211,1.482.211,2.252.325.176.026.466.075.822.141.44.079,1.319.255,4.169.994Z" transform="translate(-106.608 -257.114)" fill="#edd5c5"/>
    <path id="Path_2895" data-name="Path 2895" d="M227.372,462.3c-.15-.2,2.375-1.79,2.48-1.816h0l.145-.031c1.113-.251,5.506-1.236,5.6-1.033a7.271,7.271,0,0,1-2.238.88c-.99.264-1.143.189-2.137.44a16.524,16.524,0,0,0-2.5.945C227.574,462.2,227.411,462.344,227.372,462.3Z" transform="translate(-127.095 -256.939)" fill="#edd5c5"/>
    <path id="Path_2896" data-name="Path 2896" d="M253.865,448.69c.2-2.929-5.018-3.413-10.775-8.642-7.2-6.539-9.064-14.864-9.842-18.383-1.271-5.677-.44-8.606-3.751-13.33-2.48-3.518-5.783-5.924-6.091-5.765-.22.119,1.165,1.561,1.407,3.958.035.343.378.937,0,1.442-.172.233-.462.44-1.407.721-1.807.572-2.274.369-2.81.721-.277.18-.844.69-.466,2.881a13.633,13.633,0,0,0,1.4,3.958c2.507,5.1,1.807,5.889,3.751,7.564,1.319,1.13,1.948,1.047,2.81,2.159a5.818,5.818,0,0,1,.937,4.684c-.44,3.184,1.42,3.866,7.476,16.571,2.612,5.458,2.876,6.6,4.688,7.2C245.676,455.968,253.618,452.239,253.865,448.69Z" transform="translate(-122.971 -225.104)" fill="#edd5c5"/>
    <path id="Path_2897" data-name="Path 2897" d="M158.783,467.541c5.035.15,6.676-.69,7.476-1.179s2.9-2,4.838-8.167c.581-1.834,1.605-4.525,2.353-15.392.242-3.518.277-6.632,1.966-10.528,1.179-2.727,2.076-4.8,4.314-6.016,2.049-1.108,4.156-.915,5.106-2.639.523-.95.1-1.4.783-2.639.954-1.72,2.52-2.2,2.357-2.639s-1.847-.2-3.518,0c-6.645.8-6.1.33-7.063.752-2.977,1.3-4.64,4.235-6.28,7.142-.4.717-.677,1.275-.787,1.5-2.863,5.977-4.178,12.754-6.671,18.422-.937,2.133-4.578,10.247-12.564,14.288-3.892,1.966-6.667,2.2-6.671,3.435C144.394,465.936,152.982,467.37,158.783,467.541Z" transform="translate(-80.627 -233.805)" fill="#e5cec1"/>
    <path id="Path_2898" data-name="Path 2898" d="M216.194,372.09a7.7,7.7,0,0,0,1.57,4.71c.814.99,1.68,1.425,1.574,1.966-.092.471-.919,1-4.319,1.174" transform="translate(-120.179 -208.032)" fill="none" stroke="#d3aa8d" stroke-miterlimit="10" stroke-width="1"/>
  </g>
</svg>
