<svg xmlns="http://www.w3.org/2000/svg" xmlns:xlink="http://www.w3.org/1999/xlink" width="195" height="377" viewBox="0 0 195 377">
  <defs>
    <clipPath id="clip-path">
      <rect id="Rectangle_1801" data-name="Rectangle 1801" width="195" height="377" fill="none"/>
    </clipPath>
    <clipPath id="clip-path-2">
      <rect id="Rectangle_1810" data-name="Rectangle 1810" width="15.076" height="10.051" fill="none"/>
    </clipPath>
  </defs>
  <g id="Layer_4" data-name="Layer 4" transform="translate(-0.5 -0.5)">
    <g id="Group_506" data-name="Group 506" transform="translate(0.5 0.5)" opacity="0.8">
      <g id="Group_505" data-name="Group 505" clip-path="url(#clip-path)">
        <path id="Path_3334" data-name="Path 3334" d="M173.308,377.731H22.943A22.48,22.48,0,0,1,.52,355.308V22.923A22.48,22.48,0,0,1,22.943.5H173.308A22.48,22.48,0,0,1,195.73,22.923V355.308a22.48,22.48,0,0,1-22.423,22.423" transform="translate(-0.511 -0.5)"/>
      </g>
    </g>
    <rect id="Rectangle_1802" data-name="Rectangle 1802" width="180.939" height="276.988" transform="translate(7.812 40.813)" fill="#fff"/>
    <path id="Path_3335" data-name="Path 3335" d="M224.407,782.768c0,8.982-6.955,16.268-15.533,16.268s-15.533-7.285-15.533-16.268S200.3,766.5,208.873,766.5s15.533,7.281,15.533,16.268" transform="translate(-108.055 -429.218)"/>
    <path id="Path_3336" data-name="Path 3336" d="M216.162,42.457h-31.3a1.978,1.978,0,1,1,0-3.957h31.3a1.978,1.978,0,1,1,0,3.957" transform="translate(-102.194 -21.293)"/>
    <path id="Path_3337" data-name="Path 3337" d="M271.634,40.478a1.891,1.891,0,1,1-1.891-1.978,1.934,1.934,0,0,1,1.891,1.978" transform="translate(-149.809 -21.293)"/>
    <path id="Path_3338" data-name="Path 3338" d="M40.8,683.2h-.44a.224.224,0,0,1-.22-.22V667.03a.224.224,0,0,1,.22-.22h.44a.22.22,0,0,1,.22.22v15.951a.22.22,0,0,1-.22.22" transform="translate(-22.212 -373.358)" fill="#66a8de"/>
    <rect id="Rectangle_1803" data-name="Rectangle 1803" width="13.41" height="13.462" rx="4.1" transform="translate(11.522 301.353)" fill="none" stroke="#66a8de" stroke-miterlimit="10" stroke-width="1"/>
    <path id="Path_3339" data-name="Path 3339" d="M44.619,670.737l-3.491-5.452a.308.308,0,0,0-.365-.1l-.229.1a.2.2,0,0,0-.11.295l3.491,5.452a.308.308,0,0,0,.365.1l.229-.1a.207.207,0,0,0,.11-.3" transform="translate(-22.355 -372.436)" fill="#66a8de"/>
    <path id="Path_3340" data-name="Path 3340" d="M32.73,671.179l3.684-5.276a.2.2,0,0,0-.1-.3l-.224-.11a.3.3,0,0,0-.365.075l-3.684,5.276a.207.207,0,0,0,.1.3l.224.11a.3.3,0,0,0,.365-.079" transform="translate(-17.655 -372.601)" fill="#66a8de"/>
    <path id="Path_3341" data-name="Path 3341" d="M218.706,689.563c-1.49-3.632-4.454-5.993-6.617-5.276s-3.227,4.507-1.209,7.879c1.649,2.752,4.339,3.926,5.852,4.784a1.881,1.881,0,0,1,.286.128,2.409,2.409,0,0,1,.382.2,2.008,2.008,0,0,1,.29.15,2.16,2.16,0,0,1,.369.207l.088.044c1.35-.193,1.86-4.951.558-8.112" transform="translate(-117.282 -383.079)" fill="#cb2228"/>
    <path id="Path_3342" data-name="Path 3342" d="M227.458,689.879c1.556-3.61,4.564-5.918,6.709-5.162s3.148,4.559,1.073,7.914c-1.7,2.726-4.4,3.851-5.94,4.682a2.844,2.844,0,0,0-.29.123,2.219,2.219,0,0,0-.383.193,1.808,1.808,0,0,0-.295.141,2.131,2.131,0,0,0-.369.2l-.092.039c-1.345-.211-1.759-4.977-.413-8.116" transform="translate(-126.71 -383.312)" fill="#cb2228"/>
    <rect id="Rectangle_1804" data-name="Rectangle 1804" width="13.15" height="16.593" rx="0.02" transform="translate(172.606 297.91)" fill="none" stroke="#66a8de" stroke-miterlimit="10" stroke-width="1"/>
    <rect id="Rectangle_1805" data-name="Rectangle 1805" width="15.388" height="0.638" transform="translate(171.485 297.272)" fill="#66a8de"/>
    <rect id="Rectangle_1806" data-name="Rectangle 1806" width="0.281" height="14.359" transform="translate(174.844 298.868)" fill="#66a8de"/>
    <rect id="Rectangle_1807" data-name="Rectangle 1807" width="0.281" height="14.359" transform="translate(177.64 298.868)" fill="#66a8de"/>
    <rect id="Rectangle_1808" data-name="Rectangle 1808" width="0.281" height="14.359" transform="translate(180.441 298.868)" fill="#66a8de"/>
    <rect id="Rectangle_1809" data-name="Rectangle 1809" width="0.281" height="14.359" transform="translate(182.956 298.868)" fill="#66a8de"/>
    <path id="Path_3343" data-name="Path 3343" d="M405.156,677.244h-6.472c-.374,0-1.38.8-.681-.778v-1a.739.739,0,0,1,.681-.778h6.472a.739.739,0,0,1,.681.778v1C406.537,678.04,405.53,677.244,405.156,677.244Z" transform="translate(-222.6 -377.774)" fill="none" stroke="#66a8de" stroke-miterlimit="10" stroke-width="1"/>
    <g id="Group_508" data-name="Group 508" transform="translate(175.31 360.602)" opacity="0.25">
      <g id="Group_507" data-name="Group 507" clip-path="url(#clip-path-2)">
        <path id="Path_3344" data-name="Path 3344" d="M398.1,829.591c8.718-.712,15.458-5.21,15.063-10.051" transform="translate(-398.1 -819.54)" fill="#fff"/>
      </g>
    </g>
    <path id="Path_3345" data-name="Path 3345" d="M25.61,31.754c.879-7.474,5.68-13.062,10.75-12.469" transform="translate(-14.07 -10.502)" fill="#666665"/>
    <path id="Path_3346" data-name="Path 3346" d="M37.16,103.694l-5.518,3.957a.325.325,0,0,0-.084.391l.11.242a.211.211,0,0,0,.317.1l5.513-3.957a.321.321,0,0,0,.084-.391l-.11-.237a.207.207,0,0,0-.312-.106" transform="translate(-17.385 -57.804)" fill="#66a8de"/>
    <path id="Path_3347" data-name="Path 3347" d="M37.973,116.427l-5.628-3.706a.207.207,0,0,0-.308.119l-.106.242a.317.317,0,0,0,.1.387l5.632,3.706a.207.207,0,0,0,.308-.119l.106-.242a.317.317,0,0,0-.1-.387" transform="translate(-17.596 -62.864)" fill="#66a8de"/>
    <path id="Path_3348" data-name="Path 3348" d="M202.11,102.568h-1.35v-.488h3.289v.488H202.69v3.957h-.58Z" transform="translate(-112.213 -56.919)"/>
    <path id="Path_3349" data-name="Path 3349" d="M209.7,102.43a.339.339,0,0,1-.369.356.343.343,0,0,1-.347-.356.352.352,0,0,1,.361-.361.343.343,0,0,1,.356.361Zm-.646,4.089v-3.192h.58v3.192Z" transform="translate(-116.819 -56.913)"/>
    <path id="Path_3350" data-name="Path 3350" d="M212.616,105.832c0-.378,0-.7-.026-1h.51v.629h.026a.959.959,0,0,1,.879-.7.65.65,0,0,1,.167,0v.55a.88.88,0,0,0-.2,0,.818.818,0,0,0-.778.747,1.629,1.629,0,0,0-.026.268v1.7h-.576Z" transform="translate(-118.842 -58.419)"/>
    <path id="Path_3351" data-name="Path 3351" d="M217.217,107.457a1.486,1.486,0,0,0,.765.233c.44,0,.616-.211.616-.475s-.163-.44-.589-.589c-.576-.2-.844-.519-.844-.879a.98.98,0,0,1,1.1-.936,1.6,1.6,0,0,1,.787.2l-.145.44a1.253,1.253,0,0,0-.655-.185c-.343,0-.536.2-.536.44s.193.383.607.541c.554.211.84.488.84.963,0,.558-.44.954-1.191.954a1.8,1.8,0,0,1-.879-.215Z" transform="translate(-121.363 -58.445)"/>
    <path id="Path_3352" data-name="Path 3352" d="M225.972,101.54v3.86a6.771,6.771,0,0,0,.031.822h-.523l-.026-.554h0a1.178,1.178,0,0,1-1.086.629A1.457,1.457,0,0,1,223,104.675a1.531,1.531,0,0,1,1.433-1.715,1.064,1.064,0,0,1,.963.488h0V101.54Zm-.576,2.792a.943.943,0,0,0-.031-.246.849.849,0,0,0-.835-.673c-.6,0-.954.528-.954,1.235s.317,1.178.941,1.178a.879.879,0,0,0,.849-.69.91.91,0,0,0,.031-.251Z" transform="translate(-124.675 -56.616)"/>
    <path id="Path_3353" data-name="Path 3353" d="M233.45,108.032l-.048-.4h0a1.2,1.2,0,0,1-.976.475.91.91,0,0,1-.976-.919c0-.769.686-1.191,1.917-1.187v-.066a.655.655,0,0,0-.725-.739,1.6,1.6,0,0,0-.831.237l-.132-.383a1.983,1.983,0,0,1,1.051-.281c.972,0,1.209.664,1.209,1.319v1.191a4.447,4.447,0,0,0,.057.765Zm-.088-1.627c-.633,0-1.35.1-1.35.717a.51.51,0,0,0,.545.554.8.8,0,0,0,.774-.532.7.7,0,0,0,.031-.185Z" transform="translate(-129.41 -58.426)"/>
    <path id="Path_3354" data-name="Path 3354" d="M241.673,104.866c0,.233-.026.488-.026.879V107.6a1.9,1.9,0,0,1-.44,1.46,1.679,1.679,0,0,1-1.156.383,2.075,2.075,0,0,1-1.064-.264l.145-.44a1.8,1.8,0,0,0,.936.251c.594,0,1.029-.308,1.029-1.112v-.339h0a1.143,1.143,0,0,1-1.016.532,1.429,1.429,0,0,1-1.359-1.556,1.529,1.529,0,0,1,1.438-1.693,1.055,1.055,0,0,1,.994.554h0l.026-.484Zm-.6,1.262a.823.823,0,0,0-.031-.264.84.84,0,0,0-.813-.616c-.554,0-.945.47-.945,1.209,0,.624.317,1.148.941,1.148a.849.849,0,0,0,.8-.594.959.959,0,0,0,.044-.312Z" transform="translate(-133.482 -58.452)"/>
    <path id="Path_3355" data-name="Path 3355" d="M206.4,120.986h0l-.747.4-.11-.44.936-.5h.492v4.287h-.558Z" transform="translate(-114.892 -67.212)"/>
    <path id="Path_3356" data-name="Path 3356" d="M215.2,120.44v.383l-1.864,3.9h-.62l1.86-3.79H212.5v-.484Z" transform="translate(-118.791 -67.207)"/>
    <path id="Path_3357" data-name="Path 3357" d="M220.116,128.883a.391.391,0,0,1,.4-.413.382.382,0,0,1,.387.413.387.387,0,0,1-.391.44.391.391,0,0,1-.391-.44Z" transform="translate(-123.057 -71.706)"/>
    <path id="Path_3358" data-name="Path 3358" d="M223.12,124.624v-.356l.44-.44c1.095-1.042,1.592-1.6,1.6-2.242a.765.765,0,0,0-.849-.84,1.442,1.442,0,0,0-.91.365l-.185-.409a1.873,1.873,0,0,1,1.213-.44,1.2,1.2,0,0,1,1.319,1.244c0,.791-.572,1.433-1.477,2.3l-.343.317h1.926v.479Z" transform="translate(-124.742 -67.105)"/>
    <path id="Path_3359" data-name="Path 3359" d="M230.69,123.571a1.227,1.227,0,0,1,.853-1.148h0a1.06,1.06,0,0,1-.677-.963,1.2,1.2,0,0,1,1.319-1.139,1.106,1.106,0,0,1,1.244,1.055,1.1,1.1,0,0,1-.708,1h0a1.191,1.191,0,0,1,.879,1.108,1.321,1.321,0,0,1-1.455,1.249C231.235,124.732,230.69,124.2,230.69,123.571Zm2.308-.026c0-.523-.361-.774-.941-.936a.928.928,0,0,0-.769.879.787.787,0,0,0,.857.822.774.774,0,0,0,.853-.765Zm-1.6-2.146c0,.44.325.659.822.791a.844.844,0,0,0,.651-.778.668.668,0,0,0-.725-.7.682.682,0,0,0-.747.686Z" transform="translate(-128.984 -67.138)"/>
    <path id="Path_3360" data-name="Path 3360" d="M375,103.87a5.815,5.815,0,0,1,1.1-.092,1.816,1.816,0,0,1,1.284.361,1.108,1.108,0,0,1,.352.844,1.165,1.165,0,0,1-.84,1.134v.022a1.108,1.108,0,0,1,.655.879,7.033,7.033,0,0,0,.343,1.218H377.3a5.6,5.6,0,0,1-.3-1.06c-.132-.616-.369-.844-.879-.879h-.541v1.97H375Zm.576,2.022h.585c.615,0,1-.334,1-.844s-.413-.822-1.02-.831a2.362,2.362,0,0,0-.567.053Z" transform="translate(-209.846 -57.865)" fill="#66a8de"/>
    <path id="Path_3361" data-name="Path 3361" d="M383.071,108.312a1.02,1.02,0,0,0,1.095,1.108,2.119,2.119,0,0,0,.879-.163l.1.413a2.572,2.572,0,0,1-1.06.2,1.482,1.482,0,0,1-1.57-1.609,1.547,1.547,0,0,1,1.495-1.719,1.351,1.351,0,0,1,1.319,1.5v.268Zm1.7-.413a.831.831,0,0,0-.8-.945.963.963,0,0,0-.879.945Z" transform="translate(-214.053 -59.418)" fill="#66a8de"/>
    <path id="Path_3362" data-name="Path 3362" d="M393.047,103.31v3.86a7.891,7.891,0,0,0,.026.822h-.523l-.026-.554h0a1.178,1.178,0,0,1-1.086.629,1.457,1.457,0,0,1-1.367-1.622,1.531,1.531,0,0,1,1.433-1.715,1.064,1.064,0,0,1,.963.488h0V103.31Zm-.58,2.792a1.172,1.172,0,0,0-.026-.246.879.879,0,0,0-.84-.673c-.6,0-.954.528-.954,1.235s.317,1.178.941,1.178a.879.879,0,0,0,.853-.69,1.125,1.125,0,0,0,.026-.251Z" transform="translate(-218.291 -57.608)" fill="#66a8de"/>
    <path id="Path_3363" data-name="Path 3363" d="M399.581,104.2a.361.361,0,1,1-.721,0,.356.356,0,0,1,.365-.361.347.347,0,0,1,.356.361Zm-.659,4.106V105.1h.58v3.21Z" transform="translate(-223.216 -57.905)" fill="#66a8de"/>
    <path id="Path_3364" data-name="Path 3364" d="M405.017,106.614c0,.233-.026.488-.026.879v1.851a1.9,1.9,0,0,1-.44,1.46,1.7,1.7,0,0,1-1.161.382,2.075,2.075,0,0,1-1.064-.264l.145-.44a1.8,1.8,0,0,0,.936.251c.594,0,1.029-.308,1.029-1.112v-.356h0a1.139,1.139,0,0,1-1.016.532,1.429,1.429,0,0,1-1.359-1.556,1.531,1.531,0,0,1,1.438-1.693,1.068,1.068,0,0,1,1,.554h0l.022-.484Zm-.6,1.262a.817.817,0,0,0-.035-.264.831.831,0,0,0-.809-.616c-.554,0-.95.47-.95,1.209,0,.624.317,1.148.941,1.148a.849.849,0,0,0,.8-.594.964.964,0,0,0,.048-.312Z" transform="translate(-225.007 -59.422)" fill="#66a8de"/>
    <path id="Path_3365" data-name="Path 3365" d="M410.941,108.312a1.02,1.02,0,0,0,1.095,1.108,2.119,2.119,0,0,0,.879-.163l.1.413a2.572,2.572,0,0,1-1.06.2,1.482,1.482,0,0,1-1.57-1.609,1.547,1.547,0,0,1,1.495-1.719,1.351,1.351,0,0,1,1.319,1.5v.268Zm1.7-.413a.831.831,0,0,0-.8-.945.963.963,0,0,0-.879.945Z" transform="translate(-229.669 -59.418)" fill="#66a8de"/>
    <path id="Path_3366" data-name="Path 3366" d="M418.4,107.631c0-.378,0-.7-.022-1h.506l.022.629h.022a.963.963,0,0,1,.879-.7.629.629,0,0,1,.167,0v.55a.879.879,0,0,0-.2,0,.818.818,0,0,0-.778.747,1.637,1.637,0,0,0-.026.268v1.7H418.4Z" transform="translate(-234.154 -59.428)" fill="#66a8de"/>
    <rect id="Rectangle_1811" data-name="Rectangle 1811" width="180.93" height="112.659" transform="translate(7.684 116.989)" fill="#ccf0f2"/>
    <rect id="Rectangle_1812" data-name="Rectangle 1812" width="180.93" height="19.697" transform="translate(7.684 209.951)" fill="#565656"/>
    <circle id="Ellipse_122" data-name="Ellipse 122" cx="11.603" cy="11.603" r="11.603" transform="translate(152.386 123.263)" fill="#efef8e"/>
    <rect id="Rectangle_1813" data-name="Rectangle 1813" width="166.764" height="62.467" rx="31.234" transform="translate(14.701 149.774)" fill="#ceaa36"/>
    <circle id="Ellipse_123" data-name="Ellipse 123" cx="13.981" cy="13.981" r="13.981" transform="translate(23.574 200.613)" fill="#282726"/>
    <circle id="Ellipse_124" data-name="Ellipse 124" cx="13.981" cy="13.981" r="13.981" transform="translate(150.148 200.648)" fill="#282726"/>
    <rect id="Rectangle_1814" data-name="Rectangle 1814" width="26.041" height="28.064" rx="13.021" transform="translate(14.701 155.305)" fill="#e3e8e8"/>
    <rect id="Rectangle_1815" data-name="Rectangle 1815" width="17.134" height="12.548" rx="6.274" transform="translate(54.504 160.836)" fill="#e3e8e8"/>
    <rect id="Rectangle_1816" data-name="Rectangle 1816" width="17.134" height="12.548" rx="6.274" transform="translate(82.972 160.836)" fill="#e3e8e8"/>
    <rect id="Rectangle_1817" data-name="Rectangle 1817" width="17.134" height="12.548" rx="6.274" transform="translate(110.899 160.836)" fill="#e3e8e8"/>
    <rect id="Rectangle_1818" data-name="Rectangle 1818" width="17.134" height="12.548" rx="6.274" transform="translate(140.445 160.836)" fill="#e3e8e8"/>
    <rect id="Rectangle_1819" data-name="Rectangle 1819" width="6.881" height="4.049" rx="2.025" transform="translate(14.701 191.195)" fill="#d35b26"/>
    <rect id="Rectangle_1820" data-name="Rectangle 1820" width="104.292" height="20.374" transform="translate(55.445 176.893)" fill="#f4cbcb"/>
    <path id="Path_3367" data-name="Path 3367" d="M335.186,420.286a13.267,13.267,0,0,0,2.176-1.759,7.7,7.7,0,0,0,1.6-4.317c.075-1.2-.035-3.856-1.143-4.318s-3.113,1.464-3.434,3.64c-.268,1.816.686,3.3,1.6,4.722a10.257,10.257,0,0,0,3.667,3.377c.7.44,1.218.624,1.257.536s-.774-.721-.686-.945.976.154,1.029,0-.994-.761-1.943-1.482a8.741,8.741,0,0,1-2.981-3.24c-.475-1.007-1.077-2.963-.343-3.913a1.122,1.122,0,0,1,1.376-.4c.655.44.44,2.2.229,3.1a7.474,7.474,0,0,1-2.977,4.186,7.694,7.694,0,0,1-2.291,1.213c-.44.2-.936.44-.914.536.035.171,1.552-.211,1.6,0,.022.092-.246.215-.8.677-.215.18-.594.492-.572.541s1.548-.84,1.715-.945C333.867,421.174,334.438,420.822,335.186,420.286Z" transform="translate(-185.42 -229.359)" fill="#dd4a7f"/>
    <path id="Path_3368" data-name="Path 3368" d="M140.4,421a5.246,5.246,0,0,0,1.082,4.322,4.314,4.314,0,0,0,5.8,0c.985-.958.91-2.2,1.618-2.3s1.077,1.178,2.431,2.449c.343.325,2.37,2.225,4.317,1.873,1.719-.308,3.122-2.321,3.64-4.9" transform="translate(-78.342 -235.622)" fill="#f4dbce"/>
    <circle id="Ellipse_125" data-name="Ellipse 125" cx="0.281" cy="0.281" r="0.281" transform="translate(65.192 189.23)" fill="#b75949"/>
    <ellipse id="Ellipse_126" data-name="Ellipse 126" cx="0.466" cy="0.475" rx="0.466" ry="0.475" transform="translate(76.399 190.043)" fill="#b75949"/>
    <path id="Path_3369" data-name="Path 3369" d="M192.889,417.05c-1.886,3.029-1.556,6.353.136,7.69,1.354,1.073,3.636.879,5.126.268,1.6-.681,1.644-1.618,2.831-1.759,1.759-.2,2.3,1.759,4.59,2.3,1.688.391,4.146-.04,5.276-1.759s.695-4.4-1.213-6.34" transform="translate(-107.086 -233.408)" fill="#9b8051"/>
    <ellipse id="Ellipse_127" data-name="Ellipse 127" cx="1.152" cy="0.897" rx="1.152" ry="0.897" transform="translate(86.427 190.236) rotate(-45)" fill="#5e3654"/>
    <ellipse id="Ellipse_128" data-name="Ellipse 128" cx="0.928" cy="1.398" rx="0.928" ry="1.398" transform="translate(98.755 189.712) rotate(-45)" fill="#5e3654"/>
    <path id="Path_3370" data-name="Path 3370" d="M248.07,426.72a4.885,4.885,0,0,0,2.506,1.961c1.548.36,1.908-1.112,3.768-.932,1.073.105,1.068.6,2.761.879a3.766,3.766,0,0,0,2.383-.145,5.276,5.276,0,0,0,1.957-1.873" transform="translate(-138.723 -238.765)" fill="#f4ebd3"/>
    <circle id="Ellipse_129" data-name="Ellipse 129" cx="0.158" cy="0.158" r="0.158" transform="translate(112.064 189.379)" fill="#efbbe5"/>
    <circle id="Ellipse_130" data-name="Ellipse 130" cx="0.158" cy="0.158" r="0.158" transform="translate(119.534 189.344)" fill="#efbbe5"/>
    <path id="Path_3371" data-name="Path 3371" d="M290.4,418.27a12.219,12.219,0,0,0-.268,4.59c.1.747.585,4.357,2.022,4.586,1.209.189,2.805-2.062,3.372-4.049.44-1.561.193-2.761.541-2.831.563-.114,1.759,2.994,1.886,3.372.774,2.031.835,3.078,1.759,3.517a1.859,1.859,0,0,0,1.622,0c.616-.334.95-1.13,1.077-3.777a36.385,36.385,0,0,0-.136-5.276" transform="translate(-162.236 -234.092)" fill="#c1a38f"/>
    <ellipse id="Ellipse_131" data-name="Ellipse 131" cx="0.831" cy="0.765" rx="0.831" ry="0.765" transform="translate(129.149 192.503) rotate(-45)" fill="#60353c"/>
    <ellipse id="Ellipse_132" data-name="Ellipse 132" cx="0.831" cy="0.765" rx="0.831" ry="0.765" transform="translate(137.45 192.714) rotate(-45)" fill="#60353c"/>
  </g>
</svg>
