<?xml version="1.0" standalone="no"?>
<!DOCTYPE svg PUBLIC "-//W3C//DTD SVG 20010904//EN"
 "http://www.w3.org/TR/2001/REC-SVG-20010904/DTD/svg10.dtd">
<svg version="1.0" xmlns="http://www.w3.org/2000/svg"
 width="260.000000pt" height="260.000000pt" viewBox="0 0 260.000000 260.000000"
 preserveAspectRatio="xMidYMid meet">
<metadata>
Created by potrace 1.11, written by Peter Selinger 2001-2013
</metadata>
<g transform="translate(0.000000,260.000000) scale(0.100000,-0.100000)"
fill="#000000" stroke="none">
<path d="M58 2584 c-61 -33 -58 42 -58 -1287 l0 -1214 23 -34 c12 -18 33 -36
47 -40 14 -4 569 -7 1233 -8 1062 -1 1212 1 1237 14 64 33 60 -45 60 1285 0
1330 4 1252 -60 1285 -25 13 -177 15 -1242 15 -1053 -1 -1217 -3 -1240 -16z"/>
</g>
</svg>
